{
date = "2013-03-12 14:11:37 +0200";
familyName = "Open Sans Hebrew";
fontMaster = (
{
alignmentZones = (
"{3209, 20}",
"{1462, 23}",
"{1295, 30}",
"{1118, 23}",
"{0, 20}",
"{-492, 0}",
"{-1008, 20}"
);
ascender = 3209;
capHeight = 1462;
customParameters = (
{
name = postscriptUnderlinePosition;
value = "-205";
},
{
name = postscriptUnderlineThickness;
value = 102;
}
);
descender = "-1008";
horizontalStems = (
219,
258,
340
);
id = "3B25EE82-5579-4A28-8C59-D985C68457B1";
verticalStems = (
252,
305,
350
);
weight = Bold;
weightValue = 800;
widthValue = 5;
xHeight = 1118;
}
);
glyphs = (
{
glyphname = A;
lastChange = "2013-03-07 06:18:30 +0200";
layers = (
{
anchors = (
{
name = ogonek;
position = "{1338, 10}";
},
{
name = top;
position = "{744, 1462}";
}
);
layerId = "3B25EE82-5579-4A28-8C59-D985C68457B1";
name = Bold;
paths = (
{
closed = 1;
nodes = (
"477 1468 LINE",
"0 0 LINE",
"434 0 LINE",
"508 274 LINE",
"982 274 LINE",
"1055 0 LINE",
"1487 0 LINE",
"1004 1468 LINE"
);
},
{
closed = 1;
nodes = (
"750 1190 OFFCURVE",
"763 1130 OFFCURVE",
"784 1045 CURVE SMOOTH",
"805 960 OFFCURVE",
"823 891 OFFCURVE",
"838 838 CURVE SMOOTH",
"901 598 LINE",
"590 598 LINE",
"651 827 OFFCURVE",
"690 980 OFFCURVE",
"707 1059 CURVE SMOOTH",
"725 1137 OFFCURVE",
"737 1193 OFFCURVE",
"743 1227 CURVE"
);
}
);
width = 1487;
}
);
unicode = 0041;
},
{
glyphname = AE;
lastChange = "2013-03-07 06:18:30 +0200";
layers = (
{
layerId = "3B25EE82-5579-4A28-8C59-D985C68457B1";
name = Bold;
paths = (
{
closed = 1;
nodes = (
"618 1462 LINE",
"-10 0 LINE",
"432 0 LINE",
"532 274 LINE",
"969 274 LINE",
"969 0 LINE",
"1839 0 LINE",
"1839 322 LINE",
"1366 322 LINE",
"1366 598 LINE",
"1804 598 LINE",
"1804 915 LINE",
"1366 915 LINE",
"1366 1145 LINE",
"1839 1145 LINE",
"1839 1462 LINE"
);
},
{
closed = 1;
nodes = (
"969 602 LINE",
"653 602 LINE",
"858 1128 LINE",
"969 1128 LINE"
);
}
);
width = 1937;
}
);
unicode = 00C6;
},
{
glyphname = B;
lastChange = "2013-03-07 06:18:30 +0200";
layers = (
{
layerId = "3B25EE82-5579-4A28-8C59-D985C68457B1";
name = Bold;
paths = (
{
closed = 1;
nodes = (
"158 1462 LINE",
"158 0 LINE",
"727 0 LINE SMOOTH",
"899 0 OFFCURVE",
"1035 38 OFFCURVE",
"1134 114 CURVE SMOOTH",
"1234 191 OFFCURVE",
"1284 295 OFFCURVE",
"1284 428 CURVE SMOOTH",
"1284 607 OFFCURVE",
"1207 718 OFFCURVE",
"1026 766 CURVE",
"1026 776 LINE",
"1095 793 OFFCURVE",
"1150 830 OFFCURVE",
"1192 888 CURVE SMOOTH",
"1234 946 OFFCURVE",
"1255 1016 OFFCURVE",
"1255 1098 CURVE SMOOTH",
"1255 1347 OFFCURVE",
"1065 1462 OFFCURVE",
"668 1462 CURVE SMOOTH"
);
},
{
closed = 1;
nodes = (
"809 612 OFFCURVE",
"877 558 OFFCURVE",
"877 461 CURVE SMOOTH",
"877 357 OFFCURVE",
"815 305 OFFCURVE",
"692 305 CURVE SMOOTH",
"553 305 LINE",
"553 612 LINE",
"684 612 LINE SMOOTH"
);
},
{
closed = 1;
nodes = (
"788 1163 OFFCURVE",
"850 1122 OFFCURVE",
"850 1040 CURVE SMOOTH",
"850 948 OFFCURVE",
"785 901 OFFCURVE",
"672 901 CURVE SMOOTH",
"553 901 LINE",
"553 1163 LINE",
"664 1163 LINE SMOOTH"
);
}
);
width = 1380;
}
);
unicode = 0042;
},
{
glyphname = C;
lastChange = "2013-03-07 06:18:30 +0200";
layers = (
{
anchors = (
{
name = bottom;
position = "{665, 0}";
},
{
name = top;
position = "{665, 1462}";
}
);
layerId = "3B25EE82-5579-4A28-8C59-D985C68457B1";
name = Bold;
paths = (
{
closed = 1;
nodes = (
"379 1489 OFFCURVE",
"99 1181 OFFCURVE",
"104 727 CURVE SMOOTH",
"104 485 OFFCURVE",
"163 300 OFFCURVE",
"280 172 CURVE SMOOTH",
"398 44 OFFCURVE",
"567 -20 OFFCURVE",
"788 -20 CURVE SMOOTH",
"942 -20 OFFCURVE",
"1080 7 OFFCURVE",
"1202 61 CURVE",
"1202 395 LINE",
"1079 344 OFFCURVE",
"960 303 OFFCURVE",
"831 303 CURVE SMOOTH",
"617 303 OFFCURVE",
"510 444 OFFCURVE",
"510 725 CURVE SMOOTH",
"510 860 OFFCURVE",
"536 966 OFFCURVE",
"589 1043 CURVE SMOOTH",
"642 1120 OFFCURVE",
"715 1159 OFFCURVE",
"809 1159 CURVE SMOOTH",
"933 1159 OFFCURVE",
"1037 1120 OFFCURVE",
"1145 1069 CURVE",
"1266 1380 LINE",
"1122 1449 OFFCURVE",
"970 1483 OFFCURVE",
"813 1483 CURVE SMOOTH"
);
}
);
width = 1329;
}
);
unicode = 0043;
},
{
glyphname = D;
lastChange = "2013-03-07 06:18:30 +0200";
layers = (
{
anchors = (
{
name = center;
position = "{752, 731}";
},
{
name = top;
position = "{752, 1462}";
}
);
layerId = "3B25EE82-5579-4A28-8C59-D985C68457B1";
name = Bold;
paths = (
{
closed = 1;
nodes = (
"158 1462 LINE",
"158 0 LINE",
"631 0 LINE SMOOTH",
"874 0 OFFCURVE",
"1063 66 OFFCURVE",
"1197 198 CURVE SMOOTH",
"1332 330 OFFCURVE",
"1399 518 OFFCURVE",
"1399 762 CURVE SMOOTH",
"1399 988 OFFCURVE",
"1335 1162 OFFCURVE",
"1207 1282 CURVE SMOOTH",
"1080 1402 OFFCURVE",
"899 1462 OFFCURVE",
"664 1462 CURVE SMOOTH"
);
},
{
closed = 1;
nodes = (
"884 1143 OFFCURVE",
"988 1016 OFFCURVE",
"988 748 CURVE SMOOTH",
"988 461 OFFCURVE",
"881 324 OFFCURVE",
"641 324 CURVE SMOOTH",
"553 324 LINE",
"553 1143 LINE",
"668 1143 LINE SMOOTH"
);
}
);
width = 1503;
}
);
unicode = 0044;
},
{
glyphname = Eth;
lastChange = "2013-03-07 06:18:30 +0200";
layers = (
{
layerId = "3B25EE82-5579-4A28-8C59-D985C68457B1";
name = Bold;
paths = (
{
closed = 1;
nodes = (
"158 1462 LINE",
"158 883 LINE",
"31 883 LINE",
"31 563 LINE",
"158 563 LINE",
"158 0 LINE",
"631 0 LINE SMOOTH",
"1118 0 OFFCURVE",
"1399 274 OFFCURVE",
"1399 762 CURVE SMOOTH",
"1399 1215 OFFCURVE",
"1133 1462 OFFCURVE",
"664 1462 CURVE SMOOTH"
);
},
{
closed = 1;
nodes = (
"884 1143 OFFCURVE",
"989 1016 OFFCURVE",
"989 748 CURVE SMOOTH",
"989 461 OFFCURVE",
"881 324 OFFCURVE",
"641 324 CURVE SMOOTH",
"553 324 LINE",
"553 563 LINE",
"764 563 LINE",
"764 883 LINE",
"553 883 LINE",
"553 1143 LINE",
"668 1143 LINE SMOOTH"
);
}
);
width = 1503;
}
);
unicode = 00D0;
},
{
glyphname = E;
lastChange = "2013-03-07 06:18:30 +0200";
layers = (
{
anchors = (
{
name = bottom;
position = "{562, 0}";
},
{
name = ogonek;
position = "{1012, 10}";
},
{
name = top;
position = "{562, 1462}";
}
);
layerId = "3B25EE82-5579-4A28-8C59-D985C68457B1";
name = Bold;
paths = (
{
closed = 1;
nodes = (
"158 1462 LINE",
"158 0 LINE",
"1026 0 LINE",
"1026 322 LINE",
"553 322 LINE",
"553 598 LINE",
"990 598 LINE",
"990 915 LINE",
"553 915 LINE",
"553 1145 LINE",
"1026 1145 LINE",
"1026 1462 LINE"
);
}
);
width = 1124;
}
);
unicode = 0045;
},
{
glyphname = F;
lastChange = "2013-03-07 06:18:30 +0200";
layers = (
{
layerId = "3B25EE82-5579-4A28-8C59-D985C68457B1";
name = Bold;
paths = (
{
closed = 1;
nodes = (
"158 1462 LINE",
"158 0 LINE",
"547 0 LINE",
"547 549 LINE",
"984 549 LINE",
"984 866 LINE",
"547 866 LINE",
"547 1145 LINE",
"1022 1145 LINE",
"1022 1462 LINE"
);
}
);
width = 1104;
}
);
unicode = 0046;
},
{
glyphname = G;
lastChange = "2013-03-07 06:18:30 +0200";
layers = (
{
anchors = (
{
name = bottom;
position = "{758, 0}";
},
{
name = top;
position = "{758, 1462}";
}
);
layerId = "3B25EE82-5579-4A28-8C59-D985C68457B1";
name = Bold;
paths = (
{
closed = 1;
nodes = (
"629 1483 OFFCURVE",
"441 1417 OFFCURVE",
"306 1286 CURVE SMOOTH",
"171 1155 OFFCURVE",
"104 970 OFFCURVE",
"104 735 CURVE SMOOTH",
"104 493 OFFCURVE",
"165 307 OFFCURVE",
"288 176 CURVE SMOOTH",
"411 45 OFFCURVE",
"586 -20 OFFCURVE",
"811 -20 CURVE SMOOTH",
"1016 -20 OFFCURVE",
"1205 9 OFFCURVE",
"1376 68 CURVE",
"1376 856 LINE",
"745 856 LINE",
"745 551 LINE",
"1006 551 LINE",
"1006 322 LINE",
"957 311 OFFCURVE",
"903 305 OFFCURVE",
"844 305 CURVE SMOOTH",
"629 305 OFFCURVE",
"512 452 OFFCURVE",
"512 725 CURVE SMOOTH",
"512 1004 OFFCURVE",
"643 1159 OFFCURVE",
"874 1159 CURVE SMOOTH",
"999 1159 OFFCURVE",
"1116 1133 OFFCURVE",
"1221 1081 CURVE",
"1346 1391 LINE",
"1225 1444 OFFCURVE",
"1056 1483 OFFCURVE",
"872 1483 CURVE SMOOTH"
);
}
);
width = 1516;
}
);
unicode = 0047;
},
{
glyphname = H;
lastChange = "2013-03-07 06:18:30 +0200";
layers = (
{
anchors = (
{
name = center;
position = "{785, 731}";
},
{
name = top;
position = "{785, 1462}";
}
);
layerId = "3B25EE82-5579-4A28-8C59-D985C68457B1";
name = Bold;
paths = (
{
closed = 1;
nodes = (
"1014 1462 LINE",
"1014 920 LINE",
"555 920 LINE",
"555 1462 LINE",
"158 1462 LINE",
"158 0 LINE",
"555 0 LINE",
"555 596 LINE",
"1014 596 LINE",
"1014 0 LINE",
"1411 0 LINE",
"1411 1462 LINE"
);
}
);
width = 1569;
}
);
unicode = 0048;
},
{
glyphname = I;
lastChange = "2013-03-07 06:18:30 +0200";
layers = (
{
anchors = (
{
name = ogonek;
position = "{642, 10}";
},
{
name = top;
position = "{357, 1462}";
}
);
layerId = "3B25EE82-5579-4A28-8C59-D985C68457B1";
name = Bold;
paths = (
{
closed = 1;
nodes = (
"158 1462 LINE",
"158 0 LINE",
"555 0 LINE",
"555 1462 LINE"
);
}
);
width = 713;
}
);
unicode = 0049;
},
{
glyphname = J;
lastChange = "2013-03-07 06:18:30 +0200";
layers = (
{
anchors = (
{
name = top;
position = "{361, 1462}";
}
);
layerId = "3B25EE82-5579-4A28-8C59-D985C68457B1";
name = Bold;
paths = (
{
closed = 1;
nodes = (
"166 1462 LINE",
"166 109 LINE SMOOTH",
"166 14 OFFCURVE",
"152 -54 OFFCURVE",
"124 -92 CURVE SMOOTH",
"95 -132 OFFCURVE",
"49 -152 OFFCURVE",
"-16 -152 CURVE SMOOTH",
"-72 -152 OFFCURVE",
"-119 -139 OFFCURVE",
"-162 -131 CURVE",
"-162 -438 LINE",
"-96 -452 OFFCURVE",
"-29 -459 OFFCURVE",
"43 -459 CURVE SMOOTH",
"390 -459 OFFCURVE",
"563 -253 OFFCURVE",
"563 143 CURVE SMOOTH",
"563 1462 LINE"
);
}
);
width = 721;
}
);
unicode = 004A;
},
{
glyphname = K;
lastChange = "2013-03-07 06:18:30 +0200";
layers = (
{
anchors = (
{
name = bottom;
position = "{704, 0}";
},
{
name = top;
position = "{704, 1462}";
}
);
layerId = "3B25EE82-5579-4A28-8C59-D985C68457B1";
name = Bold;
paths = (
{
closed = 1;
nodes = (
"982 1462 LINE",
"676 1014 LINE SMOOTH",
"615 929 OFFCURVE",
"575 866 OFFCURVE",
"555 827 CURVE",
"555 1462 LINE",
"158 1462 LINE",
"158 0 LINE",
"555 0 LINE",
"555 489 LINE",
"672 559 LINE",
"961 0 LINE",
"1407 0 LINE",
"954 807 LINE",
"1415 1462 LINE"
);
}
);
width = 1407;
}
);
unicode = 004B;
},
{
glyphname = L;
lastChange = "2013-03-07 06:18:30 +0200";
layers = (
{
anchors = (
{
name = bottom;
position = "{596, 0}";
},
{
name = top;
position = "{596, 1462}";
}
);
layerId = "3B25EE82-5579-4A28-8C59-D985C68457B1";
name = Bold;
paths = (
{
closed = 1;
nodes = (
"158 1462 LINE",
"158 0 LINE",
"1116 0 LINE",
"1116 319 LINE",
"553 319 LINE",
"553 1462 LINE"
);
}
);
width = 1192;
}
);
unicode = 004C;
},
{
glyphname = M;
lastChange = "2013-03-07 06:18:30 +0200";
layers = (
{
layerId = "3B25EE82-5579-4A28-8C59-D985C68457B1";
name = Bold;
paths = (
{
closed = 1;
nodes = (
"1296 1462 LINE",
"996 424 LINE",
"988 424 LINE",
"684 1462 LINE",
"158 1462 LINE",
"158 0 LINE",
"508 0 LINE",
"508 635 LINE SMOOTH",
"508 734 OFFCURVE",
"501 874 OFFCURVE",
"487 1053 CURVE",
"496 1053 LINE",
"795 0 LINE",
"1171 0 LINE",
"1466 1051 LINE",
"1475 1051 LINE",
"1467 892 OFFCURVE",
"1462 793 OFFCURVE",
"1461 752 CURVE SMOOTH",
"1460 711 OFFCURVE",
"1460 674 OFFCURVE",
"1460 641 CURVE SMOOTH",
"1460 0 LINE",
"1823 0 LINE",
"1823 1462 LINE"
);
}
);
width = 1980;
}
);
unicode = 004D;
},
{
glyphname = N;
lastChange = "2013-03-07 06:18:30 +0200";
layers = (
{
anchors = (
{
name = bottom;
position = "{854, 0}";
},
{
name = top;
position = "{854, 1462}";
}
);
layerId = "3B25EE82-5579-4A28-8C59-D985C68457B1";
name = Bold;
paths = (
{
closed = 1;
nodes = (
"1198 1462 LINE",
"1198 801 LINE SMOOTH",
"1198 712 OFFCURVE",
"1203 593 OFFCURVE",
"1212 446 CURVE",
"1206 446 LINE",
"674 1462 LINE",
"158 1462 LINE",
"158 0 LINE",
"508 0 LINE",
"508 659 LINE SMOOTH",
"508 744 OFFCURVE",
"502 868 OFFCURVE",
"489 1030 CURVE",
"498 1030 LINE",
"1032 0 LINE",
"1550 0 LINE",
"1550 1462 LINE"
);
}
);
width = 1708;
}
);
unicode = 004E;
},
{
glyphname = O;
lastChange = "2013-03-07 06:18:30 +0200";
layers = (
{
anchors = (
{
name = top;
position = "{816, 1462}";
}
);
layerId = "3B25EE82-5579-4A28-8C59-D985C68457B1";
name = Bold;
paths = (
{
closed = 1;
nodes = (
"585 1485 OFFCURVE",
"408 1421 OFFCURVE",
"286 1292 CURVE SMOOTH",
"165 1164 OFFCURVE",
"104 977 OFFCURVE",
"104 735 CURVE SMOOTH",
"104 489 OFFCURVE",
"165 302 OFFCURVE",
"287 173 CURVE SMOOTH",
"410 44 OFFCURVE",
"586 -20 OFFCURVE",
"815 -20 CURVE SMOOTH",
"1280 -20 OFFCURVE",
"1526 241 OFFCURVE",
"1526 733 CURVE SMOOTH",
"1526 1226 OFFCURVE",
"1282 1485 OFFCURVE",
"817 1485 CURVE SMOOTH"
);
},
{
closed = 1;
nodes = (
"1012 1161 OFFCURVE",
"1110 1025 OFFCURVE",
"1110 733 CURVE SMOOTH",
"1110 442 OFFCURVE",
"1015 309 OFFCURVE",
"815 309 CURVE SMOOTH",
"618 309 OFFCURVE",
"520 450 OFFCURVE",
"520 733 CURVE SMOOTH",
"520 1018 OFFCURVE",
"619 1161 OFFCURVE",
"817 1161 CURVE SMOOTH"
);
}
);
width = 1632;
}
);
unicode = 004F;
},
{
glyphname = Oslash;
lastChange = "2013-03-07 06:18:30 +0200";
layers = (
{
layerId = "3B25EE82-5579-4A28-8C59-D985C68457B1";
name = Bold;
paths = (
{
closed = 1;
nodes = (
"1147 1430 LINE",
"1054 1467 OFFCURVE",
"944 1485 OFFCURVE",
"817 1485 CURVE SMOOTH",
"353 1485 OFFCURVE",
"104 1222 OFFCURVE",
"104 735 CURVE SMOOTH",
"104 468 OFFCURVE",
"174 270 OFFCURVE",
"315 141 CURVE",
"231 16 LINE",
"424 -109 LINE",
"508 23 LINE",
"595 -6 OFFCURVE",
"697 -20 OFFCURVE",
"815 -20 CURVE SMOOTH",
"1280 -20 OFFCURVE",
"1526 241 OFFCURVE",
"1526 733 CURVE SMOOTH",
"1526 991 OFFCURVE",
"1461 1183 OFFCURVE",
"1331 1309 CURVE",
"1413 1434 LINE",
"1223 1548 LINE"
);
},
{
closed = 1;
nodes = (
"1104 887 OFFCURVE",
"1110 816 OFFCURVE",
"1110 733 CURVE SMOOTH",
"1110 442 OFFCURVE",
"1015 309 OFFCURVE",
"815 309 CURVE SMOOTH",
"773 309 OFFCURVE",
"734 314 OFFCURVE",
"698 324 CURVE",
"1092 944 LINE"
);
},
{
closed = 1;
nodes = (
"862 1161 OFFCURVE",
"907 1152 OFFCURVE",
"952 1133 CURVE",
"549 494 LINE",
"530 550 OFFCURVE",
"520 630 OFFCURVE",
"520 733 CURVE SMOOTH",
"520 1018 OFFCURVE",
"619 1161 OFFCURVE",
"817 1161 CURVE SMOOTH"
);
}
);
width = 1632;
}
);
unicode = 00D8;
},
{
glyphname = OE;
lastChange = "2013-03-07 06:18:30 +0200";
layers = (
{
layerId = "3B25EE82-5579-4A28-8C59-D985C68457B1";
name = Bold;
paths = (
{
closed = 1;
nodes = (
"347 1485 OFFCURVE",
"104 1214 OFFCURVE",
"104 735 CURVE SMOOTH",
"104 262 OFFCURVE",
"349 -20 OFFCURVE",
"774 -20 CURVE SMOOTH",
"850 -20 OFFCURVE",
"973 -11 OFFCURVE",
"1018 0 CURVE",
"1862 0 LINE",
"1862 322 LINE",
"1389 322 LINE",
"1389 598 LINE",
"1825 598 LINE",
"1825 915 LINE",
"1389 915 LINE",
"1389 1145 LINE",
"1862 1145 LINE",
"1862 1462 LINE",
"1026 1462 LINE",
"986 1474 OFFCURVE",
"865 1485 OFFCURVE",
"776 1485 CURVE SMOOTH"
);
},
{
closed = 1;
nodes = (
"862 1161 OFFCURVE",
"948 1143 OFFCURVE",
"993 1112 CURVE",
"993 352 LINE",
"942 323 OFFCURVE",
"870 309 OFFCURVE",
"776 309 CURVE SMOOTH",
"607 309 OFFCURVE",
"520 460 OFFCURVE",
"520 733 CURVE SMOOTH",
"520 1012 OFFCURVE",
"611 1161 OFFCURVE",
"778 1161 CURVE SMOOTH"
);
}
);
width = 1960;
}
);
unicode = 0152;
},
{
glyphname = P;
lastChange = "2013-03-07 06:18:30 +0200";
layers = (
{
layerId = "3B25EE82-5579-4A28-8C59-D985C68457B1";
name = Bold;
paths = (
{
closed = 1;
nodes = (
"158 1462 LINE",
"158 0 LINE",
"553 0 LINE",
"553 485 LINE",
"664 485 LINE SMOOTH",
"841 485 OFFCURVE",
"977 529 OFFCURVE",
"1074 618 CURVE SMOOTH",
"1171 707 OFFCURVE",
"1219 834 OFFCURVE",
"1219 996 CURVE SMOOTH",
"1219 1294 OFFCURVE",
"1033 1462 OFFCURVE",
"664 1462 CURVE SMOOTH"
);
},
{
closed = 1;
nodes = (
"764 1143 OFFCURVE",
"819 1094 OFFCURVE",
"819 994 CURVE SMOOTH",
"819 878 OFFCURVE",
"744 807 OFFCURVE",
"625 807 CURVE SMOOTH",
"553 807 LINE",
"553 1143 LINE",
"655 1143 LINE SMOOTH"
);
}
);
width = 1294;
}
);
unicode = 0050;
},
{
glyphname = Thorn;
lastChange = "2013-03-07 06:18:30 +0200";
layers = (
{
layerId = "3B25EE82-5579-4A28-8C59-D985C68457B1";
name = Bold;
paths = (
{
closed = 1;
nodes = (
"158 1462 LINE",
"158 0 LINE",
"553 0 LINE",
"553 272 LINE",
"664 272 LINE SMOOTH",
"1019 272 OFFCURVE",
"1219 457 OFFCURVE",
"1219 784 CURVE SMOOTH",
"1219 1081 OFFCURVE",
"1033 1249 OFFCURVE",
"664 1249 CURVE SMOOTH",
"553 1249 LINE",
"553 1462 LINE"
);
},
{
closed = 1;
nodes = (
"764 930 OFFCURVE",
"819 881 OFFCURVE",
"819 782 CURVE SMOOTH",
"819 665 OFFCURVE",
"744 594 OFFCURVE",
"625 594 CURVE SMOOTH",
"553 594 LINE",
"553 930 LINE",
"655 930 LINE SMOOTH"
);
}
);
width = 1284;
}
);
unicode = 00DE;
},
{
glyphname = Q;
lastChange = "2013-03-07 06:18:30 +0200";
layers = (
{
layerId = "3B25EE82-5579-4A28-8C59-D985C68457B1";
name = Bold;
paths = (
{
closed = 1;
nodes = (
"585 1485 OFFCURVE",
"408 1421 OFFCURVE",
"286 1292 CURVE SMOOTH",
"165 1164 OFFCURVE",
"104 977 OFFCURVE",
"104 735 CURVE SMOOTH",
"104 489 OFFCURVE",
"165 302 OFFCURVE",
"287 173 CURVE SMOOTH",
"410 44 OFFCURVE",
"586 -20 OFFCURVE",
"815 -20 CURVE",
"816 -21 LINE",
"816 -22 LINE",
"817 -23 LINE",
"1075 -348 LINE",
"1567 -348 LINE",
"1210 63 LINE",
"1421 178 OFFCURVE",
"1526 402 OFFCURVE",
"1526 733 CURVE SMOOTH",
"1526 1226 OFFCURVE",
"1282 1485 OFFCURVE",
"817 1485 CURVE SMOOTH"
);
},
{
closed = 1;
nodes = (
"1012 1161 OFFCURVE",
"1110 1025 OFFCURVE",
"1110 733 CURVE SMOOTH",
"1110 442 OFFCURVE",
"1015 309 OFFCURVE",
"815 309 CURVE SMOOTH",
"618 309 OFFCURVE",
"520 450 OFFCURVE",
"520 733 CURVE SMOOTH",
"520 1018 OFFCURVE",
"619 1161 OFFCURVE",
"817 1161 CURVE SMOOTH"
);
}
);
width = 1632;
}
);
unicode = 0051;
},
{
glyphname = R;
lastChange = "2013-03-07 06:18:30 +0200";
layers = (
{
anchors = (
{
name = bottom;
position = "{693, 0}";
},
{
name = top;
position = "{693, 1462}";
}
);
layerId = "3B25EE82-5579-4A28-8C59-D985C68457B1";
name = Bold;
paths = (
{
closed = 1;
nodes = (
"158 1462 LINE",
"158 0 LINE",
"553 0 LINE",
"553 532 LINE",
"653 532 LINE",
"963 0 LINE",
"1411 0 LINE",
"984 637 LINE",
"1150 730 OFFCURVE",
"1233 861 OFFCURVE",
"1233 1030 CURVE SMOOTH",
"1233 1318 OFFCURVE",
"1034 1462 OFFCURVE",
"637 1462 CURVE SMOOTH"
);
},
{
closed = 1;
nodes = (
"766 1163 OFFCURVE",
"834 1113 OFFCURVE",
"834 1012 CURVE SMOOTH",
"834 890 OFFCURVE",
"765 829 OFFCURVE",
"627 829 CURVE SMOOTH",
"553 829 LINE",
"553 1163 LINE",
"631 1163 LINE SMOOTH"
);
}
);
width = 1386;
}
);
unicode = 0052;
},
{
glyphname = S;
lastChange = "2013-03-07 06:18:30 +0200";
layers = (
{
anchors = (
{
name = bottom;
position = "{591, 0}";
},
{
name = top;
position = "{591, 1462}";
}
);
layerId = "3B25EE82-5579-4A28-8C59-D985C68457B1";
name = Bold;
paths = (
{
closed = 1;
nodes = (
"480 1483 OFFCURVE",
"345 1445 OFFCURVE",
"247 1370 CURVE SMOOTH",
"149 1295 OFFCURVE",
"99 1190 OFFCURVE",
"99 1055 CURVE SMOOTH",
"99 911 OFFCURVE",
"145 809 OFFCURVE",
"240 728 CURVE SMOOTH",
"288 687 OFFCURVE",
"360 645 OFFCURVE",
"455 602 CURVE SMOOTH",
"560 555 OFFCURVE",
"625 523 OFFCURVE",
"649 508 CURVE SMOOTH",
"674 493 OFFCURVE",
"691 477 OFFCURVE",
"702 462 CURVE SMOOTH",
"713 447 OFFCURVE",
"719 430 OFFCURVE",
"719 410 CURVE SMOOTH",
"719 346 OFFCURVE",
"666 301 OFFCURVE",
"549 301 CURVE SMOOTH",
"481 301 OFFCURVE",
"406 312 OFFCURVE",
"325 333 CURVE SMOOTH",
"244 355 OFFCURVE",
"165 385 OFFCURVE",
"90 424 CURVE",
"90 72 LINE",
"161 38 OFFCURVE",
"230 14 OFFCURVE",
"296 0 CURVE SMOOTH",
"362 -13 OFFCURVE",
"444 -20 OFFCURVE",
"541 -20 CURVE SMOOTH",
"891 -24 OFFCURVE",
"1118 173 OFFCURVE",
"1114 444 CURVE",
"1114 543 OFFCURVE",
"1089 624 OFFCURVE",
"1040 689 CURVE SMOOTH",
"990 754 OFFCURVE",
"904 815 OFFCURVE",
"778 872 CURVE SMOOTH",
"647 932 OFFCURVE",
"566 972 OFFCURVE",
"536 995 CURVE",
"507 1019 OFFCURVE",
"492 1044 OFFCURVE",
"492 1073 CURVE SMOOTH",
"492 1126 OFFCURVE",
"536 1167 OFFCURVE",
"639 1167 CURVE SMOOTH",
"738 1167 OFFCURVE",
"856 1136 OFFCURVE",
"992 1073 CURVE",
"1114 1378 LINE",
"957 1448 OFFCURVE",
"802 1483 OFFCURVE",
"651 1483 CURVE SMOOTH"
);
}
);
width = 1182;
}
);
unicode = 0053;
},
{
glyphname = Scaron;
lastChange = "2013-03-07 06:18:30 +0200";
layers = (
{
layerId = "3B25EE82-5579-4A28-8C59-D985C68457B1";
name = Bold;
paths = (
{
closed = 1;
nodes = (
"308 1483 OFFCURVE",
"100 1324 OFFCURVE",
"100 1055 CURVE SMOOTH",
"100 983 OFFCURVE",
"112 921 OFFCURVE",
"135 868 CURVE SMOOTH",
"181 763 OFFCURVE",
"264 689 OFFCURVE",
"455 602 CURVE SMOOTH",
"560 555 OFFCURVE",
"625 523 OFFCURVE",
"650 508 CURVE SMOOTH",
"698 477 OFFCURVE",
"719 450 OFFCURVE",
"719 410 CURVE SMOOTH",
"719 346 OFFCURVE",
"666 301 OFFCURVE",
"549 301 CURVE SMOOTH",
"413 301 OFFCURVE",
"241 347 OFFCURVE",
"90 424 CURVE",
"90 72 LINE",
"233 4 OFFCURVE",
"346 -20 OFFCURVE",
"541 -20 CURVE SMOOTH",
"658 -20 OFFCURVE",
"759 0 OFFCURVE",
"846 39 CURVE SMOOTH",
"1019 117 OFFCURVE",
"1114 263 OFFCURVE",
"1114 444 CURVE SMOOTH",
"1114 641 OFFCURVE",
"1030 759 OFFCURVE",
"778 872 CURVE SMOOTH",
"647 932 OFFCURVE",
"566 973 OFFCURVE",
"537 996 CURVE SMOOTH",
"507 1019 OFFCURVE",
"492 1044 OFFCURVE",
"492 1073 CURVE SMOOTH",
"492 1126 OFFCURVE",
"536 1167 OFFCURVE",
"639 1167 CURVE SMOOTH",
"738 1167 OFFCURVE",
"856 1136 OFFCURVE",
"993 1073 CURVE",
"1114 1378 LINE",
"957 1448 OFFCURVE",
"802 1483 OFFCURVE",
"651 1483 CURVE SMOOTH"
);
},
{
closed = 1;
nodes = (
"831 1907 LINE",
"775 1875 OFFCURVE",
"708 1825 OFFCURVE",
"630 1757 CURVE",
"547 1828 OFFCURVE",
"482 1878 OFFCURVE",
"436 1907 CURVE",
"178 1907 LINE",
"178 1878 LINE",
"279 1779 OFFCURVE",
"384 1659 OFFCURVE",
"436 1579 CURVE",
"829 1579 LINE",
"888 1666 OFFCURVE",
"997 1790 OFFCURVE",
"1085 1878 CURVE",
"1085 1907 LINE"
);
}
);
width = 1182;
}
);
unicode = 0160;
},
{
glyphname = T;
lastChange = "2013-03-07 06:18:30 +0200";
layers = (
{
anchors = (
{
name = bottom;
position = "{605, 0}";
},
{
name = center;
position = "{605, 731}";
},
{
name = top;
position = "{605, 1462}";
}
);
layerId = "3B25EE82-5579-4A28-8C59-D985C68457B1";
name = Bold;
paths = (
{
closed = 1;
nodes = (
"51 1462 LINE",
"51 1139 LINE",
"408 1139 LINE",
"408 0 LINE",
"803 0 LINE",
"803 1139 LINE",
"1159 1139 LINE",
"1159 1462 LINE"
);
}
);
width = 1210;
}
);
unicode = 0054;
},
{
glyphname = U;
lastChange = "2013-03-07 06:18:30 +0200";
layers = (
{
anchors = (
{
name = ogonek;
position = "{1395, 10}";
},
{
name = top;
position = "{775, 1462}";
}
);
layerId = "3B25EE82-5579-4A28-8C59-D985C68457B1";
name = Bold;
paths = (
{
closed = 1;
nodes = (
"1006 1462 LINE",
"1006 606 LINE SMOOTH",
"1006 395 OFFCURVE",
"937 309 OFFCURVE",
"776 309 CURVE SMOOTH",
"625 309 OFFCURVE",
"547 397 OFFCURVE",
"547 604 CURVE SMOOTH",
"547 1462 LINE",
"150 1462 LINE",
"150 573 LINE SMOOTH",
"150 382 OFFCURVE",
"203 235 OFFCURVE",
"310 133 CURVE SMOOTH",
"417 31 OFFCURVE",
"571 -20 OFFCURVE",
"770 -20 CURVE SMOOTH",
"973 -20 OFFCURVE",
"1130 32 OFFCURVE",
"1238 137 CURVE SMOOTH",
"1347 242 OFFCURVE",
"1401 391 OFFCURVE",
"1401 582 CURVE SMOOTH",
"1401 1462 LINE"
);
}
);
width = 1550;
}
);
unicode = 0055;
},
{
glyphname = V;
lastChange = "2013-03-07 06:18:30 +0200";
layers = (
{
layerId = "3B25EE82-5579-4A28-8C59-D985C68457B1";
name = Bold;
paths = (
{
closed = 1;
nodes = (
"978 1462 LINE",
"776 717 LINE SMOOTH",
"765 677 OFFCURVE",
"753 622 OFFCURVE",
"739 552 CURVE SMOOTH",
"725 482 OFFCURVE",
"716 424 OFFCURVE",
"711 377 CURVE",
"707 442 OFFCURVE",
"684 556 OFFCURVE",
"643 721 CURVE SMOOTH",
"444 1462 LINE",
"0 1462 LINE",
"477 0 LINE",
"942 0 LINE",
"1421 1462 LINE"
);
}
);
width = 1421;
}
);
unicode = 0056;
},
{
glyphname = W;
lastChange = "2013-03-07 06:18:30 +0200";
layers = (
{
anchors = (
{
name = top;
position = "{1064, 1462}";
}
);
layerId = "3B25EE82-5579-4A28-8C59-D985C68457B1";
name = Bold;
paths = (
{
closed = 1;
nodes = (
"1716 1462 LINE",
"1554 727 LINE SMOOTH",
"1515 544 OFFCURVE",
"1492 416 OFFCURVE",
"1483 342 CURVE",
"1476 399 OFFCURVE",
"1461 486 OFFCURVE",
"1439 602 CURVE SMOOTH",
"1417 718 OFFCURVE",
"1395 820 OFFCURVE",
"1374 909 CURVE SMOOTH",
"1249 1462 LINE",
"883 1462 LINE",
"754 909 LINE SMOOTH",
"735 832 OFFCURVE",
"714 736 OFFCURVE",
"691 619 CURVE SMOOTH",
"669 502 OFFCURVE",
"654 410 OFFCURVE",
"645 342 CURVE",
"632 438 OFFCURVE",
"607 567 OFFCURVE",
"571 729 CURVE SMOOTH",
"412 1462 LINE",
"31 1462 LINE",
"393 0 LINE",
"860 0 LINE",
"945 383 OFFCURVE",
"993 602 OFFCURVE",
"1005 656 CURVE SMOOTH",
"1017 710 OFFCURVE",
"1029 769 OFFCURVE",
"1041 833 CURVE SMOOTH",
"1053 898 OFFCURVE",
"1062 952 OFFCURVE",
"1067 994 CURVE",
"1074 942 OFFCURVE",
"1084 875 OFFCURVE",
"1098 796 CURVE SMOOTH",
"1113 717 OFFCURVE",
"1123 664 OFFCURVE",
"1130 637 CURVE",
"1270 0 LINE",
"1737 0 LINE",
"2097 1462 LINE"
);
}
);
width = 2128;
}
);
unicode = 0057;
},
{
glyphname = X;
lastChange = "2013-03-07 06:18:30 +0200";
layers = (
{
layerId = "3B25EE82-5579-4A28-8C59-D985C68457B1";
name = Bold;
paths = (
{
closed = 1;
nodes = (
"988 1462 LINE",
"735 1010 LINE",
"471 1462 LINE",
"33 1462 LINE",
"489 748 LINE",
"4 0 LINE",
"451 0 LINE",
"733 457 LINE",
"1018 0 LINE",
"1475 0 LINE",
"976 717 LINE",
"1440 1462 LINE"
);
}
);
width = 1481;
}
);
unicode = 0058;
},
{
glyphname = Y;
lastChange = "2013-03-07 06:18:30 +0200";
layers = (
{
anchors = (
{
name = top;
position = "{680, 1462}";
}
);
layerId = "3B25EE82-5579-4A28-8C59-D985C68457B1";
name = Bold;
paths = (
{
closed = 1;
nodes = (
"932 1462 LINE",
"680 920 LINE",
"430 1462 LINE",
"0 1462 LINE",
"481 559 LINE",
"481 0 LINE",
"879 0 LINE",
"879 571 LINE",
"1360 1462 LINE"
);
}
);
width = 1360;
}
);
unicode = 0059;
},
{
glyphname = Z;
lastChange = "2013-03-07 06:18:30 +0200";
layers = (
{
anchors = (
{
name = top;
position = "{626, 1462}";
}
);
layerId = "3B25EE82-5579-4A28-8C59-D985C68457B1";
name = Bold;
paths = (
{
closed = 1;
nodes = (
"76 1462 LINE",
"76 1143 LINE",
"694 1143 LINE",
"61 244 LINE",
"61 0 LINE",
"1200 0 LINE",
"1200 319 LINE",
"551 319 LINE",
"1184 1219 LINE",
"1184 1462 LINE"
);
}
);
width = 1251;
}
);
unicode = 005A;
},
{
glyphname = Zcaron;
lastChange = "2013-03-07 06:18:30 +0200";
layers = (
{
layerId = "3B25EE82-5579-4A28-8C59-D985C68457B1";
name = Bold;
paths = (
{
closed = 1;
nodes = (
"76 1462 LINE",
"76 1143 LINE",
"694 1143 LINE",
"61 244 LINE",
"61 0 LINE",
"1200 0 LINE",
"1200 319 LINE",
"551 319 LINE",
"1184 1219 LINE",
"1184 1462 LINE"
);
},
{
closed = 1;
nodes = (
"837 1907 LINE",
"781 1875 OFFCURVE",
"714 1825 OFFCURVE",
"636 1757 CURVE",
"553 1828 OFFCURVE",
"488 1878 OFFCURVE",
"442 1907 CURVE",
"184 1907 LINE",
"184 1878 LINE",
"285 1779 OFFCURVE",
"390 1659 OFFCURVE",
"442 1579 CURVE",
"835 1579 LINE",
"894 1666 OFFCURVE",
"1003 1790 OFFCURVE",
"1091 1878 CURVE",
"1091 1907 LINE"
);
}
);
width = 1251;
}
);
unicode = 017D;
},
{
glyphname = a;
lastChange = "2013-03-07 06:18:30 +0200";
layers = (
{
anchors = (
{
name = ogonek;
position = "{1148, 10}";
},
{
name = top;
position = "{638, 1118}";
}
);
layerId = "3B25EE82-5579-4A28-8C59-D985C68457B1";
name = Bold;
paths = (
{
closed = 1;
nodes = (
"487 1153 OFFCURVE",
"320 1119 OFFCURVE",
"188 1051 CURVE",
"301 793 LINE",
"428 849 OFFCURVE",
"533 877 OFFCURVE",
"616 877 CURVE SMOOTH",
"708 877 OFFCURVE",
"754 830 OFFCURVE",
"754 737 CURVE SMOOTH",
"754 721 LINE",
"565 715 LINE SMOOTH",
"246 700 OFFCURVE",
"74 587 OFFCURVE",
"74 346 CURVE SMOOTH",
"74 230 OFFCURVE",
"105 140 OFFCURVE",
"166 76 CURVE SMOOTH",
"227 12 OFFCURVE",
"311 -20 OFFCURVE",
"418 -20 CURVE SMOOTH",
"505 -20 OFFCURVE",
"575 -8 OFFCURVE",
"630 16 CURVE SMOOTH",
"685 40 OFFCURVE",
"738 85 OFFCURVE",
"791 150 CURVE",
"799 150 LINE",
"874 0 LINE",
"1145 0 LINE",
"1145 743 LINE SMOOTH",
"1145 872 OFFCURVE",
"1105 972 OFFCURVE",
"1025 1045 CURVE SMOOTH",
"946 1117 OFFCURVE",
"833 1153 OFFCURVE",
"688 1153 CURVE SMOOTH"
);
},
{
closed = 1;
nodes = (
"756 418 LINE SMOOTH",
"756 370 OFFCURVE",
"739 331 OFFCURVE",
"705 301 CURVE SMOOTH",
"672 271 OFFCURVE",
"631 256 OFFCURVE",
"584 256 CURVE SMOOTH",
"510 256 OFFCURVE",
"473 291 OFFCURVE",
"473 360 CURVE SMOOTH",
"473 450 OFFCURVE",
"537 497 OFFCURVE",
"666 502 CURVE SMOOTH",
"756 506 LINE"
);
}
);
width = 1276;
}
);
unicode = 0061;
},
{
glyphname = ae;
lastChange = "2013-03-07 06:18:30 +0200";
layers = (
{
layerId = "3B25EE82-5579-4A28-8C59-D985C68457B1";
name = Bold;
paths = (
{
closed = 1;
nodes = (
"1182 1153 OFFCURVE",
"1078 1124 OFFCURVE",
"985 1059 CURVE",
"895 1122 OFFCURVE",
"783 1153 OFFCURVE",
"649 1153 CURVE SMOOTH",
"473 1153 OFFCURVE",
"322 1120 OFFCURVE",
"195 1053 CURVE",
"305 797 LINE",
"422 850 OFFCURVE",
"526 877 OFFCURVE",
"618 877 CURVE SMOOTH",
"709 877 OFFCURVE",
"754 831 OFFCURVE",
"754 739 CURVE SMOOTH",
"754 721 LINE",
"571 715 LINE SMOOTH",
"240 703 OFFCURVE",
"74 582 OFFCURVE",
"74 352 CURVE SMOOTH",
"74 127 OFFCURVE",
"218 -20 OFFCURVE",
"434 -20 CURVE SMOOTH",
"514 -20 OFFCURVE",
"580 -15 OFFCURVE",
"631 -4 CURVE SMOOTH",
"734 17 OFFCURVE",
"804 59 OFFCURVE",
"911 170 CURVE",
"1011 43 OFFCURVE",
"1154 -20 OFFCURVE",
"1341 -20 CURVE SMOOTH",
"1512 -20 OFFCURVE",
"1632 -1 OFFCURVE",
"1757 63 CURVE",
"1757 344 LINE",
"1644 287 OFFCURVE",
"1522 258 OFFCURVE",
"1393 258 CURVE SMOOTH",
"1238 258 OFFCURVE",
"1138 341 OFFCURVE",
"1133 461 CURVE",
"1829 461 LINE",
"1829 633 LINE SMOOTH",
"1829 962 OFFCURVE",
"1642 1153 OFFCURVE",
"1337 1153 CURVE SMOOTH"
);
},
{
closed = 1;
nodes = (
"756 418 LINE SMOOTH",
"756 322 OFFCURVE",
"678 256 OFFCURVE",
"586 256 CURVE SMOOTH",
"511 256 OFFCURVE",
"473 289 OFFCURVE",
"473 356 CURVE SMOOTH",
"473 453 OFFCURVE",
"531 497 OFFCURVE",
"672 502 CURVE SMOOTH",
"756 506 LINE"
);
},
{
closed = 1;
nodes = (
"1408 887 OFFCURVE",
"1476 816 OFFCURVE",
"1479 707 CURVE",
"1139 707 LINE",
"1148 827 OFFCURVE",
"1207 887 OFFCURVE",
"1315 887 CURVE SMOOTH"
);
}
);
width = 1915;
}
);
unicode = 00E6;
},
{
glyphname = b;
lastChange = "2013-03-07 06:18:30 +0200";
layers = (
{
layerId = "3B25EE82-5579-4A28-8C59-D985C68457B1";
name = Bold;
paths = (
{
closed = 1;
nodes = (
"135 1556 LINE",
"135 0 LINE",
"440 0 LINE",
"502 111 LINE",
"526 111 LINE",
"560 74 OFFCURVE",
"590 47 OFFCURVE",
"615 31 CURVE SMOOTH",
"641 15 OFFCURVE",
"670 3 OFFCURVE",
"703 -6 CURVE SMOOTH",
"736 -15 OFFCURVE",
"773 -20 OFFCURVE",
"815 -20 CURVE SMOOTH",
"945 -20 OFFCURVE",
"1046 32 OFFCURVE",
"1119 136 CURVE SMOOTH",
"1192 241 OFFCURVE",
"1229 385 OFFCURVE",
"1229 569 CURVE SMOOTH",
"1229 752 OFFCURVE",
"1193 895 OFFCURVE",
"1120 997 CURVE SMOOTH",
"1048 1101 OFFCURVE",
"950 1153 OFFCURVE",
"827 1153 CURVE SMOOTH",
"700 1153 OFFCURVE",
"602 1104 OFFCURVE",
"526 986 CURVE",
"512 986 LINE",
"521 1090 OFFCURVE",
"526 1162 OFFCURVE",
"526 1204 CURVE SMOOTH",
"526 1556 LINE"
);
},
{
closed = 1;
nodes = (
"782 846 OFFCURVE",
"831 755 OFFCURVE",
"831 573 CURVE SMOOTH",
"831 390 OFFCURVE",
"780 295 OFFCURVE",
"688 295 CURVE SMOOTH",
"573 295 OFFCURVE",
"526 370 OFFCURVE",
"526 555 CURVE SMOOTH",
"526 610 LINE SMOOTH",
"526 773 OFFCURVE",
"575 846 OFFCURVE",
"684 846 CURVE SMOOTH"
);
}
);
width = 1317;
}
);
unicode = 0062;
},
{
glyphname = c;
lastChange = "2013-03-07 06:18:30 +0200";
layers = (
{
anchors = (
{
name = bottom;
position = "{552, 0}";
},
{
name = top;
position = "{552, 1118}";
}
);
layerId = "3B25EE82-5579-4A28-8C59-D985C68457B1";
name = Bold;
paths = (
{
closed = 1;
nodes = (
"491 1153 OFFCURVE",
"344 1101 OFFCURVE",
"241 997 CURVE SMOOTH",
"138 895 OFFCURVE",
"86 749 OFFCURVE",
"86 561 CURVE SMOOTH",
"86 186 OFFCURVE",
"280 -20 OFFCURVE",
"651 -20 CURVE SMOOTH",
"792 -20 OFFCURVE",
"913 13 OFFCURVE",
"1014 80 CURVE",
"1014 391 LINE",
"909 324 OFFCURVE",
"799 291 OFFCURVE",
"684 291 CURVE SMOOTH",
"550 291 OFFCURVE",
"483 382 OFFCURVE",
"483 563 CURVE SMOOTH",
"483 743 OFFCURVE",
"555 846 OFFCURVE",
"682 846 CURVE SMOOTH",
"769 846 OFFCURVE",
"843 819 OFFCURVE",
"938 778 CURVE",
"1053 1067 LINE",
"937 1124 OFFCURVE",
"813 1153 OFFCURVE",
"682 1153 CURVE SMOOTH"
);
}
);
width = 1104;
}
);
unicode = 0063;
},
{
glyphname = d;
lastChange = "2013-03-07 06:18:30 +0200";
layers = (
{
anchors = (
{
name = center;
position = "{659, 559}";
}
);
layerId = "3B25EE82-5579-4A28-8C59-D985C68457B1";
name = Bold;
paths = (
{
closed = 1;
nodes = (
"788 1556 LINE",
"788 1253 LINE SMOOTH",
"788 1164 OFFCURVE",
"794 1076 OFFCURVE",
"807 986 CURVE",
"799 986 LINE",
"720 1107 OFFCURVE",
"629 1153 OFFCURVE",
"502 1153 CURVE SMOOTH",
"373 1153 OFFCURVE",
"271 1101 OFFCURVE",
"197 996 CURVE SMOOTH",
"123 893 OFFCURVE",
"86 749 OFFCURVE",
"86 565 CURVE SMOOTH",
"84 205 OFFCURVE",
"246 -26 OFFCURVE",
"487 -20 CURVE SMOOTH",
"620 -20 OFFCURVE",
"721 34 OFFCURVE",
"788 143 CURVE",
"803 143 LINE",
"887 0 LINE",
"1182 0 LINE",
"1182 1556 LINE"
);
},
{
closed = 1;
nodes = (
"766 838 OFFCURVE",
"821 761 OFFCURVE",
"821 561 CURVE SMOOTH",
"821 530 LINE SMOOTH",
"817 366 OFFCURVE",
"772 289 OFFCURVE",
"647 289 CURVE SMOOTH",
"540 289 OFFCURVE",
"481 383 OFFCURVE",
"481 559 CURVE SMOOTH",
"481 738 OFFCURVE",
"540 838 OFFCURVE",
"643 838 CURVE SMOOTH"
);
}
);
width = 1317;
}
);
unicode = 0064;
},
{
glyphname = eth;
lastChange = "2013-03-07 06:18:30 +0200";
layers = (
{
layerId = "3B25EE82-5579-4A28-8C59-D985C68457B1";
name = Bold;
paths = (
{
closed = 1;
nodes = (
"745 1438 LINE",
"684 1479 OFFCURVE",
"595 1524 OFFCURVE",
"479 1573 CURVE",
"371 1391 LINE",
"520 1298 LINE",
"377 1206 LINE",
"494 1022 LINE",
"676 1141 LINE",
"727 1090 OFFCURVE",
"774 1021 OFFCURVE",
"819 934 CURVE",
"811 930 LINE",
"776 986 OFFCURVE",
"695 1014 OFFCURVE",
"567 1014 CURVE SMOOTH",
"276 1014 OFFCURVE",
"88 817 OFFCURVE",
"88 498 CURVE SMOOTH",
"88 178 OFFCURVE",
"304 -20 OFFCURVE",
"649 -20 CURVE SMOOTH",
"1000 -20 OFFCURVE",
"1217 213 OFFCURVE",
"1217 580 CURVE SMOOTH",
"1217 871 OFFCURVE",
"1136 1087 OFFCURVE",
"924 1296 CURVE",
"1069 1393 LINE",
"954 1575 LINE"
);
},
{
closed = 1;
nodes = (
"752 733 OFFCURVE",
"817 657 OFFCURVE",
"817 545 CURVE SMOOTH",
"817 352 OFFCURVE",
"774 258 OFFCURVE",
"653 258 CURVE SMOOTH",
"544 258 OFFCURVE",
"489 339 OFFCURVE",
"489 500 CURVE SMOOTH",
"489 661 OFFCURVE",
"530 733 OFFCURVE",
"653 733 CURVE SMOOTH"
);
}
);
width = 1313;
}
);
unicode = 00F0;
},
{
glyphname = e;
lastChange = "2013-03-07 06:18:30 +0200";
layers = (
{
anchors = (
{
name = bottom;
position = "{633, 0}";
},
{
name = ogonek;
position = "{1139, 10}";
},
{
name = top;
position = "{633, 1118}";
}
);
layerId = "3B25EE82-5579-4A28-8C59-D985C68457B1";
name = Bold;
paths = (
{
closed = 1;
nodes = (
"466 1153 OFFCURVE",
"328 1102 OFFCURVE",
"231 998 CURVE SMOOTH",
"134 897 OFFCURVE",
"86 750 OFFCURVE",
"86 559 CURVE SMOOTH",
"86 374 OFFCURVE",
"138 231 OFFCURVE",
"242 130 CURVE SMOOTH",
"347 30 OFFCURVE",
"493 -20 OFFCURVE",
"682 -20 CURVE SMOOTH",
"773 -20 OFFCURVE",
"851 -14 OFFCURVE",
"916 -2 CURVE SMOOTH",
"980 9 OFFCURVE",
"1045 32 OFFCURVE",
"1106 63 CURVE",
"1106 344 LINE",
"1039 313 OFFCURVE",
"975 290 OFFCURVE",
"918 277 CURVE SMOOTH",
"861 264 OFFCURVE",
"798 258 OFFCURVE",
"729 258 CURVE SMOOTH",
"578 258 OFFCURVE",
"486 334 OFFCURVE",
"481 461 CURVE",
"1180 461 LINE",
"1180 635 LINE SMOOTH",
"1180 802 OFFCURVE",
"1133 930 OFFCURVE",
"1040 1019 CURVE SMOOTH",
"947 1108 OFFCURVE",
"816 1153 OFFCURVE",
"645 1153 CURVE SMOOTH"
);
},
{
closed = 1;
nodes = (
"759 887 OFFCURVE",
"822 816 OFFCURVE",
"825 707 CURVE",
"489 707 LINE",
"500 831 OFFCURVE",
"567 887 OFFCURVE",
"659 887 CURVE SMOOTH"
);
}
);
width = 1266;
}
);
unicode = 0065;
},
{
glyphname = f;
lastChange = "2013-03-07 06:18:30 +0200";
layers = (
{
layerId = "3B25EE82-5579-4A28-8C59-D985C68457B1";
name = Bold;
paths = (
{
closed = 1;
nodes = (
"453 1567 OFFCURVE",
"355 1534 OFFCURVE",
"294 1469 CURVE SMOOTH",
"233 1404 OFFCURVE",
"203 1296 OFFCURVE",
"203 1147 CURVE SMOOTH",
"203 1128 LINE",
"45 1032 LINE",
"45 840 LINE",
"195 840 LINE",
"195 0 LINE",
"586 0 LINE",
"586 840 LINE",
"827 840 LINE",
"827 1133 LINE",
"586 1133 LINE",
"586 1163 LINE SMOOTH",
"586 1246 OFFCURVE",
"612 1280 OFFCURVE",
"672 1280 CURVE SMOOTH",
"718 1280 OFFCURVE",
"765 1273 OFFCURVE",
"813 1260 CURVE",
"897 1513 LINE",
"836 1533 OFFCURVE",
"782 1547 OFFCURVE",
"735 1555 CURVE SMOOTH",
"689 1563 OFFCURVE",
"640 1567 OFFCURVE",
"588 1567 CURVE SMOOTH"
);
}
);
width = 846;
}
);
unicode = 0066;
},
{
glyphname = g;
lastChange = "2013-03-07 06:18:30 +0200";
layers = (
{
anchors = (
{
name = top;
position = "{621, 1118}";
}
);
layerId = "3B25EE82-5579-4A28-8C59-D985C68457B1";
name = Bold;
paths = (
{
closed = 1;
nodes = (
"434 1153 OFFCURVE",
"314 1119 OFFCURVE",
"230 1051 CURVE SMOOTH",
"146 982 OFFCURVE",
"104 887 OFFCURVE",
"104 764 CURVE SMOOTH",
"104 605 OFFCURVE",
"176 492 OFFCURVE",
"293 440 CURVE",
"232 403 OFFCURVE",
"191 370 OFFCURVE",
"172 343 CURVE SMOOTH",
"153 316 OFFCURVE",
"143 285 OFFCURVE",
"143 250 CURVE SMOOTH",
"143 218 OFFCURVE",
"156 186 OFFCURVE",
"181 153 CURVE SMOOTH",
"207 120 OFFCURVE",
"237 96 OFFCURVE",
"272 82 CURVE",
"104 43 OFFCURVE",
"20 -45 OFFCURVE",
"20 -180 CURVE SMOOTH",
"20 -381 OFFCURVE",
"201 -492 OFFCURVE",
"522 -492 CURVE SMOOTH",
"735 -492 OFFCURVE",
"900 -454 OFFCURVE",
"1017 -377 CURVE SMOOTH",
"1135 -300 OFFCURVE",
"1194 -193 OFFCURVE",
"1194 -55 CURVE SMOOTH",
"1194 159 OFFCURVE",
"1067 266 OFFCURVE",
"813 266 CURVE SMOOTH",
"625 266 LINE SMOOTH",
"524 266 OFFCURVE",
"455 287 OFFCURVE",
"455 326 CURVE SMOOTH",
"455 341 OFFCURVE",
"460 358 OFFCURVE",
"469 375 CURVE",
"494 370 OFFCURVE",
"527 367 OFFCURVE",
"569 367 CURVE SMOOTH",
"909 367 OFFCURVE",
"1081 508 OFFCURVE",
"1081 752 CURVE SMOOTH",
"1081 803 OFFCURVE",
"1070 848 OFFCURVE",
"1049 887 CURVE",
"1204 944 LINE",
"1204 1133 LINE",
"809 1133 LINE",
"785 1137 OFFCURVE",
"748 1141 OFFCURVE",
"697 1146 CURVE SMOOTH",
"646 1151 OFFCURVE",
"611 1153 OFFCURVE",
"590 1153 CURVE SMOOTH"
);
},
{
closed = 1;
nodes = (
"782 -39 OFFCURVE",
"854 -61 OFFCURVE",
"854 -121 CURVE SMOOTH",
"854 -158 OFFCURVE",
"825 -189 OFFCURVE",
"768 -212 CURVE SMOOTH",
"711 -236 OFFCURVE",
"636 -248 OFFCURVE",
"541 -248 CURVE SMOOTH",
"425 -248 OFFCURVE",
"350 -205 OFFCURVE",
"350 -141 CURVE SMOOTH",
"350 -112 OFFCURVE",
"364 -88 OFFCURVE",
"393 -68 CURVE SMOOTH",
"422 -49 OFFCURVE",
"458 -39 OFFCURVE",
"500 -39 CURVE SMOOTH",
"653 -39 LINE SMOOTH"
);
},
{
closed = 1;
nodes = (
"672 936 OFFCURVE",
"711 877 OFFCURVE",
"711 760 CURVE SMOOTH",
"711 645 OFFCURVE",
"669 588 OFFCURVE",
"594 588 CURVE SMOOTH",
"513 588 OFFCURVE",
"473 646 OFFCURVE",
"473 762 CURVE SMOOTH",
"473 878 OFFCURVE",
"513 936 OFFCURVE",
"594 936 CURVE SMOOTH"
);
}
);
width = 1241;
}
);
unicode = 0067;
},
{
glyphname = h;
lastChange = "2013-03-07 06:18:30 +0200";
layers = (
{
anchors = (
{
name = center;
position = "{686, 559}";
},
{
name = top;
position = "{686, 1118}";
}
);
layerId = "3B25EE82-5579-4A28-8C59-D985C68457B1";
name = Bold;
paths = (
{
closed = 1;
nodes = (
"135 1556 LINE",
"135 0 LINE",
"526 0 LINE",
"526 498 LINE SMOOTH",
"526 623 OFFCURVE",
"541 712 OFFCURVE",
"571 765 CURVE SMOOTH",
"602 819 OFFCURVE",
"649 846 OFFCURVE",
"713 846 CURVE SMOOTH",
"803 846 OFFCURVE",
"848 770 OFFCURVE",
"848 618 CURVE SMOOTH",
"848 0 LINE",
"1241 0 LINE",
"1241 737 LINE SMOOTH",
"1241 868 OFFCURVE",
"1206 969 OFFCURVE",
"1135 1043 CURVE SMOOTH",
"1065 1116 OFFCURVE",
"967 1153 OFFCURVE",
"840 1153 CURVE SMOOTH",
"704 1153 OFFCURVE",
"603 1110 OFFCURVE",
"528 992 CURVE",
"510 992 LINE",
"521 1121 OFFCURVE",
"526 1235 OFFCURVE",
"526 1335 CURVE SMOOTH",
"526 1556 LINE"
);
}
);
width = 1372;
}
);
unicode = 0068;
},
{
glyphname = i;
lastChange = "2013-03-07 06:18:30 +0200";
layers = (
{
layerId = "3B25EE82-5579-4A28-8C59-D985C68457B1";
name = Bold;
paths = (
{
closed = 1;
nodes = (
"137 1133 LINE",
"137 0 LINE",
"528 0 LINE",
"528 1133 LINE"
);
},
{
closed = 1;
nodes = (
"189 1589 OFFCURVE",
"127 1532 OFFCURVE",
"127 1415 CURVE SMOOTH",
"127 1300 OFFCURVE",
"196 1243 OFFCURVE",
"334 1243 CURVE SMOOTH",
"473 1243 OFFCURVE",
"543 1300 OFFCURVE",
"543 1415 CURVE SMOOTH",
"543 1530 OFFCURVE",
"479 1589 OFFCURVE",
"334 1589 CURVE SMOOTH"
);
}
);
width = 666;
}
);
unicode = 0069;
},
{
glyphname = dotlessi;
lastChange = "2013-03-07 06:18:30 +0200";
layers = (
{
layerId = "3B25EE82-5579-4A28-8C59-D985C68457B1";
name = Bold;
paths = (
{
closed = 1;
nodes = (
"137 1133 LINE",
"137 0 LINE",
"528 0 LINE",
"528 1133 LINE"
);
}
);
width = 666;
}
);
unicode = 0131;
},
{
glyphname = iacute;
lastChange = "2013-03-07 06:18:30 +0200";
layers = (
{
layerId = "3B25EE82-5579-4A28-8C59-D985C68457B1";
name = Bold;
paths = (
{
closed = 1;
nodes = (
"137 1133 LINE",
"137 0 LINE",
"528 0 LINE",
"528 1133 LINE"
);
},
{
closed = 1;
nodes = (
"371 1569 LINE",
"353 1544 OFFCURVE",
"330 1515 OFFCURVE",
"303 1483 CURVE SMOOTH",
"275 1451 OFFCURVE",
"210 1380 OFFCURVE",
"107 1270 CURVE",
"107 1241 LINE",
"367 1241 LINE",
"463 1301 OFFCURVE",
"692 1463 OFFCURVE",
"799 1548 CURVE",
"799 1569 LINE"
);
}
);
width = 666;
}
);
unicode = 00ED;
},
{
glyphname = icircumflex;
lastChange = "2013-03-07 06:18:30 +0200";
layers = (
{
layerId = "3B25EE82-5579-4A28-8C59-D985C68457B1";
name = Bold;
paths = (
{
closed = 1;
nodes = (
"137 1133 LINE",
"137 0 LINE",
"528 0 LINE",
"528 1133 LINE"
);
},
{
closed = 1;
nodes = (
"138 1569 LINE",
"87 1492 OFFCURVE",
"-28 1357 OFFCURVE",
"-120 1270 CURVE",
"-120 1241 LINE",
"138 1241 LINE",
"184 1270 OFFCURVE",
"249 1320 OFFCURVE",
"332 1391 CURVE",
"410 1323 OFFCURVE",
"477 1273 OFFCURVE",
"533 1241 CURVE",
"787 1241 LINE",
"787 1270 LINE",
"679 1378 OFFCURVE",
"594 1478 OFFCURVE",
"531 1569 CURVE"
);
}
);
width = 666;
}
);
unicode = 00EE;
},
{
glyphname = idieresis;
lastChange = "2013-03-07 06:18:30 +0200";
layers = (
{
layerId = "3B25EE82-5579-4A28-8C59-D985C68457B1";
name = Bold;
paths = (
{
closed = 1;
nodes = (
"137 1133 LINE",
"137 0 LINE",
"528 0 LINE",
"528 1133 LINE"
);
},
{
closed = 1;
nodes = (
"5 1571 OFFCURVE",
"-61 1513 OFFCURVE",
"-61 1413 CURVE SMOOTH",
"-61 1314 OFFCURVE",
"5 1257 OFFCURVE",
"109 1257 CURVE SMOOTH",
"214 1257 OFFCURVE",
"281 1318 OFFCURVE",
"281 1413 CURVE SMOOTH",
"281 1510 OFFCURVE",
"214 1571 OFFCURVE",
"109 1571 CURVE SMOOTH"
);
},
{
closed = 1;
nodes = (
"483 1571 OFFCURVE",
"418 1513 OFFCURVE",
"418 1413 CURVE SMOOTH",
"418 1316 OFFCURVE",
"482 1257 OFFCURVE",
"590 1257 CURVE SMOOTH",
"697 1257 OFFCURVE",
"763 1318 OFFCURVE",
"763 1413 CURVE SMOOTH",
"763 1509 OFFCURVE",
"697 1571 OFFCURVE",
"590 1571 CURVE SMOOTH"
);
}
);
width = 666;
}
);
unicode = 00EF;
},
{
glyphname = igrave;
lastChange = "2013-03-07 06:18:30 +0200";
layers = (
{
layerId = "3B25EE82-5579-4A28-8C59-D985C68457B1";
name = Bold;
paths = (
{
closed = 1;
nodes = (
"137 1133 LINE",
"137 0 LINE",
"528 0 LINE",
"528 1133 LINE"
);
},
{
closed = 1;
nodes = (
"-130 1569 LINE",
"-130 1548 LINE",
"-5 1449 OFFCURVE",
"210 1300 OFFCURVE",
"302 1241 CURVE",
"562 1241 LINE",
"562 1270 LINE",
"503 1336 LINE SMOOTH",
"402 1445 OFFCURVE",
"335 1522 OFFCURVE",
"300 1569 CURVE"
);
}
);
width = 666;
}
);
unicode = 00EC;
},
{
glyphname = j;
lastChange = "2013-03-07 06:18:30 +0200";
layers = (
{
layerId = "3B25EE82-5579-4A28-8C59-D985C68457B1";
name = Bold;
paths = (
{
closed = 1;
nodes = (
"135 1133 LINE",
"135 -9 LINE SMOOTH",
"135 -123 OFFCURVE",
"94 -180 OFFCURVE",
"16 -180 CURVE SMOOTH",
"-21 -180 OFFCURVE",
"-61 -174 OFFCURVE",
"-104 -162 CURVE",
"-104 -467 LINE",
"-79 -474 OFFCURVE",
"-46 -479 OFFCURVE",
"-4 -484 CURVE SMOOTH",
"37 -489 OFFCURVE",
"74 -492 OFFCURVE",
"106 -492 CURVE SMOOTH",
"240 -492 OFFCURVE",
"343 -456 OFFCURVE",
"416 -385 CURVE SMOOTH",
"489 -314 OFFCURVE",
"526 -217 OFFCURVE",
"526 -92 CURVE SMOOTH",
"526 1133 LINE"
);
},
{
closed = 1;
nodes = (
"187 1589 OFFCURVE",
"125 1532 OFFCURVE",
"125 1415 CURVE SMOOTH",
"125 1300 OFFCURVE",
"194 1243 OFFCURVE",
"332 1243 CURVE SMOOTH",
"471 1243 OFFCURVE",
"541 1300 OFFCURVE",
"541 1415 CURVE SMOOTH",
"541 1530 OFFCURVE",
"477 1589 OFFCURVE",
"332 1589 CURVE SMOOTH"
);
}
);
width = 664;
}
);
unicode = 006A;
},
{
glyphname = k;
lastChange = "2013-03-07 06:18:30 +0200";
layers = (
{
anchors = (
{
name = bottom;
position = "{675, 0}";
}
);
layerId = "3B25EE82-5579-4A28-8C59-D985C68457B1";
name = Bold;
paths = (
{
closed = 1;
nodes = (
"135 1556 LINE",
"135 0 LINE",
"528 0 LINE",
"528 309 LINE",
"655 406 LINE",
"903 0 LINE",
"1350 0 LINE",
"932 651 LINE",
"1325 1133 LINE",
"889 1133 LINE",
"635 813 LINE SMOOTH",
"602 771 OFFCURVE",
"561 712 OFFCURVE",
"514 637 CURVE",
"506 637 LINE",
"521 737 OFFCURVE",
"528 839 OFFCURVE",
"528 944 CURVE SMOOTH",
"528 1556 LINE"
);
}
);
width = 1350;
}
);
unicode = 006B;
},
{
glyphname = l;
lastChange = "2013-03-07 06:18:30 +0200";
layers = (
{
anchors = (
{
name = bottom;
position = "{331, 0}";
},
{
name = top;
position = "{331, 1118}";
},
{
name = topright;
position = "{642, 1118}";
}
);
layerId = "3B25EE82-5579-4A28-8C59-D985C68457B1";
name = Bold;
paths = (
{
closed = 1;
nodes = (
"135 1556 LINE",
"135 0 LINE",
"526 0 LINE",
"526 1556 LINE"
);
}
);
width = 662;
}
);
unicode = 006C;
},
{
glyphname = m;
lastChange = "2013-03-07 06:18:30 +0200";
layers = (
{
layerId = "3B25EE82-5579-4A28-8C59-D985C68457B1";
name = Bold;
paths = (
{
closed = 1;
nodes = (
"1387 1153 OFFCURVE",
"1266 1097 OFFCURVE",
"1202 1004 CURVE",
"1171 1004 LINE",
"1105 1103 OFFCURVE",
"989 1153 OFFCURVE",
"827 1153 CURVE SMOOTH",
"682 1153 OFFCURVE",
"562 1097 OFFCURVE",
"502 992 CURVE",
"479 992 LINE",
"430 1133 LINE",
"135 1133 LINE",
"135 0 LINE",
"526 0 LINE",
"526 496 LINE SMOOTH",
"526 744 OFFCURVE",
"579 846 OFFCURVE",
"702 846 CURVE SMOOTH",
"791 846 OFFCURVE",
"829 769 OFFCURVE",
"829 616 CURVE SMOOTH",
"829 0 LINE",
"1221 0 LINE",
"1221 528 LINE SMOOTH",
"1221 747 OFFCURVE",
"1275 846 OFFCURVE",
"1395 846 CURVE SMOOTH",
"1486 846 OFFCURVE",
"1526 769 OFFCURVE",
"1526 616 CURVE SMOOTH",
"1526 0 LINE",
"1917 0 LINE",
"1917 737 LINE SMOOTH",
"1917 1017 OFFCURVE",
"1792 1153 OFFCURVE",
"1524 1153 CURVE SMOOTH"
);
}
);
width = 2048;
}
);
unicode = 006D;
},
{
glyphname = n;
lastChange = "2013-03-07 06:18:30 +0200";
layers = (
{
anchors = (
{
name = bottom;
position = "{686, 0}";
},
{
name = top;
position = "{686, 1118}";
}
);
layerId = "3B25EE82-5579-4A28-8C59-D985C68457B1";
name = Bold;
paths = (
{
closed = 1;
nodes = (
"691 1153 OFFCURVE",
"569 1100 OFFCURVE",
"502 992 CURVE",
"479 992 LINE",
"430 1133 LINE",
"135 1133 LINE",
"135 0 LINE",
"526 0 LINE",
"526 496 LINE SMOOTH",
"526 624 OFFCURVE",
"541 714 OFFCURVE",
"570 767 CURVE SMOOTH",
"599 820 OFFCURVE",
"647 846 OFFCURVE",
"713 846 CURVE SMOOTH",
"809 846 OFFCURVE",
"850 769 OFFCURVE",
"850 618 CURVE SMOOTH",
"850 0 LINE",
"1241 0 LINE",
"1241 737 LINE SMOOTH",
"1241 869 OFFCURVE",
"1206 970 OFFCURVE",
"1136 1044 CURVE SMOOTH",
"1067 1117 OFFCURVE",
"968 1153 OFFCURVE",
"844 1153 CURVE SMOOTH"
);
}
);
width = 1372;
}
);
unicode = 006E;
},
{
glyphname = o;
lastChange = "2013-03-07 06:18:30 +0200";
layers = (
{
anchors = (
{
name = top;
position = "{653, 1118}";
}
);
layerId = "3B25EE82-5579-4A28-8C59-D985C68457B1";
name = Bold;
paths = (
{
closed = 1;
nodes = (
"475 1153 OFFCURVE",
"335 1102 OFFCURVE",
"235 998 CURVE SMOOTH",
"136 897 OFFCURVE",
"86 754 OFFCURVE",
"86 569 CURVE SMOOTH",
"86 388 OFFCURVE",
"137 245 OFFCURVE",
"238 139 CURVE SMOOTH",
"340 33 OFFCURVE",
"477 -20 OFFCURVE",
"649 -20 CURVE SMOOTH",
"828 -20 OFFCURVE",
"967 32 OFFCURVE",
"1067 135 CURVE SMOOTH",
"1167 239 OFFCURVE",
"1217 384 OFFCURVE",
"1217 569 CURVE SMOOTH",
"1222 923 OFFCURVE",
"988 1157 OFFCURVE",
"655 1153 CURVE SMOOTH"
);
},
{
closed = 1;
nodes = (
"774 862 OFFCURVE",
"819 762 OFFCURVE",
"819 569 CURVE SMOOTH",
"819 374 OFFCURVE",
"774 270 OFFCURVE",
"653 270 CURVE SMOOTH",
"530 270 OFFCURVE",
"483 374 OFFCURVE",
"483 569 CURVE SMOOTH",
"483 764 OFFCURVE",
"531 862 OFFCURVE",
"651 862 CURVE SMOOTH"
);
}
);
width = 1305;
}
);
unicode = 006F;
},
{
glyphname = oslash;
lastChange = "2013-03-07 06:18:30 +0200";
layers = (
{
layerId = "3B25EE82-5579-4A28-8C59-D985C68457B1";
name = Bold;
paths = (
{
closed = 1;
nodes = (
"918 1114 LINE",
"845 1140 OFFCURVE",
"767 1153 OFFCURVE",
"684 1153 CURVE SMOOTH",
"305 1153 OFFCURVE",
"86 938 OFFCURVE",
"86 569 CURVE SMOOTH",
"86 370 OFFCURVE",
"149 218 OFFCURVE",
"274 113 CURVE",
"195 -10 LINE",
"365 -117 LINE",
"449 14 LINE",
"518 -9 OFFCURVE",
"595 -20 OFFCURVE",
"678 -20 CURVE SMOOTH",
"1055 -20 OFFCURVE",
"1274 196 OFFCURVE",
"1274 569 CURVE SMOOTH",
"1274 762 OFFCURVE",
"1213 911 OFFCURVE",
"1090 1016 CURVE",
"1157 1120 LINE",
"989 1225 LINE"
);
},
{
closed = 1;
nodes = (
"896 670 OFFCURVE",
"899 626 OFFCURVE",
"899 569 CURVE SMOOTH",
"899 338 OFFCURVE",
"834 250 OFFCURVE",
"682 250 CURVE SMOOTH",
"649 250 OFFCURVE",
"624 253 OFFCURVE",
"606 258 CURVE",
"889 700 LINE"
);
},
{
closed = 1;
nodes = (
"711 883 OFFCURVE",
"738 879 OFFCURVE",
"762 870 CURVE",
"473 422 LINE",
"465 454 OFFCURVE",
"461 503 OFFCURVE",
"461 569 CURVE SMOOTH",
"461 790 OFFCURVE",
"528 883 OFFCURVE",
"680 883 CURVE SMOOTH"
);
}
);
width = 1362;
}
);
unicode = 00F8;
},
{
glyphname = oe;
lastChange = "2013-03-07 06:18:30 +0200";
layers = (
{
layerId = "3B25EE82-5579-4A28-8C59-D985C68457B1";
name = Bold;
paths = (
{
closed = 1;
nodes = (
"1267 1153 OFFCURVE",
"1133 1111 OFFCURVE",
"1030 1026 CURVE",
"931 1111 OFFCURVE",
"806 1153 OFFCURVE",
"655 1153 CURVE SMOOTH",
"295 1153 OFFCURVE",
"86 938 OFFCURVE",
"86 569 CURVE SMOOTH",
"86 208 OFFCURVE",
"305 -20 OFFCURVE",
"649 -20 CURVE SMOOTH",
"816 -20 OFFCURVE",
"950 26 OFFCURVE",
"1051 117 CURVE",
"1148 26 OFFCURVE",
"1275 -20 OFFCURVE",
"1434 -20 CURVE SMOOTH",
"1611 -20 OFFCURVE",
"1726 0 OFFCURVE",
"1849 63 CURVE",
"1849 344 LINE",
"1736 287 OFFCURVE",
"1614 258 OFFCURVE",
"1485 258 CURVE SMOOTH",
"1330 258 OFFCURVE",
"1230 341 OFFCURVE",
"1225 461 CURVE",
"1921 461 LINE",
"1921 633 LINE SMOOTH",
"1921 964 OFFCURVE",
"1733 1153 OFFCURVE",
"1430 1153 CURVE SMOOTH"
);
},
{
closed = 1;
nodes = (
"774 862 OFFCURVE",
"819 762 OFFCURVE",
"819 569 CURVE SMOOTH",
"819 374 OFFCURVE",
"774 270 OFFCURVE",
"653 270 CURVE SMOOTH",
"530 270 OFFCURVE",
"485 374 OFFCURVE",
"485 569 CURVE SMOOTH",
"485 762 OFFCURVE",
"532 862 OFFCURVE",
"651 862 CURVE SMOOTH"
);
},
{
closed = 1;
nodes = (
"1500 887 OFFCURVE",
"1568 816 OFFCURVE",
"1571 707 CURVE",
"1231 707 LINE",
"1240 827 OFFCURVE",
"1299 887 OFFCURVE",
"1407 887 CURVE SMOOTH"
);
}
);
width = 2007;
}
);
unicode = 0153;
},
{
glyphname = p;
lastChange = "2013-03-07 06:18:30 +0200";
layers = (
{
layerId = "3B25EE82-5579-4A28-8C59-D985C68457B1";
name = Bold;
paths = (
{
closed = 1;
nodes = (
"699 1153 OFFCURVE",
"599 1098 OFFCURVE",
"526 988 CURVE",
"508 988 LINE",
"453 1133 LINE",
"135 1133 LINE",
"135 -492 LINE",
"526 -492 LINE",
"526 -37 LINE SMOOTH",
"526 -18 OFFCURVE",
"520 32 OFFCURVE",
"508 111 CURVE",
"526 111 LINE",
"615 12 OFFCURVE",
"700 -20 OFFCURVE",
"815 -20 CURVE SMOOTH",
"942 -20 OFFCURVE",
"1043 32 OFFCURVE",
"1117 137 CURVE SMOOTH",
"1192 242 OFFCURVE",
"1229 386 OFFCURVE",
"1229 569 CURVE SMOOTH",
"1229 750 OFFCURVE",
"1193 893 OFFCURVE",
"1122 996 CURVE SMOOTH",
"1051 1101 OFFCURVE",
"952 1153 OFFCURVE",
"827 1153 CURVE SMOOTH"
);
},
{
closed = 1;
nodes = (
"789 846 OFFCURVE",
"831 768 OFFCURVE",
"831 573 CURVE SMOOTH",
"831 374 OFFCURVE",
"788 295 OFFCURVE",
"688 295 CURVE SMOOTH",
"576 295 OFFCURVE",
"526 376 OFFCURVE",
"526 571 CURVE SMOOTH",
"526 602 LINE SMOOTH",
"530 763 OFFCURVE",
"569 846 OFFCURVE",
"684 846 CURVE SMOOTH"
);
}
);
width = 1317;
}
);
unicode = 0070;
},
{
glyphname = thorn;
lastChange = "2013-03-07 06:18:30 +0200";
layers = (
{
layerId = "3B25EE82-5579-4A28-8C59-D985C68457B1";
name = Bold;
paths = (
{
closed = 1;
nodes = (
"135 1556 LINE",
"135 -492 LINE",
"526 -492 LINE",
"526 -43 LINE",
"519 49 LINE",
"512 109 LINE",
"526 109 LINE",
"602 23 OFFCURVE",
"698 -20 OFFCURVE",
"813 -20 CURVE SMOOTH",
"1070 -20 OFFCURVE",
"1229 208 OFFCURVE",
"1229 569 CURVE SMOOTH",
"1229 937 OFFCURVE",
"1074 1153 OFFCURVE",
"827 1153 CURVE SMOOTH",
"694 1153 OFFCURVE",
"583 1091 OFFCURVE",
"526 987 CURVE",
"508 987 LINE",
"520 1066 OFFCURVE",
"526 1141 OFFCURVE",
"526 1212 CURVE SMOOTH",
"526 1556 LINE"
);
},
{
closed = 1;
nodes = (
"793 846 OFFCURVE",
"831 752 OFFCURVE",
"831 573 CURVE SMOOTH",
"831 390 OFFCURVE",
"795 295 OFFCURVE",
"688 295 CURVE SMOOTH",
"576 295 OFFCURVE",
"526 376 OFFCURVE",
"526 571 CURVE SMOOTH",
"526 600 LINE SMOOTH",
"530 764 OFFCURVE",
"569 846 OFFCURVE",
"682 846 CURVE SMOOTH"
);
}
);
width = 1317;
}
);
unicode = 00FE;
},
{
glyphname = q;
lastChange = "2013-03-07 06:18:30 +0200";
layers = (
{
layerId = "3B25EE82-5579-4A28-8C59-D985C68457B1";
name = Bold;
paths = (
{
closed = 1;
nodes = (
"371 1153 OFFCURVE",
"270 1101 OFFCURVE",
"196 996 CURVE SMOOTH",
"123 893 OFFCURVE",
"86 749 OFFCURVE",
"86 565 CURVE SMOOTH",
"86 383 OFFCURVE",
"122 240 OFFCURVE",
"194 136 CURVE SMOOTH",
"266 32 OFFCURVE",
"365 -20 OFFCURVE",
"492 -20 CURVE SMOOTH",
"627 -20 OFFCURVE",
"727 34 OFFCURVE",
"791 143 CURVE",
"803 143 LINE",
"795 55 OFFCURVE",
"791 0 OFFCURVE",
"791 -23 CURVE SMOOTH",
"791 -492 LINE",
"1182 -492 LINE",
"1182 1133 LINE",
"844 1133 LINE",
"815 992 LINE",
"807 992 LINE",
"738 1100 OFFCURVE",
"635 1153 OFFCURVE",
"498 1153 CURVE SMOOTH"
);
},
{
closed = 1;
nodes = (
"770 850 OFFCURVE",
"821 771 OFFCURVE",
"821 571 CURVE SMOOTH",
"821 524 LINE SMOOTH",
"821 349 OFFCURVE",
"770 283 OFFCURVE",
"651 283 CURVE SMOOTH",
"536 283 OFFCURVE",
"483 362 OFFCURVE",
"483 559 CURVE SMOOTH",
"483 753 OFFCURVE",
"537 850 OFFCURVE",
"645 850 CURVE SMOOTH"
);
}
);
width = 1317;
}
);
unicode = 0071;
},
{
glyphname = r;
lastChange = "2013-03-07 06:18:30 +0200";
layers = (
{
anchors = (
{
name = bottom;
position = "{481, 0}";
},
{
name = top;
position = "{481, 1118}";
}
);
layerId = "3B25EE82-5579-4A28-8C59-D985C68457B1";
name = Bold;
paths = (
{
closed = 1;
nodes = (
"760 1153 OFFCURVE",
"701 1134 OFFCURVE",
"642 1097 CURVE SMOOTH",
"584 1060 OFFCURVE",
"539 1012 OFFCURVE",
"506 952 CURVE",
"487 952 LINE",
"426 1133 LINE",
"135 1133 LINE",
"135 0 LINE",
"526 0 LINE",
"526 557 LINE SMOOTH",
"526 704 OFFCURVE",
"599 784 OFFCURVE",
"770 784 CURVE SMOOTH",
"827 784 OFFCURVE",
"871 780 OFFCURVE",
"903 772 CURVE",
"938 1141 LINE",
"916 1145 LINE SMOOTH",
"885 1150 OFFCURVE",
"853 1153 OFFCURVE",
"819 1153 CURVE SMOOTH"
);
}
);
width = 961;
}
);
unicode = 0072;
},
{
glyphname = s;
lastChange = "2013-03-07 06:18:30 +0200";
layers = (
{
anchors = (
{
name = bottom;
position = "{546, 0}";
},
{
name = top;
position = "{546, 1118}";
}
);
layerId = "3B25EE82-5579-4A28-8C59-D985C68457B1";
name = Bold;
paths = (
{
closed = 1;
nodes = (
"437 1153 OFFCURVE",
"322 1124 OFFCURVE",
"241 1065 CURVE SMOOTH",
"160 1006 OFFCURVE",
"119 924 OFFCURVE",
"119 819 CURVE SMOOTH",
"119 736 OFFCURVE",
"140 667 OFFCURVE",
"181 612 CURVE SMOOTH",
"222 558 OFFCURVE",
"295 510 OFFCURVE",
"399 467 CURVE SMOOTH",
"513 422 OFFCURVE",
"582 391 OFFCURVE",
"605 375 CURVE",
"629 360 OFFCURVE",
"641 342 OFFCURVE",
"641 322 CURVE SMOOTH",
"641 283 OFFCURVE",
"599 264 OFFCURVE",
"514 264 CURVE SMOOTH",
"457 264 OFFCURVE",
"393 273 OFFCURVE",
"320 290 CURVE SMOOTH",
"248 307 OFFCURVE",
"182 329 OFFCURVE",
"121 356 CURVE",
"121 43 LINE",
"186 19 OFFCURVE",
"249 3 OFFCURVE",
"311 -6 CURVE SMOOTH",
"373 -15 OFFCURVE",
"446 -20 OFFCURVE",
"530 -20 CURVE SMOOTH",
"839 -20 OFFCURVE",
"1010 105 OFFCURVE",
"1010 348 CURVE SMOOTH",
"1010 469 OFFCURVE",
"974 550 OFFCURVE",
"896 613 CURVE SMOOTH",
"857 644 OFFCURVE",
"798 676 OFFCURVE",
"719 709 CURVE SMOOTH",
"612 751 OFFCURVE",
"548 779 OFFCURVE",
"525 792 CURVE",
"503 806 OFFCURVE",
"492 823 OFFCURVE",
"492 842 CURVE SMOOTH",
"492 873 OFFCURVE",
"524 889 OFFCURVE",
"588 889 CURVE SMOOTH",
"625 889 OFFCURVE",
"672 881 OFFCURVE",
"730 864 CURVE SMOOTH",
"788 848 OFFCURVE",
"843 828 OFFCURVE",
"895 805 CURVE",
"1001 1057 LINE",
"860 1120 OFFCURVE",
"735 1153 OFFCURVE",
"586 1153 CURVE SMOOTH"
);
}
);
width = 1092;
}
);
unicode = 0073;
},
{
glyphname = scaron;
lastChange = "2013-03-07 06:18:30 +0200";
layers = (
{
layerId = "3B25EE82-5579-4A28-8C59-D985C68457B1";
name = Bold;
paths = (
{
closed = 1;
nodes = (
"289 1153 OFFCURVE",
"119 1030 OFFCURVE",
"119 819 CURVE SMOOTH",
"119 652 OFFCURVE",
"191 552 OFFCURVE",
"399 467 CURVE SMOOTH",
"513 422 OFFCURVE",
"582 391 OFFCURVE",
"606 376 CURVE",
"629 360 OFFCURVE",
"641 342 OFFCURVE",
"641 322 CURVE SMOOTH",
"641 283 OFFCURVE",
"599 264 OFFCURVE",
"514 264 CURVE SMOOTH",
"401 264 OFFCURVE",
"242 303 OFFCURVE",
"121 356 CURVE",
"121 43 LINE",
"250 -5 OFFCURVE",
"362 -20 OFFCURVE",
"530 -20 CURVE SMOOTH",
"839 -20 OFFCURVE",
"1010 105 OFFCURVE",
"1010 348 CURVE SMOOTH",
"1010 409 OFFCURVE",
"1001 460 OFFCURVE",
"983 503 CURVE SMOOTH",
"946 587 OFFCURVE",
"878 644 OFFCURVE",
"719 709 CURVE SMOOTH",
"612 751 OFFCURVE",
"548 779 OFFCURVE",
"526 793 CURVE",
"503 806 OFFCURVE",
"492 823 OFFCURVE",
"492 842 CURVE SMOOTH",
"492 873 OFFCURVE",
"524 889 OFFCURVE",
"588 889 CURVE SMOOTH",
"661 889 OFFCURVE",
"791 852 OFFCURVE",
"895 805 CURVE",
"1001 1057 LINE",
"860 1120 OFFCURVE",
"735 1153 OFFCURVE",
"586 1153 CURVE SMOOTH"
);
},
{
closed = 1;
nodes = (
"750 1569 LINE",
"694 1537 OFFCURVE",
"627 1487 OFFCURVE",
"549 1419 CURVE",
"466 1490 OFFCURVE",
"401 1540 OFFCURVE",
"355 1569 CURVE",
"97 1569 LINE",
"97 1540 LINE",
"198 1441 OFFCURVE",
"303 1321 OFFCURVE",
"355 1241 CURVE",
"748 1241 LINE",
"807 1328 OFFCURVE",
"916 1452 OFFCURVE",
"1004 1540 CURVE",
"1004 1569 LINE"
);
}
);
width = 1092;
}
);
unicode = 0161;
},
{
glyphname = germandbls;
lastChange = "2013-03-07 06:18:30 +0200";
layers = (
{
layerId = "3B25EE82-5579-4A28-8C59-D985C68457B1";
name = Bold;
paths = (
{
closed = 1;
nodes = (
"376 1567 OFFCURVE",
"135 1387 OFFCURVE",
"135 1100 CURVE SMOOTH",
"135 0 LINE",
"526 0 LINE",
"526 1059 LINE SMOOTH",
"526 1198 OFFCURVE",
"600 1268 OFFCURVE",
"748 1268 CURVE SMOOTH",
"869 1268 OFFCURVE",
"938 1217 OFFCURVE",
"938 1149 CURVE SMOOTH",
"938 1090 OFFCURVE",
"899 1043 OFFCURVE",
"799 974 CURVE SMOOTH",
"706 910 OFFCURVE",
"659 837 OFFCURVE",
"659 756 CURVE SMOOTH",
"659 649 OFFCURVE",
"715 583 OFFCURVE",
"883 494 CURVE SMOOTH",
"940 464 OFFCURVE",
"980 441 OFFCURVE",
"1004 426 CURVE SMOOTH",
"1052 394 OFFCURVE",
"1069 373 OFFCURVE",
"1069 336 CURVE SMOOTH",
"1069 284 OFFCURVE",
"1013 250 OFFCURVE",
"932 250 CURVE SMOOTH",
"845 250 OFFCURVE",
"718 290 OFFCURVE",
"653 330 CURVE",
"653 39 LINE",
"738 -6 OFFCURVE",
"843 -20 OFFCURVE",
"1024 -20 CURVE SMOOTH",
"1321 -20 OFFCURVE",
"1477 102 OFFCURVE",
"1477 334 CURVE SMOOTH",
"1477 499 OFFCURVE",
"1414 582 OFFCURVE",
"1189 709 CURVE SMOOTH",
"1143 734 OFFCURVE",
"1112 753 OFFCURVE",
"1096 767 CURVE SMOOTH",
"1079 781 OFFCURVE",
"1071 796 OFFCURVE",
"1071 811 CURVE SMOOTH",
"1071 830 OFFCURVE",
"1101 853 OFFCURVE",
"1141 884 CURVE SMOOTH",
"1180 915 OFFCURVE",
"1230 953 OFFCURVE",
"1270 1003 CURVE SMOOTH",
"1309 1053 OFFCURVE",
"1339 1114 OFFCURVE",
"1339 1190 CURVE SMOOTH",
"1339 1427 OFFCURVE",
"1116 1567 OFFCURVE",
"748 1567 CURVE SMOOTH"
);
}
);
width = 1536;
}
);
unicode = 00DF;
},
{
glyphname = t;
lastChange = "2013-03-07 06:18:30 +0200";
layers = (
{
anchors = (
{
name = bottom;
position = "{471, 0}";
},
{
name = center;
position = "{471, 559}";
}
);
layerId = "3B25EE82-5579-4A28-8C59-D985C68457B1";
name = Bold;
paths = (
{
closed = 1;
nodes = (
"328 1360 LINE",
"227 1122 LINE",
"53 998 LINE",
"53 840 LINE",
"190 840 LINE",
"190 373 LINE SMOOTH",
"190 106 OFFCURVE",
"298 -20 OFFCURVE",
"561 -20 CURVE SMOOTH",
"625 -20 OFFCURVE",
"681 -15 OFFCURVE",
"728 -5 CURVE SMOOTH",
"776 4 OFFCURVE",
"826 20 OFFCURVE",
"879 43 CURVE",
"879 328 LINE",
"806 302 OFFCURVE",
"743 289 OFFCURVE",
"690 289 CURVE SMOOTH",
"619 289 OFFCURVE",
"584 326 OFFCURVE",
"584 399 CURVE SMOOTH",
"584 840 LINE",
"862 840 LINE",
"862 1133 LINE",
"584 1133 LINE",
"584 1360 LINE"
);
}
);
width = 942;
}
);
unicode = 0074;
},
{
glyphname = u;
lastChange = "2013-03-07 06:18:30 +0200";
layers = (
{
anchors = (
{
name = ogonek;
position = "{1235, 10}";
},
{
name = top;
position = "{686, 1118}";
}
);
layerId = "3B25EE82-5579-4A28-8C59-D985C68457B1";
name = Bold;
paths = (
{
closed = 1;
nodes = (
"846 1133 LINE",
"846 637 LINE SMOOTH",
"846 511 OFFCURVE",
"832 421 OFFCURVE",
"803 368 CURVE SMOOTH",
"774 315 OFFCURVE",
"726 289 OFFCURVE",
"659 289 CURVE SMOOTH",
"563 289 OFFCURVE",
"524 366 OFFCURVE",
"524 514 CURVE SMOOTH",
"524 1133 LINE",
"133 1133 LINE",
"133 395 LINE SMOOTH",
"133 263 OFFCURVE",
"168 161 OFFCURVE",
"237 88 CURVE SMOOTH",
"306 16 OFFCURVE",
"403 -20 OFFCURVE",
"528 -20 CURVE SMOOTH",
"685 -20 OFFCURVE",
"805 37 OFFCURVE",
"870 141 CURVE",
"893 141 LINE",
"942 0 LINE",
"1237 0 LINE",
"1237 1133 LINE"
);
}
);
width = 1372;
}
);
unicode = 0075;
},
{
glyphname = v;
lastChange = "2013-03-07 06:18:30 +0200";
layers = (
{
layerId = "3B25EE82-5579-4A28-8C59-D985C68457B1";
name = Bold;
paths = (
{
closed = 1;
nodes = (
"844 1133 LINE",
"643 461 LINE SMOOTH",
"631 420 OFFCURVE",
"625 383 OFFCURVE",
"625 348 CURVE",
"618 348 LINE",
"618 392 OFFCURVE",
"602 451 OFFCURVE",
"600 463 CURVE",
"408 1133 LINE",
"0 1133 LINE",
"432 0 LINE",
"819 0 LINE",
"1251 1133 LINE"
);
}
);
width = 1251;
}
);
unicode = 0076;
},
{
glyphname = w;
lastChange = "2013-03-07 06:18:30 +0200";
layers = (
{
anchors = (
{
name = top;
position = "{932, 1118}";
}
);
layerId = "3B25EE82-5579-4A28-8C59-D985C68457B1";
name = Bold;
paths = (
{
closed = 1;
nodes = (
"1462 1133 LINE",
"1362 698 LINE SMOOTH",
"1351 652 OFFCURVE",
"1340 591 OFFCURVE",
"1331 515 CURVE SMOOTH",
"1322 440 OFFCURVE",
"1315 377 OFFCURVE",
"1311 326 CURVE",
"1305 326 LINE",
"1297 408 OFFCURVE",
"1278 523 OFFCURVE",
"1247 670 CURVE SMOOTH",
"1151 1133 LINE",
"719 1133 LINE",
"614 676 LINE SMOOTH",
"579 504 OFFCURVE",
"561 387 OFFCURVE",
"559 326 CURVE",
"553 326 LINE",
"548 425 OFFCURVE",
"531 549 OFFCURVE",
"502 698 CURVE SMOOTH",
"410 1133 LINE",
"25 1133 LINE",
"334 0 LINE",
"745 0 LINE",
"860 481 LINE SMOOTH",
"871 530 OFFCURVE",
"893 647 OFFCURVE",
"926 834 CURVE",
"932 834 LINE",
"952 703 LINE",
"981 540 LINE",
"1110 0 LINE",
"1528 0 LINE",
"1839 1133 LINE"
);
}
);
width = 1864;
}
);
unicode = 0077;
},
{
glyphname = x;
lastChange = "2013-03-07 06:18:30 +0200";
layers = (
{
layerId = "3B25EE82-5579-4A28-8C59-D985C68457B1";
name = Bold;
paths = (
{
closed = 1;
nodes = (
"821 1133 LINE",
"645 815 LINE",
"473 1133 LINE",
"29 1133 LINE",
"375 578 LINE",
"9 0 LINE",
"455 0 LINE",
"645 344 LINE",
"836 0 LINE",
"1280 0 LINE",
"911 578 LINE",
"1266 1133 LINE"
);
}
);
width = 1290;
}
);
unicode = 0078;
},
{
glyphname = y;
lastChange = "2013-03-07 06:18:30 +0200";
layers = (
{
anchors = (
{
name = top;
position = "{625, 1118}";
}
);
layerId = "3B25EE82-5579-4A28-8C59-D985C68457B1";
name = Bold;
paths = (
{
closed = 1;
nodes = (
"850 1133 LINE",
"653 481 LINE SMOOTH",
"642 446 OFFCURVE",
"634 406 OFFCURVE",
"629 360 CURVE",
"621 360 LINE",
"618 408 OFFCURVE",
"611 449 OFFCURVE",
"602 483 CURVE SMOOTH",
"410 1133 LINE",
"-2 1133 LINE",
"444 16 LINE",
"422 -39 OFFCURVE",
"401 -79 OFFCURVE",
"382 -103 CURVE SMOOTH",
"363 -128 OFFCURVE",
"340 -147 OFFCURVE",
"314 -160 CURVE SMOOTH",
"288 -173 OFFCURVE",
"258 -180 OFFCURVE",
"223 -180 CURVE SMOOTH",
"178 -180 OFFCURVE",
"137 -176 OFFCURVE",
"102 -168 CURVE",
"102 -475 LINE",
"157 -486 OFFCURVE",
"210 -492 OFFCURVE",
"262 -492 CURVE SMOOTH",
"397 -492 OFFCURVE",
"506 -460 OFFCURVE",
"589 -397 CURVE SMOOTH",
"673 -334 OFFCURVE",
"744 -225 OFFCURVE",
"801 -72 CURVE SMOOTH",
"1249 1133 LINE"
);
}
);
width = 1249;
}
);
unicode = 0079;
},
{
glyphname = z;
lastChange = "2013-03-07 06:18:30 +0200";
layers = (
{
anchors = (
{
name = top;
position = "{519, 1118}";
}
);
layerId = "3B25EE82-5579-4A28-8C59-D985C68457B1";
name = Bold;
paths = (
{
closed = 1;
nodes = (
"76 1133 LINE",
"76 834 LINE",
"518 834 LINE",
"49 223 LINE",
"49 0 LINE",
"986 0 LINE",
"986 299 LINE",
"516 299 LINE",
"965 891 LINE",
"965 1133 LINE"
);
}
);
width = 1038;
}
);
unicode = 007A;
},
{
glyphname = zcaron;
lastChange = "2013-03-07 06:18:30 +0200";
layers = (
{
layerId = "3B25EE82-5579-4A28-8C59-D985C68457B1";
name = Bold;
paths = (
{
closed = 1;
nodes = (
"76 1133 LINE",
"76 834 LINE",
"518 834 LINE",
"49 223 LINE",
"49 0 LINE",
"987 0 LINE",
"987 299 LINE",
"516 299 LINE",
"965 891 LINE",
"965 1133 LINE"
);
},
{
closed = 1;
nodes = (
"730 1569 LINE",
"674 1537 OFFCURVE",
"607 1487 OFFCURVE",
"529 1419 CURVE",
"446 1490 OFFCURVE",
"381 1540 OFFCURVE",
"335 1569 CURVE",
"77 1569 LINE",
"77 1540 LINE",
"178 1441 OFFCURVE",
"283 1321 OFFCURVE",
"335 1241 CURVE",
"728 1241 LINE",
"787 1328 OFFCURVE",
"896 1452 OFFCURVE",
"984 1540 CURVE",
"984 1569 LINE"
);
}
);
width = 1038;
}
);
unicode = 017E;
},
{
glyphname = dotlessi.001;
lastChange = "2013-03-07 06:18:30 +0200";
layers = (
{
layerId = "3B25EE82-5579-4A28-8C59-D985C68457B1";
name = Bold;
paths = (
{
closed = 1;
nodes = (
"137 1133 LINE",
"137 0 LINE",
"528 0 LINE",
"528 1133 LINE"
);
}
);
width = 666;
}
);
},
{
glyphname = mu;
lastChange = "2013-03-07 06:18:30 +0200";
layers = (
{
layerId = "3B25EE82-5579-4A28-8C59-D985C68457B1";
name = Bold;
paths = (
{
closed = 1;
nodes = (
"848 1133 LINE",
"848 637 LINE SMOOTH",
"848 394 OFFCURVE",
"796 289 OFFCURVE",
"672 289 CURVE SMOOTH",
"567 289 OFFCURVE",
"526 365 OFFCURVE",
"526 518 CURVE SMOOTH",
"526 1133 LINE",
"135 1133 LINE",
"135 -492 LINE",
"526 -492 LINE",
"526 -172 LINE SMOOTH",
"526 -75 OFFCURVE",
"522 3 OFFCURVE",
"514 63 CURVE",
"551 6 OFFCURVE",
"591 -20 OFFCURVE",
"666 -20 CURVE SMOOTH",
"754 -20 OFFCURVE",
"834 35 OFFCURVE",
"879 152 CURVE",
"895 152 LINE",
"948 0 LINE",
"1241 0 LINE",
"1241 1133 LINE"
);
}
);
width = 1376;
}
);
unicode = 03BC;
},
{
glyphname = "alef-hb";
lastChange = "2013-03-07 06:18:30 +0200";
layers = (
{
anchors = (
{
name = bottom;
position = "{689, -152}";
},
{
name = bottomleft;
position = "{20, 0}";
},
{
name = center;
position = "{638, 153}";
},
{
name = top;
position = "{689, 1118}";
},
{
name = topleft;
position = "{122, 1160}";
}
);
layerId = "3B25EE82-5579-4A28-8C59-D985C68457B1";
name = Bold;
paths = (
{
closed = 1;
nodes = (
"870 1295 LINE",
"870 821 LINE SMOOTH",
"870 773 OFFCURVE",
"865 737 OFFCURVE",
"854 713 CURVE",
"762 857 LINE",
"504 1295 LINE",
"72 1295 LINE",
"157 1161 OFFCURVE",
"269 985 OFFCURVE",
"358 846 CURVE",
"142 764 OFFCURVE",
"116 609 OFFCURVE",
"116 471 CURVE SMOOTH",
"116 0 LINE",
"503 0 LINE",
"503 474 LINE SMOOTH",
"503 525 OFFCURVE",
"506 559 OFFCURVE",
"522 584 CURVE",
"873 0 LINE",
"1306 0 LINE",
"1219 135 OFFCURVE",
"1109 309 OFFCURVE",
"1020 450 CURVE",
"1236 531 OFFCURVE",
"1258 685 OFFCURVE",
"1258 824 CURVE SMOOTH",
"1258 1295 LINE"
);
}
);
width = 1378;
}
);
unicode = 05D0;
},
{
glyphname = "bet-hb";
lastChange = "2013-03-07 06:18:30 +0200";
layers = (
{
anchors = (
{
name = bottom;
position = "{598, -152}";
},
{
name = bottomleft;
position = "{20, 0}";
},
{
name = center;
position = "{380, 665}";
},
{
name = top;
position = "{598, 1118}";
},
{
name = topleft;
position = "{132, 1160}";
}
);
layerId = "3B25EE82-5579-4A28-8C59-D985C68457B1";
name = Bold;
paths = (
{
closed = 1;
nodes = (
"265 1315 OFFCURVE",
"124 1298 OFFCURVE",
"82 1289 CURVE",
"82 992 LINE",
"82 992 OFFCURVE",
"313 1015 OFFCURVE",
"442 1015 CURVE SMOOTH",
"554 1015 OFFCURVE",
"639 968 OFFCURVE",
"639 822 CURVE SMOOTH",
"639 299 LINE",
"82 299 LINE",
"82 0 LINE",
"1168 0 LINE",
"1168 299 LINE",
"1027 299 LINE",
"1027 839 LINE SMOOTH",
"1027 1136 OFFCURVE",
"957 1315 OFFCURVE",
"479 1315 CURVE SMOOTH"
);
}
);
width = 1196;
}
);
unicode = 05D1;
},
{
glyphname = "gimel-hb";
lastChange = "2013-03-07 06:18:30 +0200";
layers = (
{
anchors = (
{
name = bottom;
position = "{464, -152}";
},
{
name = bottomleft;
position = "{20, 0}";
},
{
name = center;
position = "{280, 665}";
},
{
name = top;
position = "{492, 1118}";
},
{
name = topleft;
position = "{226, 1160}";
}
);
layerId = "3B25EE82-5579-4A28-8C59-D985C68457B1";
name = Bold;
paths = (
{
closed = 1;
nodes = (
"306 1315 OFFCURVE",
"180 1283 OFFCURVE",
"180 1283 CURVE",
"180 980 LINE",
"180 980 OFFCURVE",
"275 1009 OFFCURVE",
"379 1009 CURVE SMOOTH",
"436 1009 OFFCURVE",
"462 961 OFFCURVE",
"462 884 CURVE SMOOTH",
"462 549 LINE SMOOTH",
"462 386 OFFCURVE",
"343 328 OFFCURVE",
"211 328 CURVE SMOOTH",
"151 328 OFFCURVE",
"83 343 OFFCURVE",
"83 343 CURVE",
"50 0 LINE",
"50 0 OFFCURVE",
"117 -20 OFFCURVE",
"173 -20 CURVE SMOOTH",
"373 -20 OFFCURVE",
"481 182 OFFCURVE",
"481 182 CURVE",
"498 182 LINE",
"559 0 LINE",
"850 0 LINE",
"850 902 LINE SMOOTH",
"850 1134 OFFCURVE",
"798 1315 OFFCURVE",
"431 1315 CURVE SMOOTH"
);
}
);
width = 984;
}
);
unicode = 05D2;
},
{
glyphname = "dalet-hb";
lastChange = "2013-03-07 06:18:30 +0200";
layers = (
{
anchors = (
{
name = bottom;
position = "{744, -152}";
},
{
name = bottomleft;
position = "{20, 0}";
},
{
name = center;
position = "{276, 665}";
},
{
name = top;
position = "{568, 1118}";
},
{
name = topleft;
position = "{76, 1160}";
}
);
layerId = "3B25EE82-5579-4A28-8C59-D985C68457B1";
name = Bold;
paths = (
{
closed = 1;
nodes = (
"23 1295 LINE",
"23 996 LINE",
"644 996 LINE",
"599 958 OFFCURVE",
"551 891 OFFCURVE",
"551 786 CURVE SMOOTH",
"551 0 LINE",
"939 0 LINE",
"939 779 LINE SMOOTH",
"939 924 OFFCURVE",
"980 972 OFFCURVE",
"1108 1021 CURVE",
"1108 1295 LINE"
);
}
);
width = 1135;
}
);
unicode = 05D3;
},
{
glyphname = "he-hb";
lastChange = "2013-03-07 06:18:30 +0200";
layers = (
{
anchors = (
{
name = bottom;
position = "{675, -152}";
},
{
name = bottomleft;
position = "{20, 0}";
},
{
name = center;
position = "{675, 665}";
},
{
name = top;
position = "{675, 1118}";
},
{
name = topleft;
position = "{178, 1160}";
}
);
layerId = "3B25EE82-5579-4A28-8C59-D985C68457B1";
name = Bold;
paths = (
{
closed = 1;
nodes = (
"372 1315 OFFCURVE",
"135 1277 OFFCURVE",
"135 1277 CURVE",
"135 980 LINE",
"135 980 OFFCURVE",
"445 1015 OFFCURVE",
"634 1015 CURVE SMOOTH",
"746 1015 OFFCURVE",
"830 968 OFFCURVE",
"830 822 CURVE SMOOTH",
"830 0 LINE",
"1219 0 LINE",
"1219 822 LINE SMOOTH",
"1219 1119 OFFCURVE",
"1149 1315 OFFCURVE",
"672 1315 CURVE SMOOTH"
);
},
{
closed = 1;
nodes = (
"136 755 LINE",
"136 0 LINE",
"523 0 LINE",
"523 755 LINE"
);
}
);
width = 1349;
}
);
unicode = 05D4;
},
{
glyphname = "vav-hb";
lastChange = "2013-03-07 06:18:30 +0200";
layers = (
{
anchors = (
{
name = bottom;
position = "{329, -152}";
},
{
name = bottomleft;
position = "{20, 0}";
},
{
name = center;
position = "{0, 665}";
},
{
name = top;
position = "{329, 1160}";
},
{
name = topleft;
position = "{222, 1160}";
}
);
layerId = "3B25EE82-5579-4A28-8C59-D985C68457B1";
name = Bold;
paths = (
{
closed = 1;
nodes = (
"135 1295 LINE",
"135 0 LINE",
"523 0 LINE",
"523 1295 LINE"
);
}
);
width = 658;
}
);
unicode = 05D5;
},
{
glyphname = "zayin-hb";
lastChange = "2013-03-07 06:18:30 +0200";
layers = (
{
anchors = (
{
name = bottom;
position = "{336, -152}";
},
{
name = bottomleft;
position = "{20, 0}";
},
{
name = center;
position = "{4, 665}";
},
{
name = top;
position = "{366, 1118}";
},
{
name = topleft;
position = "{140, 1160}";
}
);
layerId = "3B25EE82-5579-4A28-8C59-D985C68457B1";
name = Bold;
paths = (
{
closed = 1;
nodes = (
"92 1295 LINE",
"92 996 LINE",
"349 996 LINE",
"264 925 OFFCURVE",
"136 781 OFFCURVE",
"136 445 CURVE SMOOTH",
"136 0 LINE",
"524 0 LINE",
"524 445 LINE SMOOTH",
"524 608 OFFCURVE",
"524 754 OFFCURVE",
"614 905 CURVE SMOOTH",
"657 976 OFFCURVE",
"708 1016 OFFCURVE",
"708 1016 CURVE",
"708 1295 LINE"
);
}
);
width = 731;
}
);
unicode = 05D6;
},
{
glyphname = "het-hb";
lastChange = "2013-03-07 06:18:30 +0200";
layers = (
{
anchors = (
{
name = bottom;
position = "{675, -152}";
},
{
name = bottomleft;
position = "{20, 0}";
},
{
name = center;
position = "{675, 665}";
},
{
name = top;
position = "{675, 1118}";
},
{
name = topleft;
position = "{184, 1160}";
}
);
layerId = "3B25EE82-5579-4A28-8C59-D985C68457B1";
name = Bold;
paths = (
{
closed = 1;
nodes = (
"372 1315 OFFCURVE",
"135 1277 OFFCURVE",
"135 1277 CURVE",
"135 0 LINE",
"523 0 LINE",
"523 1012 LINE",
"562 1014 OFFCURVE",
"600 1015 OFFCURVE",
"634 1015 CURVE SMOOTH",
"746 1015 OFFCURVE",
"830 968 OFFCURVE",
"830 822 CURVE SMOOTH",
"830 0 LINE",
"1219 0 LINE",
"1219 822 LINE SMOOTH",
"1219 1137 OFFCURVE",
"1149 1315 OFFCURVE",
"672 1315 CURVE SMOOTH"
);
}
);
width = 1349;
}
);
unicode = 05D7;
},
{
glyphname = "tet-hb";
lastChange = "2013-03-07 06:18:30 +0200";
layers = (
{
anchors = (
{
name = bottom;
position = "{692, -152}";
},
{
name = bottomleft;
position = "{20, 0}";
},
{
name = center;
position = "{692, 665}";
},
{
name = top;
position = "{676, 1118}";
},
{
name = topleft;
position = "{174, 1160}";
}
);
layerId = "3B25EE82-5579-4A28-8C59-D985C68457B1";
name = Bold;
paths = (
{
closed = 1;
nodes = (
"734 1315 OFFCURVE",
"693 1308 OFFCURVE",
"654 1302 CURVE",
"654 1003 LINE",
"654 1003 OFFCURVE",
"681 1008 OFFCURVE",
"702 1008 CURVE SMOOTH",
"827 1008 OFFCURVE",
"875 923 OFFCURVE",
"875 665 CURVE SMOOTH",
"875 397 OFFCURVE",
"813 291 OFFCURVE",
"694 291 CURVE SMOOTH",
"573 291 OFFCURVE",
"519 418 OFFCURVE",
"519 665 CURVE SMOOTH",
"519 1295 LINE",
"130 1295 LINE",
"130 665 LINE SMOOTH",
"130 233 OFFCURVE",
"375 -19 OFFCURVE",
"685 -19 CURVE SMOOTH",
"1058 -19 OFFCURVE",
"1265 234 OFFCURVE",
"1265 665 CURVE SMOOTH",
"1265 1177 OFFCURVE",
"1113 1315 OFFCURVE",
"790 1315 CURVE SMOOTH"
);
}
);
width = 1351;
}
);
unicode = 05D8;
},
{
glyphname = "yod-hb";
lastChange = "2013-03-07 06:18:30 +0200";
layers = (
{
anchors = (
{
name = bottom;
position = "{318, -152}";
},
{
name = bottomleft;
position = "{20, 0}";
},
{
name = center;
position = "{-12, 917}";
},
{
name = top;
position = "{318, 1118}";
},
{
name = topleft;
position = "{172, 1160}";
}
);
layerId = "3B25EE82-5579-4A28-8C59-D985C68457B1";
name = Bold;
paths = (
{
closed = 1;
nodes = (
"127 1295 LINE",
"127 419 LINE",
"300 419 LINE",
"515 691 LINE",
"515 1295 LINE"
);
}
);
width = 635;
}
);
unicode = 05D9;
},
{
glyphname = "finalkaf-hb";
lastChange = "2013-03-07 06:18:30 +0200";
layers = (
{
anchors = (
{
name = bottom;
position = "{168, 151}";
},
{
name = bottomleft;
position = "{20, 0}";
},
{
name = center;
position = "{280, 665}";
},
{
name = top;
position = "{554, 1118}";
},
{
name = topleft;
position = "{74, 1160}";
}
);
layerId = "3B25EE82-5579-4A28-8C59-D985C68457B1";
name = Bold;
paths = (
{
closed = 1;
nodes = (
"193 1315 OFFCURVE",
"23 1299 OFFCURVE",
"23 1299 CURVE",
"23 995 LINE",
"23 995 OFFCURVE",
"201 1013 OFFCURVE",
"347 1013 CURVE SMOOTH",
"564 1013 OFFCURVE",
"590 885 OFFCURVE",
"590 731 CURVE SMOOTH",
"590 -492 LINE",
"977 -492 LINE",
"977 729 LINE SMOOTH",
"977 1024 OFFCURVE",
"858 1315 OFFCURVE",
"431 1315 CURVE SMOOTH"
);
}
);
width = 1108;
}
);
unicode = 05DA;
},
{
glyphname = "kaf-hb";
lastChange = "2013-03-07 06:18:30 +0200";
layers = (
{
anchors = (
{
name = bottom;
position = "{472, -152}";
},
{
name = bottomleft;
position = "{20, 0}";
},
{
name = center;
position = "{352, 665}";
},
{
name = top;
position = "{552, 1118}";
},
{
name = topleft;
position = "{114, 1160}";
}
);
layerId = "3B25EE82-5579-4A28-8C59-D985C68457B1";
name = Bold;
paths = (
{
closed = 1;
nodes = (
"236 1315 OFFCURVE",
"66 1299 OFFCURVE",
"66 1299 CURVE",
"66 995 LINE",
"66 995 OFFCURVE",
"244 1013 OFFCURVE",
"390 1013 CURVE SMOOTH",
"607 1013 OFFCURVE",
"633 885 OFFCURVE",
"633 731 CURVE SMOOTH",
"633 565 LINE SMOOTH",
"633 412 OFFCURVE",
"592 292 OFFCURVE",
"437 292 CURVE SMOOTH",
"309 292 OFFCURVE",
"161 299 OFFCURVE",
"66 310 CURVE",
"66 7 LINE",
"179 -14 OFFCURVE",
"296 -20 OFFCURVE",
"474 -20 CURVE SMOOTH",
"932 -20 OFFCURVE",
"1021 271 OFFCURVE",
"1021 565 CURVE SMOOTH",
"1021 729 LINE SMOOTH",
"1021 1024 OFFCURVE",
"901 1315 OFFCURVE",
"474 1315 CURVE SMOOTH"
);
}
);
width = 1104;
}
);
unicode = 05DB;
},
{
glyphname = "lamed-hb";
lastChange = "2013-03-07 06:18:30 +0200";
layers = (
{
anchors = (
{
name = bottom;
position = "{600, -152}";
},
{
name = bottomleft;
position = "{20, 0}";
},
{
name = center;
position = "{306, 665}";
},
{
name = top;
position = "{566, 1118}";
},
{
name = topleft;
position = "{-78, 1160}";
}
);
layerId = "3B25EE82-5579-4A28-8C59-D985C68457B1";
name = Bold;
paths = (
{
closed = 1;
nodes = (
"50 1551 LINE",
"50 996 LINE",
"692 996 LINE",
"543 495 LINE",
"430 0 LINE",
"812 0 LINE",
"921 482 LINE",
"920 481 LINE",
"1090 1058 LINE",
"1090 1295 LINE",
"438 1295 LINE",
"438 1551 LINE"
);
}
);
width = 1131;
}
);
unicode = 05DC;
},
{
glyphname = "finalmem-hb";
lastChange = "2013-03-07 06:18:30 +0200";
layers = (
{
anchors = (
{
name = bottom;
position = "{675, -152}";
},
{
name = bottomleft;
position = "{20, 0}";
},
{
name = center;
position = "{675, 665}";
},
{
name = top;
position = "{675, 1118}";
},
{
name = topleft;
position = "{188, 1160}";
}
);
layerId = "3B25EE82-5579-4A28-8C59-D985C68457B1";
name = Bold;
paths = (
{
closed = 1;
nodes = (
"372 1314 OFFCURVE",
"135 1277 OFFCURVE",
"135 1277 CURVE",
"135 0 LINE",
"1219 0 LINE",
"1219 883 LINE SMOOTH",
"1219 1194 OFFCURVE",
"1064 1314 OFFCURVE",
"672 1314 CURVE SMOOTH"
);
},
{
closed = 1;
nodes = (
"752 1014 OFFCURVE",
"830 990 OFFCURVE",
"830 895 CURVE SMOOTH",
"830 299 LINE",
"523 299 LINE",
"523 1010 LINE",
"523 1010 OFFCURVE",
"584 1014 OFFCURVE",
"634 1014 CURVE SMOOTH"
);
}
);
width = 1349;
}
);
unicode = 05DD;
},
{
glyphname = "mem-hb";
lastChange = "2013-03-07 06:18:30 +0200";
layers = (
{
anchors = (
{
name = bottom;
position = "{713, -152}";
},
{
name = bottomleft;
position = "{20, 0}";
},
{
name = center;
position = "{713, 665}";
},
{
name = top;
position = "{713, 1118}";
},
{
name = topleft;
position = "{140, 1160}";
}
);
layerId = "3B25EE82-5579-4A28-8C59-D985C68457B1";
name = Bold;
paths = (
{
closed = 1;
nodes = (
"637 1315 OFFCURVE",
"504 1163 OFFCURVE",
"504 1163 CURVE SMOOTH",
"490 1163 LINE SMOOTH",
"490 1163 OFFCURVE",
"486 1204 OFFCURVE",
"468 1248 CURVE SMOOTH",
"462 1262 OFFCURVE",
"453 1282 OFFCURVE",
"445 1295 CURVE",
"105 1295 LINE",
"150 1171 OFFCURVE",
"168 1074 OFFCURVE",
"168 951 CURVE SMOOTH",
"168 890 OFFCURVE",
"164 849 OFFCURVE",
"161 818 CURVE SMOOTH",
"86 0 LINE",
"468 0 LINE",
"543 874 LINE",
"543 874 OFFCURVE",
"615 1007 OFFCURVE",
"739 1007 CURVE SMOOTH",
"889 1007 OFFCURVE",
"900 878 OFFCURVE",
"900 729 CURVE SMOOTH",
"900 299 LINE",
"669 299 LINE",
"669 0 LINE",
"1295 0 LINE",
"1295 729 LINE SMOOTH",
"1295 1065 OFFCURVE",
"1209 1315 OFFCURVE",
"865 1315 CURVE SMOOTH"
);
}
);
width = 1425;
}
);
unicode = 05DE;
},
{
glyphname = "finalnun-hb";
lastChange = "2013-03-07 06:18:30 +0200";
layers = (
{
anchors = (
{
name = bottom;
position = "{-332, 149}";
},
{
name = bottomleft;
position = "{20, 0}";
},
{
name = center;
position = "{-60, 655}";
},
{
name = top;
position = "{310, 1118}";
},
{
name = topleft;
position = "{76, 1160}";
}
);
layerId = "3B25EE82-5579-4A28-8C59-D985C68457B1";
name = Bold;
paths = (
{
closed = 1;
nodes = (
"28 1295 LINE SMOOTH",
"28 1295 OFFCURVE",
"95 1101 OFFCURVE",
"95 821 CURVE SMOOTH",
"95 -473 LINE",
"484 -473 LINE",
"484 821 LINE SMOOTH",
"484 1095 OFFCURVE",
"417 1295 OFFCURVE",
"417 1295 CURVE SMOOTH"
);
}
);
width = 619;
}
);
unicode = 05DF;
},
{
glyphname = "nun-hb";
lastChange = "2013-03-07 06:18:30 +0200";
layers = (
{
anchors = (
{
name = bottom;
position = "{430, -152}";
},
{
name = bottomleft;
position = "{20, 0}";
},
{
name = center;
position = "{198, 665}";
},
{
name = top;
position = "{453, 1118}";
},
{
name = topleft;
position = "{168, 1160}";
}
);
layerId = "3B25EE82-5579-4A28-8C59-D985C68457B1";
name = Bold;
paths = (
{
closed = 1;
nodes = (
"209 1315 OFFCURVE",
"129 1299 OFFCURVE",
"129 1299 CURVE",
"129 995 LINE",
"129 995 OFFCURVE",
"226 1008 OFFCURVE",
"291 1008 CURVE SMOOTH",
"365 1008 OFFCURVE",
"387 942 OFFCURVE",
"387 883 CURVE SMOOTH",
"387 405 LINE",
"387 348 OFFCURVE",
"375 299 OFFCURVE",
"375 299 CURVE",
"72 299 LINE",
"72 0 LINE",
"730 0 LINE",
"730 0 OFFCURVE",
"775 193 OFFCURVE",
"775 405 CURVE",
"775 883 LINE SMOOTH",
"775 1115 OFFCURVE",
"697 1315 OFFCURVE",
"356 1315 CURVE SMOOTH"
);
}
);
width = 905;
}
);
unicode = 05E0;
},
{
glyphname = "samekh-hb";
lastChange = "2013-03-07 06:18:30 +0200";
layers = (
{
anchors = (
{
name = bottom;
position = "{654, -152}";
},
{
name = bottomleft;
position = "{20, 0}";
},
{
name = center;
position = "{654, 665}";
},
{
name = top;
position = "{654, 1118}";
},
{
name = topleft;
position = "{156, 1160}";
}
);
layerId = "3B25EE82-5579-4A28-8C59-D985C68457B1";
name = Bold;
paths = (
{
closed = 1;
nodes = (
"381 1315 OFFCURVE",
"99 1292 OFFCURVE",
"99 1292 CURVE",
"99 986 LINE",
"206 993 LINE",
"167 950 OFFCURVE",
"86 839 OFFCURVE",
"86 647 CURVE SMOOTH",
"86 226 OFFCURVE",
"287 -19 OFFCURVE",
"657 -19 CURVE SMOOTH",
"1004 -19 OFFCURVE",
"1222 226 OFFCURVE",
"1222 647 CURVE SMOOTH",
"1222 1070 OFFCURVE",
"1013 1315 OFFCURVE",
"654 1315 CURVE SMOOTH"
);
},
{
closed = 1;
nodes = (
"777 1014 OFFCURVE",
"829 890 OFFCURVE",
"829 647 CURVE SMOOTH",
"829 405 OFFCURVE",
"777 289 OFFCURVE",
"654 289 CURVE SMOOTH",
"530 289 OFFCURVE",
"479 405 OFFCURVE",
"479 647 CURVE SMOOTH",
"479 805 OFFCURVE",
"516 923 OFFCURVE",
"576 1010 CURVE",
"576 1010 OFFCURVE",
"609 1014 OFFCURVE",
"654 1014 CURVE SMOOTH"
);
}
);
width = 1308;
}
);
unicode = 05E1;
},
{
glyphname = "ayin-hb";
lastChange = "2013-03-07 06:18:30 +0200";
layers = (
{
anchors = (
{
name = bottom;
position = "{616, -152}";
},
{
name = bottomleft;
position = "{20, 0}";
},
{
name = center;
position = "{694, 979}";
},
{
name = top;
position = "{657, 1118}";
},
{
name = topleft;
position = "{124, 1160}";
}
);
layerId = "3B25EE82-5579-4A28-8C59-D985C68457B1";
name = Bold;
paths = (
{
closed = 1;
nodes = (
"842 1295 LINE",
"790 707 LINE SMOOTH",
"777 565 OFFCURVE",
"751 473 OFFCURVE",
"696 409 CURVE",
"631 733 LINE",
"474 1295 LINE",
"87 1295 LINE",
"361 285 LINE",
"50 238 LINE",
"50 -70 LINE",
"497 0 LINE SMOOTH",
"1126 99 OFFCURVE",
"1162 554 OFFCURVE",
"1177 725 CURVE SMOOTH",
"1228 1295 LINE"
);
}
);
width = 1314;
}
);
unicode = 05E2;
},
{
glyphname = "finalpe-hb";
lastChange = "2013-03-07 06:18:30 +0200";
layers = (
{
anchors = (
{
name = bottom;
position = "{370, 155}";
},
{
name = bottomleft;
position = "{20, 0}";
},
{
name = center;
position = "{600, 859}";
},
{
name = top;
position = "{655, 1118}";
},
{
name = topleft;
position = "{126, 1160}";
}
);
layerId = "3B25EE82-5579-4A28-8C59-D985C68457B1";
name = Bold;
paths = (
{
closed = 1;
nodes = (
"354 1315 OFFCURVE",
"43 1211 OFFCURVE",
"43 848 CURVE SMOOTH",
"43 471 OFFCURVE",
"327 419 OFFCURVE",
"481 414 CURVE SMOOTH",
"578 411 LINE",
"640 687 LINE",
"558 704 LINE SMOOTH",
"525 711 OFFCURVE",
"435 741 OFFCURVE",
"435 858 CURVE SMOOTH",
"435 885 OFFCURVE",
"443 1006 OFFCURVE",
"611 1006 CURVE SMOOTH",
"772 1006 OFFCURVE",
"786 876 OFFCURVE",
"786 648 CURVE SMOOTH",
"786 -492 LINE",
"1179 -492 LINE",
"1179 648 LINE SMOOTH",
"1179 1205 OFFCURVE",
"868 1315 OFFCURVE",
"611 1315 CURVE SMOOTH"
);
}
);
width = 1309;
}
);
unicode = 05E3;
},
{
glyphname = "pe-hb";
lastChange = "2013-03-07 06:18:30 +0200";
layers = (
{
anchors = (
{
name = bottom;
position = "{654, -152}";
},
{
name = bottomleft;
position = "{20, 0}";
},
{
name = center;
position = "{654, 838}";
},
{
name = top;
position = "{654, 1118}";
},
{
name = topleft;
position = "{166, 1160}";
}
);
layerId = "3B25EE82-5579-4A28-8C59-D985C68457B1";
name = Bold;
paths = (
{
closed = 1;
nodes = (
"397 1315 OFFCURVE",
"86 1211 OFFCURVE",
"86 848 CURVE SMOOTH",
"86 471 OFFCURVE",
"370 424 OFFCURVE",
"524 414 CURVE SMOOTH",
"621 408 LINE",
"683 687 LINE",
"601 704 LINE SMOOTH",
"568 711 OFFCURVE",
"478 741 OFFCURVE",
"478 858 CURVE SMOOTH",
"478 885 OFFCURVE",
"486 1006 OFFCURVE",
"654 1006 CURVE SMOOTH",
"822 1006 OFFCURVE",
"828 824 OFFCURVE",
"828 648 CURVE SMOOTH",
"828 474 OFFCURVE",
"822 280 OFFCURVE",
"654 280 CURVE SMOOTH",
"426 280 OFFCURVE",
"198 302 OFFCURVE",
"198 302 CURVE",
"198 9 LINE",
"198 9 OFFCURVE",
"372 -20 OFFCURVE",
"653 -20 CURVE SMOOTH",
"956 -20 OFFCURVE",
"1222 92 OFFCURVE",
"1222 648 CURVE SMOOTH",
"1222 1205 OFFCURVE",
"911 1315 OFFCURVE",
"654 1315 CURVE SMOOTH"
);
}
);
width = 1308;
}
);
unicode = 05E4;
},
{
glyphname = "finaltsadi-hb";
lastChange = "2013-03-07 06:18:30 +0200";
layers = (
{
anchors = (
{
name = bottom;
position = "{-126, 155}";
},
{
name = bottomleft;
position = "{20, 0}";
},
{
name = center;
position = "{630, 1043}";
},
{
name = top;
position = "{607, 1118}";
},
{
name = topleft;
position = "{58, 1160}";
}
);
layerId = "3B25EE82-5579-4A28-8C59-D985C68457B1";
name = Bold;
paths = (
{
closed = 1;
nodes = (
"740 1295 LINE",
"740 839 LINE SMOOTH",
"740 734 OFFCURVE",
"711 692 OFFCURVE",
"644 692 CURVE SMOOTH",
"635 692 LINE",
"418 1295 LINE",
"0 1295 LINE",
"285 582 LINE",
"285 -492 LINE",
"673 -492 LINE",
"673 418 LINE",
"704 418 LINE SMOOTH",
"1048 418 OFFCURVE",
"1127 629 OFFCURVE",
"1127 824 CURVE SMOOTH",
"1127 1295 LINE"
);
}
);
width = 1213;
}
);
unicode = 05E5;
},
{
glyphname = "tsadi-hb";
lastChange = "2013-03-07 06:18:30 +0200";
layers = (
{
anchors = (
{
name = bottom;
position = "{654, -152}";
},
{
name = bottomleft;
position = "{20, 0}";
},
{
name = center;
position = "{264, 520}";
},
{
name = top;
position = "{654, 1118}";
},
{
name = topleft;
position = "{84, 1160}";
}
);
layerId = "3B25EE82-5579-4A28-8C59-D985C68457B1";
name = Bold;
paths = (
{
closed = 1;
nodes = (
"849 1295 LINE",
"824 997 LINE SMOOTH",
"817 920 OFFCURVE",
"803 850 OFFCURVE",
"783 796 CURVE",
"473 1295 LINE",
"45 1295 LINE",
"507 586 LINE",
"744 290 LINE",
"601 299 LINE",
"75 299 LINE",
"75 0 LINE",
"1228 0 LINE",
"1228 220 LINE",
"985 512 LINE",
"1182 695 OFFCURVE",
"1201 923 OFFCURVE",
"1211 1034 CURVE SMOOTH",
"1235 1295 LINE"
);
}
);
width = 1307;
}
);
unicode = 05E6;
},
{
glyphname = "qof-hb";
lastChange = "2013-03-07 06:18:30 +0200";
layers = (
{
anchors = (
{
name = bottom;
position = "{900, -152}";
},
{
name = bottomleft;
position = "{20, 0}";
},
{
name = center;
position = "{648, 665}";
},
{
name = top;
position = "{694, 1118}";
},
{
name = topleft;
position = "{200, 1160}";
}
);
layerId = "3B25EE82-5579-4A28-8C59-D985C68457B1";
name = Bold;
paths = (
{
closed = 1;
nodes = (
"135 1295 LINE",
"135 996 LINE",
"922 996 LINE",
"744 523 LINE SMOOTH",
"690 378 OFFCURVE",
"655 154 OFFCURVE",
"655 61 CURVE SMOOTH",
"655 0 LINE",
"1040 0 LINE",
"1040 61 LINE SMOOTH",
"1040 172 OFFCURVE",
"1071 338 OFFCURVE",
"1138 515 CURVE SMOOTH",
"1348 1071 LINE",
"1348 1295 LINE"
);
},
{
closed = 1;
nodes = (
"135 780 LINE",
"135 -492 LINE",
"523 -492 LINE",
"523 780 LINE"
);
}
);
width = 1388;
}
);
unicode = 05E7;
},
{
glyphname = "resh-hb";
lastChange = "2013-03-07 06:18:30 +0200";
layers = (
{
anchors = (
{
name = bottom;
position = "{792, -152}";
},
{
name = bottomleft;
position = "{20, 0}";
},
{
name = center;
position = "{360, 665}";
},
{
name = top;
position = "{563, 1118}";
},
{
name = topleft;
position = "{108, 1160}";
}
);
layerId = "3B25EE82-5579-4A28-8C59-D985C68457B1";
name = Bold;
paths = (
{
closed = 1;
nodes = (
"289 1315 OFFCURVE",
"148 1304 OFFCURVE",
"51 1294 CURVE",
"51 993 LINE",
"157 1004 OFFCURVE",
"303 1015 OFFCURVE",
"411 1015 CURVE SMOOTH",
"523 1015 OFFCURVE",
"607 968 OFFCURVE",
"607 822 CURVE SMOOTH",
"607 0 LINE",
"995 0 LINE",
"995 822 LINE SMOOTH",
"995 1119 OFFCURVE",
"926 1315 OFFCURVE",
"449 1315 CURVE SMOOTH"
);
}
);
width = 1126;
}
);
unicode = 05E8;
},
{
glyphname = "shin-hb";
lastChange = "2013-03-07 06:18:30 +0200";
layers = (
{
anchors = (
{
name = bottom;
position = "{712, -152}";
},
{
name = bottomleft;
position = "{20, 0}";
},
{
name = center;
position = "{906, 435}";
},
{
name = top;
position = "{808, 1160}";
},
{
name = topleft;
position = "{126, 1160}";
},
{
name = topright;
position = "{1560, 1160}";
}
);
layerId = "3B25EE82-5579-4A28-8C59-D985C68457B1";
name = Bold;
paths = (
{
closed = 1;
nodes = (
"1544 1295 OFFCURVE",
"1167 1295 OFFCURVE",
"1167 1295 CURVE",
"1117 713 LINE SMOOTH",
"1090 406 OFFCURVE",
"961 299 OFFCURVE",
"808 299 CURVE SMOOTH",
"548 299 LINE SMOOTH",
"548 299 OFFCURVE",
"536 417 OFFCURVE",
"536 417 CURVE",
"552 417 LINE SMOOTH",
"658 417 OFFCURVE",
"950 441 OFFCURVE",
"981 834 CURVE SMOOTH",
"1020 1295 LINE",
"1020 1295 OFFCURVE",
"646 1295 OFFCURVE",
"646 1295 CURVE",
"606 829 LINE SMOOTH",
"594 688 OFFCURVE",
"513 693 OFFCURVE",
"513 693 CURVE SMOOTH",
"513 693 OFFCURVE",
"463 1295 OFFCURVE",
"463 1295 CURVE SMOOTH",
"463 1295 OFFCURVE",
"86 1295 OFFCURVE",
"86 1295 CURVE",
"195 0 LINE",
"763 0 LINE SMOOTH",
"1117 0 OFFCURVE",
"1438 118 OFFCURVE",
"1491 704 CURVE SMOOTH",
"1544 1295 LINE"
);
}
);
width = 1616;
}
);
unicode = 05E9;
},
{
glyphname = "tav-hb";
lastChange = "2013-03-07 06:18:30 +0200";
layers = (
{
anchors = (
{
name = bottom;
position = "{780, -152}";
},
{
name = bottomleft;
position = "{20, 0}";
},
{
name = center;
position = "{780, 655}";
},
{
name = top;
position = "{719, 1118}";
},
{
name = topleft;
position = "{168, 1160}";
}
);
layerId = "3B25EE82-5579-4A28-8C59-D985C68457B1";
name = Bold;
paths = (
{
closed = 1;
nodes = (
"460 1314 OFFCURVE",
"126 1277 OFFCURVE",
"126 1277 CURVE",
"126 979 LINE",
"126 979 OFFCURVE",
"190 986 OFFCURVE",
"264 990 CURVE",
"264 395 LINE SMOOTH",
"264 318 OFFCURVE",
"243 288 OFFCURVE",
"187 288 CURVE SMOOTH",
"125 288 OFFCURVE",
"50 302 OFFCURVE",
"50 302 CURVE",
"50 23 LINE",
"50 23 OFFCURVE",
"133 -19 OFFCURVE",
"233 -19 CURVE SMOOTH",
"574 -19 OFFCURVE",
"652 162 OFFCURVE",
"652 395 CURVE SMOOTH",
"652 1013 LINE",
"693 1015 OFFCURVE",
"687 1014 OFFCURVE",
"722 1014 CURVE SMOOTH",
"834 1014 OFFCURVE",
"918 967 OFFCURVE",
"918 821 CURVE SMOOTH",
"918 0 LINE",
"1307 0 LINE",
"1307 838 LINE SMOOTH",
"1307 1135 OFFCURVE",
"1237 1314 OFFCURVE",
"760 1314 CURVE SMOOTH"
);
}
);
width = 1437;
}
);
unicode = 05EA;
},
{
glyphname = "shindageshshindot-hb";
lastChange = "2013-03-07 06:18:30 +0200";
layers = (
{
components = (
{
name = "shin-hb";
transform = "{1, 0, 0, 1, 0, 0}";
},
{
name = "shindot-hb";
transform = "{1, 0, 0, 1, 883, -21}";
}
);
layerId = "3B25EE82-5579-4A28-8C59-D985C68457B1";
name = Bold;
paths = (
{
closed = 1;
nodes = (
"875 499 OFFCURVE",
"851 476 OFFCURVE",
"851 440 CURVE SMOOTH",
"851 403 OFFCURVE",
"874 381 OFFCURVE",
"915 381 CURVE SMOOTH",
"955 381 OFFCURVE",
"981 404 OFFCURVE",
"981 440 CURVE SMOOTH",
"981 475 OFFCURVE",
"955 499 OFFCURVE",
"915 499 CURVE SMOOTH"
);
}
);
width = 1616;
}
);
leftMetricsKey = "shin-hb";
rightMetricsKey = "shin-hb";
unicode = FB2C;
},
{
glyphname = "shindageshsindot-hb";
lastChange = "2013-03-07 06:18:30 +0200";
layers = (
{
components = (
{
name = "shin-hb";
transform = "{1, 0, 0, 1, 0, 0}";
},
{
name = "sindot-hb";
transform = "{1, 0, 0, 1, -466, -30}";
}
);
layerId = "3B25EE82-5579-4A28-8C59-D985C68457B1";
name = Bold;
paths = (
{
closed = 1;
nodes = (
"875 499 OFFCURVE",
"851 476 OFFCURVE",
"851 440 CURVE SMOOTH",
"851 403 OFFCURVE",
"874 381 OFFCURVE",
"915 381 CURVE SMOOTH",
"955 381 OFFCURVE",
"981 404 OFFCURVE",
"981 440 CURVE SMOOTH",
"981 475 OFFCURVE",
"955 499 OFFCURVE",
"915 499 CURVE SMOOTH"
);
}
);
width = 1616;
}
);
leftMetricsKey = "shin-hb";
rightMetricsKey = "shin-hb";
unicode = FB2D;
},
{
glyphname = "shindagesh-hb";
lastChange = "2013-03-07 06:18:30 +0200";
layers = (
{
components = (
{
name = "shin-hb";
transform = "{1, 0, 0, 1, 0, 0}";
}
);
layerId = "3B25EE82-5579-4A28-8C59-D985C68457B1";
name = Bold;
paths = (
{
closed = 1;
nodes = (
"875 499 OFFCURVE",
"851 476 OFFCURVE",
"851 440 CURVE SMOOTH",
"851 403 OFFCURVE",
"874 381 OFFCURVE",
"915 381 CURVE SMOOTH",
"955 381 OFFCURVE",
"981 404 OFFCURVE",
"981 440 CURVE SMOOTH",
"981 475 OFFCURVE",
"955 499 OFFCURVE",
"915 499 CURVE SMOOTH"
);
}
);
width = 1616;
}
);
leftMetricsKey = "shin-hb";
rightMetricsKey = "shin-hb";
unicode = FB49;
},
{
glyphname = zero;
lastChange = "2013-03-07 06:18:30 +0200";
layers = (
{
layerId = "3B25EE82-5579-4A28-8C59-D985C68457B1";
name = Bold;
paths = (
{
closed = 1;
nodes = (
"421 1483 OFFCURVE",
"289 1422 OFFCURVE",
"202 1301 CURVE SMOOTH",
"115 1180 OFFCURVE",
"72 988 OFFCURVE",
"72 729 CURVE SMOOTH",
"72 233 OFFCURVE",
"251 -20 OFFCURVE",
"600 -20 CURVE SMOOTH",
"779 -20 OFFCURVE",
"911 40 OFFCURVE",
"997 160 CURVE SMOOTH",
"1085 281 OFFCURVE",
"1128 470 OFFCURVE",
"1128 729 CURVE SMOOTH",
"1128 1229 OFFCURVE",
"948 1483 OFFCURVE",
"600 1483 CURVE SMOOTH"
);
},
{
closed = 1;
nodes = (
"649 1167 OFFCURVE",
"683 1134 OFFCURVE",
"704 1069 CURVE SMOOTH",
"725 1004 OFFCURVE",
"735 891 OFFCURVE",
"735 729 CURVE SMOOTH",
"735 568 OFFCURVE",
"725 455 OFFCURVE",
"704 391 CURVE SMOOTH",
"684 327 OFFCURVE",
"649 295 OFFCURVE",
"600 295 CURVE SMOOTH",
"551 295 OFFCURVE",
"517 326 OFFCURVE",
"496 388 CURVE SMOOTH",
"475 450 OFFCURVE",
"465 564 OFFCURVE",
"465 729 CURVE SMOOTH",
"465 896 OFFCURVE",
"475 1010 OFFCURVE",
"496 1073 CURVE SMOOTH",
"517 1136 OFFCURVE",
"551 1167 OFFCURVE",
"600 1167 CURVE SMOOTH"
);
}
);
width = 1200;
}
);
unicode = 0030;
},
{
glyphname = one;
lastChange = "2013-03-07 06:18:30 +0200";
layers = (
{
layerId = "3B25EE82-5579-4A28-8C59-D985C68457B1";
name = Bold;
paths = (
{
closed = 1;
nodes = (
"586 1462 LINE",
"84 1053 LINE",
"289 801 LINE",
"455 938 LINE SMOOTH",
"492 970 OFFCURVE",
"522 1002 OFFCURVE",
"547 1032 CURVE",
"543 954 OFFCURVE",
"541 868 OFFCURVE",
"541 774 CURVE SMOOTH",
"541 0 LINE",
"942 0 LINE",
"942 1462 LINE"
);
}
);
width = 1200;
}
);
unicode = 0031;
},
{
glyphname = two;
lastChange = "2013-03-07 06:18:30 +0200";
layers = (
{
layerId = "3B25EE82-5579-4A28-8C59-D985C68457B1";
name = Bold;
paths = (
{
closed = 1;
nodes = (
"455 1483 OFFCURVE",
"338 1452 OFFCURVE",
"235 1393 CURVE SMOOTH",
"184 1364 OFFCURVE",
"120 1316 OFFCURVE",
"45 1249 CURVE",
"262 994 LINE",
"381 1098 OFFCURVE",
"469 1151 OFFCURVE",
"561 1151 CURVE SMOOTH",
"650 1151 OFFCURVE",
"702 1104 OFFCURVE",
"702 1028 CURVE SMOOTH",
"702 967 OFFCURVE",
"681 918 OFFCURVE",
"618 839 CURVE SMOOTH",
"587 800 OFFCURVE",
"520 728 OFFCURVE",
"418 621 CURVE SMOOTH",
"61 260 LINE",
"61 0 LINE",
"1122 0 LINE",
"1122 326 LINE",
"569 326 LINE",
"569 336 LINE",
"731 481 OFFCURVE",
"837 580 OFFCURVE",
"886 632 CURVE SMOOTH",
"936 684 OFFCURVE",
"975 733 OFFCURVE",
"1006 780 CURVE SMOOTH",
"1066 875 OFFCURVE",
"1094 967 OFFCURVE",
"1094 1083 CURVE SMOOTH",
"1099 1314 OFFCURVE",
"889 1488 OFFCURVE",
"606 1483 CURVE SMOOTH"
);
}
);
width = 1200;
}
);
unicode = 0032;
},
{
glyphname = three;
lastChange = "2013-03-07 06:18:30 +0200";
layers = (
{
layerId = "3B25EE82-5579-4A28-8C59-D985C68457B1";
name = Bold;
paths = (
{
closed = 1;
nodes = (
"483 1483 OFFCURVE",
"390 1472 OFFCURVE",
"309 1449 CURVE SMOOTH",
"228 1426 OFFCURVE",
"149 1388 OFFCURVE",
"72 1335 CURVE",
"236 1071 LINE",
"336 1134 OFFCURVE",
"433 1165 OFFCURVE",
"526 1165 CURVE SMOOTH",
"626 1165 OFFCURVE",
"690 1128 OFFCURVE",
"690 1051 CURVE SMOOTH",
"690 948 OFFCURVE",
"590 897 OFFCURVE",
"389 897 CURVE SMOOTH",
"297 897 LINE",
"297 600 LINE",
"387 600 LINE SMOOTH",
"611 596 OFFCURVE",
"698 560 OFFCURVE",
"698 442 CURVE SMOOTH",
"698 338 OFFCURVE",
"622 291 OFFCURVE",
"449 291 CURVE SMOOTH",
"337 291 OFFCURVE",
"198 322 OFFCURVE",
"70 387 CURVE",
"70 59 LINE",
"148 29 OFFCURVE",
"220 8 OFFCURVE",
"287 -3 CURVE SMOOTH",
"354 -14 OFFCURVE",
"427 -20 OFFCURVE",
"506 -20 CURVE SMOOTH",
"697 -20 OFFCURVE",
"847 19 OFFCURVE",
"954 96 CURVE SMOOTH",
"1062 175 OFFCURVE",
"1116 282 OFFCURVE",
"1116 418 CURVE SMOOTH",
"1116 618 OFFCURVE",
"993 733 OFFCURVE",
"750 764 CURVE",
"750 770 LINE",
"959 829 OFFCURVE",
"1073 964 OFFCURVE",
"1073 1145 CURVE SMOOTH",
"1073 1250 OFFCURVE",
"1030 1333 OFFCURVE",
"944 1393 CURVE SMOOTH",
"858 1453 OFFCURVE",
"739 1483 OFFCURVE",
"588 1483 CURVE SMOOTH"
);
}
);
width = 1200;
}
);
unicode = 0033;
},
{
glyphname = four;
lastChange = "2013-03-07 06:18:30 +0200";
layers = (
{
layerId = "3B25EE82-5579-4A28-8C59-D985C68457B1";
name = Bold;
paths = (
{
closed = 1;
nodes = (
"643 1462 LINE",
"35 573 LINE",
"35 283 LINE",
"618 283 LINE",
"618 0 LINE",
"1008 0 LINE",
"1008 283 LINE",
"1169 283 LINE",
"1169 578 LINE",
"1008 578 LINE",
"1008 1462 LINE"
);
},
{
closed = 1;
nodes = (
"626 960 OFFCURVE",
"624 932 OFFCURVE",
"621 877 CURVE SMOOTH",
"619 823 OFFCURVE",
"618 780 OFFCURVE",
"618 748 CURVE SMOOTH",
"618 578 LINE",
"377 578 LINE",
"539 819 LINE SMOOTH",
"568 864 OFFCURVE",
"593 912 OFFCURVE",
"616 963 CURVE",
"627 963 LINE"
);
}
);
width = 1200;
}
);
unicode = 0034;
},
{
glyphname = five;
lastChange = "2013-03-07 06:18:30 +0200";
layers = (
{
layerId = "3B25EE82-5579-4A28-8C59-D985C68457B1";
name = Bold;
paths = (
{
closed = 1;
nodes = (
"174 1462 LINE",
"119 690 LINE",
"264 618 LINE",
"336 641 OFFCURVE",
"403 653 OFFCURVE",
"465 653 CURVE SMOOTH",
"628 653 OFFCURVE",
"707 587 OFFCURVE",
"707 475 CURVE SMOOTH",
"707 354 OFFCURVE",
"626 291 OFFCURVE",
"479 291 CURVE SMOOTH",
"426 291 OFFCURVE",
"363 300 OFFCURVE",
"290 317 CURVE SMOOTH",
"217 334 OFFCURVE",
"152 356 OFFCURVE",
"93 383 CURVE",
"93 59 LINE",
"202 6 OFFCURVE",
"341 -20 OFFCURVE",
"512 -20 CURVE SMOOTH",
"911 -20 OFFCURVE",
"1106 160 OFFCURVE",
"1106 487 CURVE SMOOTH",
"1111 766 OFFCURVE",
"916 961 OFFCURVE",
"664 958 CURVE SMOOTH",
"645 958 OFFCURVE",
"625 957 OFFCURVE",
"603 956 CURVE SMOOTH",
"581 955 OFFCURVE",
"544 950 OFFCURVE",
"492 940 CURVE",
"510 1133 LINE",
"1008 1133 LINE",
"1008 1462 LINE"
);
}
);
width = 1200;
}
);
unicode = 0035;
},
{
glyphname = six;
lastChange = "2013-03-07 06:18:30 +0200";
layers = (
{
layerId = "3B25EE82-5579-4A28-8C59-D985C68457B1";
name = Bold;
paths = (
{
closed = 1;
nodes = (
"337 1479 OFFCURVE",
"70 1230 OFFCURVE",
"70 618 CURVE SMOOTH",
"70 417 OFFCURVE",
"119 260 OFFCURVE",
"216 148 CURVE SMOOTH",
"313 36 OFFCURVE",
"448 -20 OFFCURVE",
"621 -20 CURVE SMOOTH",
"784 -20 OFFCURVE",
"910 26 OFFCURVE",
"1001 119 CURVE SMOOTH",
"1092 212 OFFCURVE",
"1137 339 OFFCURVE",
"1137 500 CURVE SMOOTH",
"1137 649 OFFCURVE",
"1101 766 OFFCURVE",
"1029 849 CURVE SMOOTH",
"958 933 OFFCURVE",
"857 974 OFFCURVE",
"727 974 CURVE SMOOTH",
"594 974 OFFCURVE",
"498 918 OFFCURVE",
"438 805 CURVE",
"426 805 LINE",
"432 936 OFFCURVE",
"467 1031 OFFCURVE",
"532 1089 CURVE SMOOTH",
"597 1147 OFFCURVE",
"695 1176 OFFCURVE",
"827 1176 CURVE SMOOTH",
"905 1176 OFFCURVE",
"976 1170 OFFCURVE",
"1044 1157 CURVE",
"1044 1466 LINE",
"965 1477 OFFCURVE",
"895 1483 OFFCURVE",
"836 1483 CURVE SMOOTH"
);
},
{
closed = 1;
nodes = (
"708 670 OFFCURVE",
"754 611 OFFCURVE",
"754 492 CURVE SMOOTH",
"754 353 OFFCURVE",
"696 293 OFFCURVE",
"612 293 CURVE SMOOTH",
"567 293 OFFCURVE",
"531 313 OFFCURVE",
"504 354 CURVE SMOOTH",
"477 395 OFFCURVE",
"463 448 OFFCURVE",
"463 512 CURVE SMOOTH",
"463 556 OFFCURVE",
"477 593 OFFCURVE",
"505 624 CURVE SMOOTH",
"534 655 OFFCURVE",
"571 670 OFFCURVE",
"616 670 CURVE SMOOTH"
);
}
);
width = 1200;
}
);
unicode = 0036;
},
{
glyphname = seven;
lastChange = "2013-03-07 06:18:30 +0200";
layers = (
{
layerId = "3B25EE82-5579-4A28-8C59-D985C68457B1";
name = Bold;
paths = (
{
closed = 1;
nodes = (
"78 1460 LINE",
"78 1133 LINE",
"711 1133 LINE",
"209 0 LINE",
"618 0 LINE",
"1133 1227 LINE",
"1133 1460 LINE"
);
}
);
width = 1200;
}
);
unicode = 0037;
},
{
glyphname = eight;
lastChange = "2013-03-07 06:18:30 +0200";
layers = (
{
layerId = "3B25EE82-5579-4A28-8C59-D985C68457B1";
name = Bold;
paths = (
{
closed = 1;
nodes = (
"450 1483 OFFCURVE",
"329 1452 OFFCURVE",
"242 1389 CURVE SMOOTH",
"155 1327 OFFCURVE",
"111 1240 OFFCURVE",
"111 1128 CURVE SMOOTH",
"111 984 OFFCURVE",
"179 868 OFFCURVE",
"334 764 CURVE",
"238 715 OFFCURVE",
"170 661 OFFCURVE",
"129 601 CURVE SMOOTH",
"88 542 OFFCURVE",
"68 470 OFFCURVE",
"68 385 CURVE SMOOTH",
"68 124 OFFCURVE",
"256 -20 OFFCURVE",
"600 -20 CURVE SMOOTH",
"769 -20 OFFCURVE",
"900 16 OFFCURVE",
"993 87 CURVE SMOOTH",
"1088 158 OFFCURVE",
"1135 259 OFFCURVE",
"1135 389 CURVE SMOOTH",
"1135 460 OFFCURVE",
"1113 525 OFFCURVE",
"1068 586 CURVE SMOOTH",
"1024 647 OFFCURVE",
"948 709 OFFCURVE",
"840 770 CURVE",
"1015 857 OFFCURVE",
"1092 970 OFFCURVE",
"1092 1126 CURVE SMOOTH",
"1092 1240 OFFCURVE",
"1049 1328 OFFCURVE",
"963 1390 CURVE SMOOTH",
"878 1452 OFFCURVE",
"758 1483 OFFCURVE",
"604 1483 CURVE SMOOTH"
);
},
{
closed = 1;
nodes = (
"662 557 OFFCURVE",
"708 521 OFFCURVE",
"733 489 CURVE SMOOTH",
"759 458 OFFCURVE",
"772 426 OFFCURVE",
"772 393 CURVE SMOOTH",
"772 307 OFFCURVE",
"713 264 OFFCURVE",
"596 264 CURVE SMOOTH",
"492 264 OFFCURVE",
"430 318 OFFCURVE",
"430 401 CURVE SMOOTH",
"430 472 OFFCURVE",
"477 533 OFFCURVE",
"596 596 CURVE"
);
},
{
closed = 1;
nodes = (
"667 1198 OFFCURVE",
"721 1156 OFFCURVE",
"721 1092 CURVE SMOOTH",
"721 1063 OFFCURVE",
"712 1038 OFFCURVE",
"695 1015 CURVE SMOOTH",
"678 991 OFFCURVE",
"645 967 OFFCURVE",
"598 940 CURVE",
"520 983 OFFCURVE",
"481 1035 OFFCURVE",
"481 1092 CURVE SMOOTH",
"481 1155 OFFCURVE",
"534 1198 OFFCURVE",
"602 1198 CURVE SMOOTH"
);
}
);
width = 1200;
}
);
unicode = 0038;
},
{
glyphname = nine;
lastChange = "2013-03-07 06:18:30 +0200";
layers = (
{
layerId = "3B25EE82-5579-4A28-8C59-D985C68457B1";
name = Bold;
paths = (
{
closed = 1;
nodes = (
"410 1477 OFFCURVE",
"284 1431 OFFCURVE",
"191 1339 CURVE SMOOTH",
"98 1247 OFFCURVE",
"53 1120 OFFCURVE",
"53 958 CURVE SMOOTH",
"53 809 OFFCURVE",
"89 693 OFFCURVE",
"160 608 CURVE SMOOTH",
"231 523 OFFCURVE",
"330 481 OFFCURVE",
"457 481 CURVE SMOOTH",
"566 481 OFFCURVE",
"636 504 OFFCURVE",
"687 547 CURVE SMOOTH",
"712 568 OFFCURVE",
"738 603 OFFCURVE",
"764 651 CURVE",
"776 651 LINE",
"763 399 OFFCURVE",
"607 287 OFFCURVE",
"324 287 CURVE SMOOTH",
"267 287 OFFCURVE",
"209 292 OFFCURVE",
"152 303 CURVE",
"152 -9 LINE",
"199 -17 OFFCURVE",
"267 -20 OFFCURVE",
"356 -20 CURVE SMOOTH",
"627 -20 OFFCURVE",
"825 44 OFFCURVE",
"948 172 CURVE SMOOTH",
"1071 300 OFFCURVE",
"1133 507 OFFCURVE",
"1133 793 CURVE SMOOTH",
"1133 1012 OFFCURVE",
"1084 1180 OFFCURVE",
"985 1299 CURVE SMOOTH",
"888 1418 OFFCURVE",
"750 1477 OFFCURVE",
"571 1477 CURVE SMOOTH"
);
},
{
closed = 1;
nodes = (
"627 1161 OFFCURVE",
"665 1140 OFFCURVE",
"694 1097 CURVE SMOOTH",
"724 1054 OFFCURVE",
"739 1003 OFFCURVE",
"739 944 CURVE SMOOTH",
"739 900 OFFCURVE",
"723 862 OFFCURVE",
"691 831 CURVE SMOOTH",
"659 800 OFFCURVE",
"621 784 OFFCURVE",
"578 784 CURVE SMOOTH",
"482 784 OFFCURVE",
"436 854 OFFCURVE",
"436 963 CURVE SMOOTH",
"436 1102 OFFCURVE",
"495 1161 OFFCURVE",
"582 1161 CURVE SMOOTH"
);
}
);
width = 1200;
}
);
unicode = 0039;
},
{
glyphname = onehalf;
lastChange = "2013-03-07 06:18:30 +0200";
layers = (
{
layerId = "3B25EE82-5579-4A28-8C59-D985C68457B1";
name = Bold;
paths = (
{
closed = 1;
nodes = (
"1134 1462 LINE",
"381 0 LINE",
"682 0 LINE",
"1436 1462 LINE"
);
},
{
closed = 1;
nodes = (
"328 1462 LINE",
"-12 1188 LINE",
"134 1018 LINE",
"192 1067 OFFCURVE",
"228 1100 OFFCURVE",
"243 1116 CURVE SMOOTH",
"258 1132 OFFCURVE",
"269 1146 OFFCURVE",
"275 1159 CURVE",
"273 1148 OFFCURVE",
"271 1115 OFFCURVE",
"268 1060 CURVE SMOOTH",
"266 1005 OFFCURVE",
"265 965 OFFCURVE",
"265 942 CURVE SMOOTH",
"265 586 LINE",
"547 586 LINE",
"547 1462 LINE"
);
},
{
closed = 1;
nodes = (
"1356 900 OFFCURVE",
"1247 862 OFFCURVE",
"1140 765 CURVE",
"1282 599 LINE",
"1343 658 OFFCURVE",
"1400 687 OFFCURVE",
"1454 687 CURVE SMOOTH",
"1497 687 OFFCURVE",
"1519 668 OFFCURVE",
"1519 629 CURVE SMOOTH",
"1519 606 OFFCURVE",
"1508 580 OFFCURVE",
"1486 550 CURVE SMOOTH",
"1465 520 OFFCURVE",
"1426 477 OFFCURVE",
"1370 421 CURVE SMOOTH",
"1155 208 LINE",
"1155 0 LINE",
"1829 0 LINE",
"1829 226 LINE",
"1482 226 LINE",
"1583 310 OFFCURVE",
"1649 368 OFFCURVE",
"1680 399 CURVE SMOOTH",
"1711 431 OFFCURVE",
"1736 461 OFFCURVE",
"1754 490 CURVE SMOOTH",
"1791 549 OFFCURVE",
"1808 601 OFFCURVE",
"1808 662 CURVE SMOOTH",
"1808 811 OFFCURVE",
"1700 900 OFFCURVE",
"1511 900 CURVE SMOOTH"
);
}
);
width = 1921;
}
);
unicode = 00BD;
},
{
glyphname = onequarter;
lastChange = "2013-03-07 06:18:30 +0200";
layers = (
{
layerId = "3B25EE82-5579-4A28-8C59-D985C68457B1";
name = Bold;
paths = (
{
closed = 1;
nodes = (
"1110 1462 LINE",
"357 0 LINE",
"658 0 LINE",
"1412 1462 LINE"
);
},
{
closed = 1;
nodes = (
"328 1462 LINE",
"-12 1188 LINE",
"134 1018 LINE",
"192 1067 OFFCURVE",
"228 1100 OFFCURVE",
"243 1116 CURVE SMOOTH",
"258 1132 OFFCURVE",
"269 1146 OFFCURVE",
"275 1159 CURVE",
"273 1148 OFFCURVE",
"271 1115 OFFCURVE",
"268 1060 CURVE SMOOTH",
"266 1005 OFFCURVE",
"265 965 OFFCURVE",
"265 942 CURVE SMOOTH",
"265 586 LINE",
"547 586 LINE",
"547 1462 LINE"
);
},
{
closed = 1;
nodes = (
"1400 598 OFFCURVE",
"1398 553 OFFCURVE",
"1398 507 CURVE SMOOTH",
"1398 341 LINE",
"1241 341 LINE",
"1343 509 LINE",
"1358 531 OFFCURVE",
"1378 575 OFFCURVE",
"1405 642 CURVE"
);
},
{
closed = 1;
nodes = (
"1378 883 LINE",
"1028 328 LINE",
"1028 140 LINE",
"1398 140 LINE",
"1398 0 LINE",
"1673 0 LINE",
"1673 140 LINE",
"1798 140 LINE",
"1798 341 LINE",
"1673 341 LINE",
"1673 883 LINE"
);
}
);
width = 1919;
}
);
unicode = 00BC;
},
{
glyphname = threequarters;
lastChange = "2013-03-07 06:18:30 +0200";
layers = (
{
layerId = "3B25EE82-5579-4A28-8C59-D985C68457B1";
name = Bold;
paths = (
{
closed = 1;
nodes = (
"1218 1462 LINE",
"465 0 LINE",
"766 0 LINE",
"1520 1462 LINE"
);
},
{
closed = 1;
nodes = (
"297 1481 OFFCURVE",
"182 1443 OFFCURVE",
"83 1366 CURVE",
"200 1196 LINE",
"271 1249 OFFCURVE",
"324 1270 OFFCURVE",
"391 1270 CURVE SMOOTH",
"458 1270 OFFCURVE",
"483 1235 OFFCURVE",
"483 1202 CURVE SMOOTH",
"483 1147 OFFCURVE",
"439 1124 OFFCURVE",
"344 1124 CURVE SMOOTH",
"264 1124 LINE",
"264 930 LINE",
"368 930 LINE SMOOTH",
"461 930 OFFCURVE",
"503 913 OFFCURVE",
"503 858 CURVE SMOOTH",
"503 813 OFFCURVE",
"464 791 OFFCURVE",
"387 791 CURVE SMOOTH",
"267 791 OFFCURVE",
"168 818 OFFCURVE",
"90 872 CURVE",
"90 639 LINE",
"173 592 OFFCURVE",
"276 569 OFFCURVE",
"399 569 CURVE SMOOTH",
"638 569 OFFCURVE",
"774 663 OFFCURVE",
"774 823 CURVE SMOOTH",
"774 939 OFFCURVE",
"712 1006 OFFCURVE",
"583 1038 CURVE",
"583 1047 LINE",
"700 1090 OFFCURVE",
"745 1162 OFFCURVE",
"745 1266 CURVE SMOOTH",
"745 1333 OFFCURVE",
"716 1385 OFFCURVE",
"658 1423 CURVE SMOOTH",
"601 1462 OFFCURVE",
"523 1481 OFFCURVE",
"426 1481 CURVE SMOOTH"
);
},
{
closed = 1;
nodes = (
"1472 598 OFFCURVE",
"1470 553 OFFCURVE",
"1470 507 CURVE SMOOTH",
"1470 341 LINE",
"1313 341 LINE",
"1415 509 LINE",
"1430 531 OFFCURVE",
"1450 575 OFFCURVE",
"1477 642 CURVE"
);
},
{
closed = 1;
nodes = (
"1450 883 LINE",
"1100 328 LINE",
"1100 140 LINE",
"1470 140 LINE",
"1470 0 LINE",
"1745 0 LINE",
"1745 140 LINE",
"1870 140 LINE",
"1870 341 LINE",
"1745 341 LINE",
"1745 883 LINE"
);
}
);
width = 1921;
}
);
unicode = 00BE;
},
{
glyphname = onesuperior;
lastChange = "2013-03-07 06:18:30 +0200";
layers = (
{
layerId = "3B25EE82-5579-4A28-8C59-D985C68457B1";
name = Bold;
paths = (
{
closed = 1;
nodes = (
"397 1462 LINE",
"57 1188 LINE",
"203 1018 LINE",
"261 1067 OFFCURVE",
"297 1100 OFFCURVE",
"312 1116 CURVE SMOOTH",
"327 1132 OFFCURVE",
"338 1146 OFFCURVE",
"344 1159 CURVE",
"342 1148 OFFCURVE",
"340 1115 OFFCURVE",
"337 1060 CURVE SMOOTH",
"335 1005 OFFCURVE",
"334 965 OFFCURVE",
"334 942 CURVE SMOOTH",
"334 586 LINE",
"616 586 LINE",
"616 1462 LINE"
);
}
);
width = 817;
}
);
unicode = 00B9;
},
{
glyphname = twosuperior;
lastChange = "2013-03-07 06:18:30 +0200";
layers = (
{
layerId = "3B25EE82-5579-4A28-8C59-D985C68457B1";
name = Bold;
paths = (
{
closed = 1;
nodes = (
"277 1485 OFFCURVE",
"168 1447 OFFCURVE",
"61 1350 CURVE",
"203 1184 LINE",
"264 1243 OFFCURVE",
"321 1272 OFFCURVE",
"375 1272 CURVE SMOOTH",
"418 1272 OFFCURVE",
"440 1253 OFFCURVE",
"440 1214 CURVE SMOOTH",
"440 1191 OFFCURVE",
"429 1165 OFFCURVE",
"407 1135 CURVE SMOOTH",
"386 1105 OFFCURVE",
"347 1062 OFFCURVE",
"291 1006 CURVE SMOOTH",
"76 793 LINE",
"76 586 LINE",
"750 586 LINE",
"750 811 LINE",
"403 811 LINE",
"504 895 OFFCURVE",
"570 953 OFFCURVE",
"601 983 CURVE",
"632 1016 OFFCURVE",
"657 1046 OFFCURVE",
"675 1075 CURVE SMOOTH",
"712 1134 OFFCURVE",
"729 1186 OFFCURVE",
"729 1247 CURVE SMOOTH",
"729 1396 OFFCURVE",
"621 1485 OFFCURVE",
"432 1485 CURVE SMOOTH"
);
}
);
width = 817;
}
);
unicode = 00B2;
},
{
glyphname = threesuperior;
lastChange = "2013-03-07 06:18:30 +0200";
layers = (
{
layerId = "3B25EE82-5579-4A28-8C59-D985C68457B1";
name = Bold;
paths = (
{
closed = 1;
nodes = (
"277 1481 OFFCURVE",
"162 1443 OFFCURVE",
"63 1366 CURVE",
"180 1196 LINE",
"251 1249 OFFCURVE",
"304 1270 OFFCURVE",
"371 1270 CURVE SMOOTH",
"438 1270 OFFCURVE",
"463 1235 OFFCURVE",
"463 1202 CURVE SMOOTH",
"463 1147 OFFCURVE",
"419 1124 OFFCURVE",
"324 1124 CURVE SMOOTH",
"244 1124 LINE",
"244 930 LINE",
"348 930 LINE SMOOTH",
"441 930 OFFCURVE",
"483 913 OFFCURVE",
"483 858 CURVE SMOOTH",
"483 813 OFFCURVE",
"444 791 OFFCURVE",
"367 791 CURVE SMOOTH",
"247 791 OFFCURVE",
"148 818 OFFCURVE",
"70 872 CURVE",
"70 639 LINE",
"153 592 OFFCURVE",
"256 569 OFFCURVE",
"379 569 CURVE SMOOTH",
"618 569 OFFCURVE",
"754 663 OFFCURVE",
"754 823 CURVE SMOOTH",
"754 939 OFFCURVE",
"692 1006 OFFCURVE",
"563 1038 CURVE",
"563 1047 LINE",
"680 1090 OFFCURVE",
"725 1162 OFFCURVE",
"725 1266 CURVE SMOOTH",
"725 1333 OFFCURVE",
"696 1385 OFFCURVE",
"638 1423 CURVE SMOOTH",
"581 1462 OFFCURVE",
"503 1481 OFFCURVE",
"406 1481 CURVE SMOOTH"
);
}
);
width = 817;
}
);
unicode = 00B3;
},
{
glyphname = asterisk;
lastChange = "2013-03-07 06:18:30 +0200";
layers = (
{
layerId = "3B25EE82-5579-4A28-8C59-D985C68457B1";
name = Bold;
paths = (
{
closed = 1;
nodes = (
"399 1556 LINE",
"438 1204 LINE",
"90 1305 LINE",
"45 1014 LINE",
"358 988 LINE",
"152 711 LINE",
"424 575 LINE",
"547 856 LINE",
"690 573 LINE",
"950 711 LINE",
"743 988 LINE",
"1057 1010 LINE",
"1020 1305 LINE",
"664 1204 LINE",
"702 1556 LINE"
);
}
);
width = 1100;
}
);
unicode = 002A;
},
{
glyphname = backslash;
lastChange = "2013-03-07 06:18:30 +0200";
layers = (
{
layerId = "3B25EE82-5579-4A28-8C59-D985C68457B1";
name = Bold;
paths = (
{
closed = 1;
nodes = (
"6 1483 LINE",
"551 -20 LINE",
"897 -20 LINE",
"352 1483 LINE"
);
}
);
width = 905;
}
);
unicode = 005C;
},
{
glyphname = bullet;
lastChange = "2013-03-07 06:18:30 +0200";
layers = (
{
layerId = "3B25EE82-5579-4A28-8C59-D985C68457B1";
name = Bold;
paths = (
{
closed = 1;
nodes = (
"190 1108 OFFCURVE",
"74 979 OFFCURVE",
"74 748 CURVE SMOOTH",
"74 515 OFFCURVE",
"194 387 OFFCURVE",
"401 387 CURVE SMOOTH",
"606 387 OFFCURVE",
"729 519 OFFCURVE",
"729 748 CURVE SMOOTH",
"729 975 OFFCURVE",
"612 1108 OFFCURVE",
"401 1108 CURVE SMOOTH"
);
}
);
width = 803;
}
);
unicode = 2022;
},
{
glyphname = colon;
lastChange = "2013-03-07 06:18:30 +0200";
layers = (
{
layerId = "3B25EE82-5579-4A28-8C59-D985C68457B1";
name = Bold;
paths = (
{
closed = 1;
nodes = (
"162 1147 OFFCURVE",
"86 1077 OFFCURVE",
"86 956 CURVE SMOOTH",
"86 836 OFFCURVE",
"163 764 OFFCURVE",
"299 764 CURVE SMOOTH",
"428 764 OFFCURVE",
"504 836 OFFCURVE",
"504 956 CURVE SMOOTH",
"504 1077 OFFCURVE",
"431 1147 OFFCURVE",
"299 1147 CURVE SMOOTH"
);
},
{
closed = 1;
nodes = (
"160 358 OFFCURVE",
"86 289 OFFCURVE",
"86 166 CURVE SMOOTH",
"86 45 OFFCURVE",
"167 -25 OFFCURVE",
"299 -25 CURVE SMOOTH",
"427 -25 OFFCURVE",
"504 46 OFFCURVE",
"504 166 CURVE SMOOTH",
"504 289 OFFCURVE",
"431 358 OFFCURVE",
"299 358 CURVE SMOOTH"
);
}
);
width = 592;
}
);
unicode = 003A;
},
{
glyphname = comma;
lastChange = "2013-03-07 06:18:30 +0200";
layers = (
{
layerId = "3B25EE82-5579-4A28-8C59-D985C68457B1";
name = Bold;
paths = (
{
closed = 1;
nodes = (
"156 299 LINE",
"149 230 OFFCURVE",
"135 139 OFFCURVE",
"115 24 CURVE SMOOTH",
"95 -90 OFFCURVE",
"76 -193 OFFCURVE",
"57 -285 CURVE",
"336 -285 LINE",
"389 -165 OFFCURVE",
"447 22 OFFCURVE",
"512 276 CURVE",
"498 299 LINE"
);
}
);
width = 633;
}
);
unicode = 002C;
},
{
glyphname = ellipsis;
lastChange = "2013-03-07 06:18:30 +0200";
layers = (
{
layerId = "3B25EE82-5579-4A28-8C59-D985C68457B1";
name = Bold;
paths = (
{
closed = 1;
nodes = (
"1344 358 OFFCURVE",
"1270 289 OFFCURVE",
"1270 166 CURVE SMOOTH",
"1270 45 OFFCURVE",
"1351 -25 OFFCURVE",
"1483 -25 CURVE SMOOTH",
"1611 -25 OFFCURVE",
"1688 46 OFFCURVE",
"1688 166 CURVE SMOOTH",
"1688 289 OFFCURVE",
"1615 358 OFFCURVE",
"1483 358 CURVE SMOOTH"
);
},
{
closed = 1;
nodes = (
"160 358 OFFCURVE",
"86 289 OFFCURVE",
"86 166 CURVE SMOOTH",
"86 45 OFFCURVE",
"167 -25 OFFCURVE",
"299 -25 CURVE SMOOTH",
"427 -25 OFFCURVE",
"504 46 OFFCURVE",
"504 166 CURVE SMOOTH",
"504 289 OFFCURVE",
"431 358 OFFCURVE",
"299 358 CURVE SMOOTH"
);
},
{
closed = 1;
nodes = (
"752 358 OFFCURVE",
"678 289 OFFCURVE",
"678 166 CURVE SMOOTH",
"678 45 OFFCURVE",
"759 -25 OFFCURVE",
"891 -25 CURVE SMOOTH",
"1019 -25 OFFCURVE",
"1096 46 OFFCURVE",
"1096 166 CURVE SMOOTH",
"1096 289 OFFCURVE",
"1023 358 OFFCURVE",
"891 358 CURVE SMOOTH"
);
}
);
width = 1776;
}
);
unicode = 2026;
},
{
glyphname = exclam;
lastChange = "2013-03-07 06:18:30 +0200";
layers = (
{
layerId = "3B25EE82-5579-4A28-8C59-D985C68457B1";
name = Bold;
paths = (
{
closed = 1;
nodes = (
"82 1462 LINE",
"133 516 LINE",
"463 516 LINE",
"514 1462 LINE"
);
},
{
closed = 1;
nodes = (
"160 358 OFFCURVE",
"86 287 OFFCURVE",
"86 166 CURVE SMOOTH",
"86 46 OFFCURVE",
"165 -25 OFFCURVE",
"297 -25 CURVE SMOOTH",
"428 -25 OFFCURVE",
"504 46 OFFCURVE",
"504 166 CURVE SMOOTH",
"504 287 OFFCURVE",
"433 358 OFFCURVE",
"297 358 CURVE SMOOTH"
);
}
);
width = 594;
}
);
unicode = 0021;
},
{
glyphname = exclamdown;
lastChange = "2013-03-07 06:18:30 +0200";
layers = (
{
layerId = "3B25EE82-5579-4A28-8C59-D985C68457B1";
name = Bold;
paths = (
{
closed = 1;
nodes = (
"133 612 LINE",
"82 -334 LINE",
"514 -334 LINE",
"463 612 LINE"
);
},
{
closed = 1;
nodes = (
"167 1153 OFFCURVE",
"92 1083 OFFCURVE",
"92 963 CURVE SMOOTH",
"92 840 OFFCURVE",
"163 770 OFFCURVE",
"299 770 CURVE SMOOTH",
"438 770 OFFCURVE",
"510 842 OFFCURVE",
"510 963 CURVE SMOOTH",
"510 1082 OFFCURVE",
"434 1153 OFFCURVE",
"299 1153 CURVE SMOOTH"
);
}
);
width = 594;
}
);
unicode = 00A1;
},
{
glyphname = numbersign;
lastChange = "2013-03-07 06:18:30 +0200";
layers = (
{
layerId = "3B25EE82-5579-4A28-8C59-D985C68457B1";
name = Bold;
paths = (
{
closed = 1;
nodes = (
"895 1462 LINE",
"823 1073 LINE",
"657 1073 LINE",
"731 1462 LINE",
"463 1462 LINE",
"391 1073 LINE",
"104 1073 LINE",
"104 813 LINE",
"342 813 LINE",
"311 645 LINE",
"37 645 LINE",
"37 391 LINE",
"262 391 LINE",
"190 0 LINE",
"457 0 LINE",
"528 391 LINE",
"696 391 LINE",
"623 0 LINE",
"891 0 LINE",
"965 391 LINE",
"1255 391 LINE",
"1255 645 LINE",
"1012 645 LINE",
"1042 813 LINE",
"1319 813 LINE",
"1319 1073 LINE",
"1090 1073 LINE",
"1163 1462 LINE"
);
},
{
closed = 1;
nodes = (
"743 645 LINE",
"578 645 LINE",
"608 813 LINE",
"774 813 LINE"
);
}
);
width = 1356;
}
);
unicode = 0023;
},
{
glyphname = period;
lastChange = "2013-03-07 06:18:30 +0200";
layers = (
{
layerId = "3B25EE82-5579-4A28-8C59-D985C68457B1";
name = Bold;
paths = (
{
closed = 1;
nodes = (
"160 358 OFFCURVE",
"86 289 OFFCURVE",
"86 166 CURVE SMOOTH",
"86 45 OFFCURVE",
"167 -25 OFFCURVE",
"299 -25 CURVE SMOOTH",
"427 -25 OFFCURVE",
"504 46 OFFCURVE",
"504 166 CURVE SMOOTH",
"504 289 OFFCURVE",
"431 358 OFFCURVE",
"299 358 CURVE SMOOTH"
);
}
);
width = 592;
}
);
unicode = 002E;
},
{
glyphname = periodcentered;
lastChange = "2013-03-07 06:18:30 +0200";
layers = (
{
layerId = "3B25EE82-5579-4A28-8C59-D985C68457B1";
name = Bold;
paths = (
{
closed = 1;
nodes = (
"160 915 OFFCURVE",
"86 846 OFFCURVE",
"86 723 CURVE SMOOTH",
"86 602 OFFCURVE",
"166 530 OFFCURVE",
"299 530 CURVE SMOOTH",
"427 530 OFFCURVE",
"504 603 OFFCURVE",
"504 723 CURVE SMOOTH",
"504 846 OFFCURVE",
"431 915 OFFCURVE",
"299 915 CURVE SMOOTH"
);
}
);
width = 592;
}
);
unicode = 00B7;
},
{
glyphname = question;
lastChange = "2013-03-07 06:18:30 +0200";
layers = (
{
layerId = "3B25EE82-5579-4A28-8C59-D985C68457B1";
name = Bold;
paths = (
{
closed = 1;
nodes = (
"339 1483 OFFCURVE",
"166 1436 OFFCURVE",
"0 1341 CURVE",
"139 1069 LINE",
"274 1140 OFFCURVE",
"391 1176 OFFCURVE",
"492 1176 CURVE SMOOTH",
"573 1176 OFFCURVE",
"629 1141 OFFCURVE",
"629 1085 CURVE SMOOTH",
"629 1014 OFFCURVE",
"585 967 OFFCURVE",
"477 899 CURVE SMOOTH",
"409 856 OFFCURVE",
"362 812 OFFCURVE",
"335 767 CURVE SMOOTH",
"308 722 OFFCURVE",
"295 667 OFFCURVE",
"295 602 CURVE SMOOTH",
"295 516 LINE",
"602 516 LINE",
"602 567 LINE SMOOTH",
"602 596 OFFCURVE",
"611 620 OFFCURVE",
"628 641 CURVE SMOOTH",
"646 662 OFFCURVE",
"690 696 OFFCURVE",
"760 741 CURVE SMOOTH",
"925 846 OFFCURVE",
"996 957 OFFCURVE",
"996 1118 CURVE SMOOTH",
"996 1231 OFFCURVE",
"955 1320 OFFCURVE",
"870 1385 CURVE SMOOTH",
"785 1450 OFFCURVE",
"669 1483 OFFCURVE",
"520 1483 CURVE SMOOTH"
);
},
{
closed = 1;
nodes = (
"324 358 OFFCURVE",
"252 289 OFFCURVE",
"252 166 CURVE SMOOTH",
"252 43 OFFCURVE",
"331 -25 OFFCURVE",
"463 -25 CURVE SMOOTH",
"591 -25 OFFCURVE",
"670 45 OFFCURVE",
"670 166 CURVE SMOOTH",
"670 287 OFFCURVE",
"596 358 OFFCURVE",
"463 358 CURVE SMOOTH"
);
}
);
width = 1034;
}
);
unicode = 003F;
},
{
glyphname = questiondown;
lastChange = "2013-03-07 06:18:30 +0200";
layers = (
{
layerId = "3B25EE82-5579-4A28-8C59-D985C68457B1";
name = Bold;
paths = (
{
closed = 1;
nodes = (
"432 612 LINE",
"432 561 LINE SMOOTH",
"432 532 OFFCURVE",
"422 506 OFFCURVE",
"403 484 CURVE SMOOTH",
"384 462 OFFCURVE",
"341 430 OFFCURVE",
"274 387 CURVE SMOOTH",
"189 333 OFFCURVE",
"129 277 OFFCURVE",
"92 218 CURVE SMOOTH",
"55 159 OFFCURVE",
"37 90 OFFCURVE",
"37 9 CURVE SMOOTH",
"37 -102 OFFCURVE",
"79 -191 OFFCURVE",
"164 -256 CURVE SMOOTH",
"249 -321 OFFCURVE",
"365 -354 OFFCURVE",
"514 -354 CURVE SMOOTH",
"699 -354 OFFCURVE",
"872 -307 OFFCURVE",
"1034 -213 CURVE",
"895 59 LINE",
"759 -12 OFFCURVE",
"642 -47 OFFCURVE",
"543 -47 CURVE SMOOTH",
"460 -47 OFFCURVE",
"406 -13 OFFCURVE",
"406 43 CURVE SMOOTH",
"407 118 OFFCURVE",
"442 151 OFFCURVE",
"557 229 CURVE SMOOTH",
"625 272 OFFCURVE",
"672 315 OFFCURVE",
"699 360 CURVE SMOOTH",
"726 405 OFFCURVE",
"739 461 OFFCURVE",
"739 526 CURVE SMOOTH",
"739 612 LINE"
);
},
{
closed = 1;
nodes = (
"440 1153 OFFCURVE",
"365 1083 OFFCURVE",
"365 963 CURVE SMOOTH",
"365 839 OFFCURVE",
"436 770 OFFCURVE",
"571 770 CURVE SMOOTH",
"711 770 OFFCURVE",
"782 839 OFFCURVE",
"782 963 CURVE SMOOTH",
"782 1084 OFFCURVE",
"706 1153 OFFCURVE",
"571 1153 CURVE SMOOTH"
);
}
);
width = 1034;
}
);
unicode = 00BF;
},
{
glyphname = quotedbl;
lastChange = "2013-03-07 06:18:30 +0200";
layers = (
{
layerId = "3B25EE82-5579-4A28-8C59-D985C68457B1";
name = Bold;
paths = (
{
closed = 1;
nodes = (
"596 1462 LINE",
"637 934 LINE",
"911 934 LINE",
"952 1462 LINE"
);
},
{
closed = 1;
nodes = (
"121 1462 LINE",
"162 934 LINE",
"436 934 LINE",
"477 1462 LINE"
);
}
);
width = 1073;
}
);
unicode = 0022;
},
{
glyphname = quotesingle;
lastChange = "2013-03-07 06:18:30 +0200";
layers = (
{
layerId = "3B25EE82-5579-4A28-8C59-D985C68457B1";
name = Bold;
paths = (
{
closed = 1;
nodes = (
"121 1462 LINE",
"162 934 LINE",
"436 934 LINE",
"477 1462 LINE"
);
}
);
width = 598;
}
);
unicode = 0027;
},
{
glyphname = semicolon;
lastChange = "2013-03-07 06:18:30 +0200";
layers = (
{
layerId = "3B25EE82-5579-4A28-8C59-D985C68457B1";
name = Bold;
paths = (
{
closed = 1;
nodes = (
"156 299 LINE",
"149 230 OFFCURVE",
"135 139 OFFCURVE",
"115 24 CURVE SMOOTH",
"95 -90 OFFCURVE",
"76 -193 OFFCURVE",
"57 -285 CURVE",
"336 -285 LINE",
"389 -165 OFFCURVE",
"447 22 OFFCURVE",
"512 276 CURVE",
"498 299 LINE"
);
},
{
closed = 1;
nodes = (
"164 1147 OFFCURVE",
"92 1077 OFFCURVE",
"92 956 CURVE SMOOTH",
"92 835 OFFCURVE",
"167 764 OFFCURVE",
"303 764 CURVE SMOOTH",
"435 764 OFFCURVE",
"510 836 OFFCURVE",
"510 956 CURVE SMOOTH",
"510 1076 OFFCURVE",
"436 1147 OFFCURVE",
"303 1147 CURVE SMOOTH"
);
}
);
width = 608;
}
);
unicode = 003B;
},
{
glyphname = slash;
lastChange = "2013-03-07 06:18:30 +0200";
layers = (
{
layerId = "3B25EE82-5579-4A28-8C59-D985C68457B1";
name = Bold;
paths = (
{
closed = 1;
nodes = (
"555 1483 LINE",
"9 -20 LINE",
"356 -20 LINE",
"901 1483 LINE"
);
}
);
width = 905;
}
);
unicode = 002F;
},
{
glyphname = underscore;
lastChange = "2013-03-07 06:18:30 +0200";
layers = (
{
layerId = "3B25EE82-5579-4A28-8C59-D985C68457B1";
name = Bold;
paths = (
{
closed = 1;
nodes = (
"-4 -133 LINE",
"-4 -379 LINE",
"1028 -379 LINE",
"1028 -133 LINE"
);
}
);
width = 1024;
}
);
unicode = 005F;
},
{
glyphname = braceleft;
lastChange = "2013-03-07 06:18:30 +0200";
layers = (
{
layerId = "3B25EE82-5579-4A28-8C59-D985C68457B1";
name = Bold;
paths = (
{
closed = 1;
nodes = (
"561 1483 OFFCURVE",
"421 1443 OFFCURVE",
"356 1351 CURVE SMOOTH",
"323 1305 OFFCURVE",
"307 1236 OFFCURVE",
"307 1143 CURVE SMOOTH",
"307 889 LINE SMOOTH",
"307 781 OFFCURVE",
"214 719 OFFCURVE",
"61 719 CURVE",
"61 418 LINE",
"210 418 OFFCURVE",
"307 355 OFFCURVE",
"307 248 CURVE SMOOTH",
"307 0 LINE SMOOTH",
"307 -93 OFFCURVE",
"323 -164 OFFCURVE",
"355 -210 CURVE SMOOTH",
"388 -257 OFFCURVE",
"441 -291 OFFCURVE",
"514 -312 CURVE SMOOTH",
"587 -333 OFFCURVE",
"690 -344 OFFCURVE",
"821 -344 CURVE",
"821 -66 LINE",
"769 -64 OFFCURVE",
"731 -59 OFFCURVE",
"708 -52 CURVE SMOOTH",
"685 -45 OFFCURVE",
"666 -35 OFFCURVE",
"652 -20 CURVE SMOOTH",
"638 -5 OFFCURVE",
"631 15 OFFCURVE",
"631 41 CURVE SMOOTH",
"631 317 LINE SMOOTH",
"631 461 OFFCURVE",
"562 536 OFFCURVE",
"391 563 CURVE",
"391 575 LINE",
"560 599 OFFCURVE",
"631 676 OFFCURVE",
"631 827 CURVE SMOOTH",
"631 1098 LINE SMOOTH",
"631 1149 OFFCURVE",
"659 1177 OFFCURVE",
"700 1190 CURVE SMOOTH",
"721 1197 OFFCURVE",
"762 1202 OFFCURVE",
"821 1204 CURVE",
"821 1483 LINE"
);
}
);
width = 887;
}
);
unicode = 007B;
},
{
glyphname = braceright;
lastChange = "2013-03-07 06:18:30 +0200";
layers = (
{
layerId = "3B25EE82-5579-4A28-8C59-D985C68457B1";
name = Bold;
paths = (
{
closed = 1;
nodes = (
"66 1204 LINE",
"126 1202 OFFCURVE",
"166 1197 OFFCURVE",
"186 1190 CURVE SMOOTH",
"207 1183 OFFCURVE",
"223 1173 OFFCURVE",
"236 1158 CURVE SMOOTH",
"249 1144 OFFCURVE",
"256 1124 OFFCURVE",
"256 1098 CURVE SMOOTH",
"256 827 LINE SMOOTH",
"256 676 OFFCURVE",
"327 599 OFFCURVE",
"496 575 CURVE",
"496 563 LINE",
"325 536 OFFCURVE",
"256 461 OFFCURVE",
"256 317 CURVE SMOOTH",
"256 41 LINE SMOOTH",
"256 -28 OFFCURVE",
"210 -61 OFFCURVE",
"66 -66 CURVE",
"66 -344 LINE",
"327 -344 OFFCURVE",
"466 -303 OFFCURVE",
"531 -210 CURVE SMOOTH",
"564 -163 OFFCURVE",
"580 -92 OFFCURVE",
"580 0 CURVE SMOOTH",
"580 248 LINE SMOOTH",
"580 355 OFFCURVE",
"677 418 OFFCURVE",
"825 418 CURVE",
"825 719 LINE",
"672 719 OFFCURVE",
"580 781 OFFCURVE",
"580 889 CURVE SMOOTH",
"580 1143 LINE SMOOTH",
"580 1236 OFFCURVE",
"564 1305 OFFCURVE",
"531 1351 CURVE SMOOTH",
"498 1397 OFFCURVE",
"445 1430 OFFCURVE",
"372 1451 CURVE SMOOTH",
"299 1472 OFFCURVE",
"197 1483 OFFCURVE",
"66 1483 CURVE"
);
}
);
width = 887;
}
);
unicode = 007D;
},
{
glyphname = bracketleft;
lastChange = "2013-03-07 06:18:30 +0200";
layers = (
{
layerId = "3B25EE82-5579-4A28-8C59-D985C68457B1";
name = Bold;
paths = (
{
closed = 1;
nodes = (
"117 1503 LINE",
"117 -344 LINE",
"616 -344 LINE",
"616 -90 LINE",
"434 -90 LINE",
"434 1249 LINE",
"616 1249 LINE",
"616 1503 LINE"
);
}
);
width = 664;
}
);
unicode = 005B;
},
{
glyphname = bracketright;
lastChange = "2013-03-07 06:18:30 +0200";
layers = (
{
layerId = "3B25EE82-5579-4A28-8C59-D985C68457B1";
name = Bold;
paths = (
{
closed = 1;
nodes = (
"47 1503 LINE",
"47 1249 LINE",
"229 1249 LINE",
"229 -90 LINE",
"47 -90 LINE",
"47 -344 LINE",
"547 -344 LINE",
"547 1503 LINE"
);
}
);
width = 664;
}
);
unicode = 005D;
},
{
glyphname = parenleft;
lastChange = "2013-03-07 06:18:30 +0200";
layers = (
{
layerId = "3B25EE82-5579-4A28-8C59-D985C68457B1";
name = Bold;
paths = (
{
closed = 1;
nodes = (
"354 1503 LINE",
"170 1283 OFFCURVE",
"74 968 OFFCURVE",
"74 582 CURVE SMOOTH",
"74 198 OFFCURVE",
"171 -113 OFFCURVE",
"354 -324 CURVE",
"678 -324 LINE",
"593 -205 OFFCURVE",
"528 -68 OFFCURVE",
"484 88 CURVE SMOOTH",
"440 245 OFFCURVE",
"418 410 OFFCURVE",
"418 584 CURVE SMOOTH",
"418 764 OFFCURVE",
"441 933 OFFCURVE",
"486 1091 CURVE SMOOTH",
"531 1249 OFFCURVE",
"596 1386 OFFCURVE",
"680 1503 CURVE"
);
}
);
width = 735;
}
);
unicode = 0028;
},
{
glyphname = parenright;
lastChange = "2013-03-07 06:18:30 +0200";
layers = (
{
layerId = "3B25EE82-5579-4A28-8C59-D985C68457B1";
name = Bold;
paths = (
{
closed = 1;
nodes = (
"55 1503 LINE",
"228 1262 OFFCURVE",
"317 937 OFFCURVE",
"317 584 CURVE SMOOTH",
"317 409 OFFCURVE",
"295 242 OFFCURVE",
"250 84 CURVE SMOOTH",
"205 -73 OFFCURVE",
"141 -209 OFFCURVE",
"57 -324 CURVE",
"381 -324 LINE",
"565 -111 OFFCURVE",
"662 205 OFFCURVE",
"662 582 CURVE SMOOTH",
"662 959 OFFCURVE",
"566 1282 OFFCURVE",
"381 1503 CURVE"
);
}
);
width = 735;
}
);
unicode = 0029;
},
{
glyphname = emdash;
lastChange = "2013-03-07 06:18:30 +0200";
layers = (
{
layerId = "3B25EE82-5579-4A28-8C59-D985C68457B1";
name = Bold;
paths = (
{
closed = 1;
nodes = (
"74 690 LINE",
"74 414 LINE",
"1970 414 LINE",
"1970 690 LINE"
);
}
);
width = 2048;
}
);
unicode = 2014;
},
{
glyphname = endash;
lastChange = "2013-03-07 06:18:30 +0200";
layers = (
{
layerId = "3B25EE82-5579-4A28-8C59-D985C68457B1";
name = Bold;
paths = (
{
closed = 1;
nodes = (
"74 690 LINE",
"74 414 LINE",
"950 414 LINE",
"950 690 LINE"
);
}
);
width = 1024;
}
);
unicode = 2013;
},
{
glyphname = hyphen;
lastChange = "2013-03-07 06:18:30 +0200";
layers = (
{
layerId = "3B25EE82-5579-4A28-8C59-D985C68457B1";
name = Bold;
paths = (
{
closed = 1;
nodes = (
"43 705 LINE",
"43 393 LINE",
"608 393 LINE",
"608 705 LINE"
);
}
);
width = 651;
}
);
unicode = 002D;
},
{
glyphname = uni00AD;
lastChange = "2013-03-07 06:18:30 +0200";
layers = (
{
layerId = "3B25EE82-5579-4A28-8C59-D985C68457B1";
name = Bold;
paths = (
{
closed = 1;
nodes = (
"43 705 LINE",
"43 393 LINE",
"608 393 LINE",
"608 705 LINE"
);
}
);
width = 651;
}
);
unicode = 00AD;
},
{
glyphname = guillemotleft;
lastChange = "2013-03-07 06:18:30 +0200";
layers = (
{
layerId = "3B25EE82-5579-4A28-8C59-D985C68457B1";
name = Bold;
paths = (
{
closed = 1;
nodes = (
"649 588 LINE",
"649 561 LINE",
"1036 80 LINE",
"1319 227 LINE",
"1044 575 LINE",
"1319 922 LINE",
"1036 1071 LINE"
);
},
{
closed = 1;
nodes = (
"74 588 LINE",
"74 561 LINE",
"463 80 LINE",
"743 227 LINE",
"471 575 LINE",
"743 922 LINE",
"463 1071 LINE"
);
}
);
width = 1395;
}
);
unicode = 00AB;
},
{
glyphname = guillemotright;
lastChange = "2013-03-07 06:18:30 +0200";
layers = (
{
layerId = "3B25EE82-5579-4A28-8C59-D985C68457B1";
name = Bold;
paths = (
{
closed = 1;
nodes = (
"649 922 LINE",
"924 575 LINE",
"649 227 LINE",
"934 80 LINE",
"1321 561 LINE",
"1321 588 LINE",
"934 1071 LINE"
);
},
{
closed = 1;
nodes = (
"76 922 LINE",
"348 575 LINE",
"76 227 LINE",
"358 80 LINE",
"745 561 LINE",
"745 588 LINE",
"358 1071 LINE"
);
}
);
width = 1395;
}
);
unicode = 00BB;
},
{
glyphname = guilsinglleft;
lastChange = "2013-03-07 06:18:30 +0200";
layers = (
{
layerId = "3B25EE82-5579-4A28-8C59-D985C68457B1";
name = Bold;
paths = (
{
closed = 1;
nodes = (
"74 588 LINE",
"74 561 LINE",
"463 80 LINE",
"743 227 LINE",
"471 575 LINE",
"743 922 LINE",
"463 1071 LINE"
);
}
);
width = 819;
}
);
unicode = 2039;
},
{
glyphname = guilsinglright;
lastChange = "2013-03-07 06:18:30 +0200";
layers = (
{
layerId = "3B25EE82-5579-4A28-8C59-D985C68457B1";
name = Bold;
paths = (
{
closed = 1;
nodes = (
"76 922 LINE",
"348 575 LINE",
"76 227 LINE",
"358 80 LINE",
"745 561 LINE",
"745 588 LINE",
"358 1071 LINE"
);
}
);
width = 819;
}
);
unicode = 203A;
},
{
glyphname = quotedblbase;
lastChange = "2013-03-07 06:18:30 +0200";
layers = (
{
layerId = "3B25EE82-5579-4A28-8C59-D985C68457B1";
name = Bold;
paths = (
{
closed = 1;
nodes = (
"666 299 LINE",
"659 230 OFFCURVE",
"645 139 OFFCURVE",
"625 24 CURVE SMOOTH",
"606 -90 OFFCURVE",
"586 -193 OFFCURVE",
"567 -285 CURVE",
"846 -285 LINE",
"899 -165 OFFCURVE",
"957 22 OFFCURVE",
"1022 276 CURVE",
"1008 299 LINE"
);
},
{
closed = 1;
nodes = (
"156 299 LINE",
"149 230 OFFCURVE",
"135 139 OFFCURVE",
"115 24 CURVE SMOOTH",
"95 -90 OFFCURVE",
"76 -193 OFFCURVE",
"57 -285 CURVE",
"336 -285 LINE",
"389 -165 OFFCURVE",
"447 22 OFFCURVE",
"512 276 CURVE",
"498 299 LINE"
);
}
);
width = 1143;
}
);
unicode = 201E;
},
{
glyphname = quotedblleft;
lastChange = "2013-03-07 06:18:30 +0200";
layers = (
{
layerId = "3B25EE82-5579-4A28-8C59-D985C68457B1";
name = Bold;
paths = (
{
closed = 1;
nodes = (
"197 1460 LINE",
"146 1347 OFFCURVE",
"87 1160 OFFCURVE",
"20 899 CURVE",
"35 877 LINE",
"377 877 LINE",
"398 1058 OFFCURVE",
"430 1252 OFFCURVE",
"475 1460 CURVE"
);
},
{
closed = 1;
nodes = (
"707 1460 LINE",
"656 1347 OFFCURVE",
"597 1160 OFFCURVE",
"530 899 CURVE",
"545 877 LINE",
"887 877 LINE",
"908 1058 OFFCURVE",
"940 1252 OFFCURVE",
"984 1460 CURVE"
);
}
);
width = 1022;
}
);
unicode = 201C;
},
{
glyphname = quotedblright;
lastChange = "2013-03-07 06:18:30 +0200";
layers = (
{
layerId = "3B25EE82-5579-4A28-8C59-D985C68457B1";
name = Bold;
paths = (
{
closed = 1;
nodes = (
"135 1460 LINE",
"115 1283 OFFCURVE",
"82 1088 OFFCURVE",
"37 877 CURVE",
"315 877 LINE",
"372 1007 OFFCURVE",
"431 1194 OFFCURVE",
"492 1438 CURVE",
"477 1460 LINE"
);
},
{
closed = 1;
nodes = (
"645 1460 LINE",
"625 1283 OFFCURVE",
"592 1088 OFFCURVE",
"547 877 CURVE",
"825 877 LINE",
"880 1004 OFFCURVE",
"939 1191 OFFCURVE",
"1001 1438 CURVE",
"986 1460 LINE"
);
}
);
width = 1022;
}
);
unicode = 201D;
},
{
glyphname = quoteleft;
lastChange = "2013-03-07 06:18:30 +0200";
layers = (
{
layerId = "3B25EE82-5579-4A28-8C59-D985C68457B1";
name = Bold;
paths = (
{
closed = 1;
nodes = (
"197 1460 LINE",
"146 1347 OFFCURVE",
"87 1160 OFFCURVE",
"20 899 CURVE",
"35 877 LINE",
"377 877 LINE",
"398 1058 OFFCURVE",
"430 1252 OFFCURVE",
"475 1460 CURVE"
);
}
);
width = 512;
}
);
unicode = 2018;
},
{
glyphname = quoteright;
lastChange = "2013-03-07 06:18:30 +0200";
layers = (
{
layerId = "3B25EE82-5579-4A28-8C59-D985C68457B1";
name = Bold;
paths = (
{
closed = 1;
nodes = (
"135 1460 LINE",
"115 1283 OFFCURVE",
"82 1088 OFFCURVE",
"37 877 CURVE",
"315 877 LINE",
"372 1007 OFFCURVE",
"431 1194 OFFCURVE",
"492 1438 CURVE",
"477 1460 LINE"
);
}
);
width = 512;
}
);
unicode = 2019;
},
{
glyphname = quotesinglbase;
lastChange = "2013-03-07 06:18:30 +0200";
layers = (
{
layerId = "3B25EE82-5579-4A28-8C59-D985C68457B1";
name = Bold;
paths = (
{
closed = 1;
nodes = (
"156 299 LINE",
"149 230 OFFCURVE",
"135 139 OFFCURVE",
"115 24 CURVE SMOOTH",
"95 -90 OFFCURVE",
"76 -193 OFFCURVE",
"57 -285 CURVE",
"336 -285 LINE",
"389 -165 OFFCURVE",
"447 22 OFFCURVE",
"512 276 CURVE",
"498 299 LINE"
);
}
);
width = 633;
}
);
unicode = 201A;
},
{
glyphname = "geresh-hb";
lastChange = "2013-03-07 06:18:30 +0200";
layers = (
{
layerId = "3B25EE82-5579-4A28-8C59-D985C68457B1";
name = Bold;
paths = (
{
closed = 1;
nodes = (
"135 1295 LINE",
"115 1118 OFFCURVE",
"82 923 OFFCURVE",
"37 712 CURVE",
"315 712 LINE",
"372 842 OFFCURVE",
"431 1029 OFFCURVE",
"492 1273 CURVE",
"477 1295 LINE"
);
}
);
width = 512;
}
);
unicode = 05F3;
},
{
glyphname = "gershayim-hb";
lastChange = "2013-03-07 06:18:30 +0200";
layers = (
{
layerId = "3B25EE82-5579-4A28-8C59-D985C68457B1";
name = Bold;
paths = (
{
closed = 1;
nodes = (
"135 1295 LINE",
"115 1118 OFFCURVE",
"82 923 OFFCURVE",
"37 712 CURVE",
"315 712 LINE",
"372 842 OFFCURVE",
"431 1029 OFFCURVE",
"492 1273 CURVE",
"477 1295 LINE"
);
},
{
closed = 1;
nodes = (
"645 1295 LINE",
"625 1118 OFFCURVE",
"592 923 OFFCURVE",
"547 712 CURVE",
"825 712 LINE",
"880 839 OFFCURVE",
"939 1026 OFFCURVE",
"1001 1273 CURVE",
"986 1295 LINE"
);
}
);
width = 1022;
}
);
unicode = 05F4;
},
{
glyphname = "maqaf-hb";
lastChange = "2013-03-07 06:18:30 +0200";
layers = (
{
layerId = "3B25EE82-5579-4A28-8C59-D985C68457B1";
name = Bold;
paths = (
{
closed = 1;
nodes = (
"43 1295 LINE",
"43 982 LINE",
"608 982 LINE",
"608 1295 LINE"
);
}
);
width = 651;
}
);
unicode = 05BE;
},
{
glyphname = florin;
lastChange = "2013-03-07 06:18:30 +0200";
layers = (
{
layerId = "3B25EE82-5579-4A28-8C59-D985C68457B1";
name = Bold;
paths = (
{
closed = 1;
nodes = (
"592 1567 OFFCURVE",
"497 1535 OFFCURVE",
"439 1472 CURVE SMOOTH",
"381 1409 OFFCURVE",
"352 1307 OFFCURVE",
"352 1165 CURVE SMOOTH",
"352 1128 LINE",
"195 1032 LINE",
"195 840 LINE",
"344 840 LINE",
"344 -37 LINE SMOOTH",
"344 -132 OFFCURVE",
"313 -180 OFFCURVE",
"250 -180 CURVE SMOOTH",
"217 -180 OFFCURVE",
"180 -174 OFFCURVE",
"139 -162 CURVE",
"139 -463 LINE",
"168 -472 OFFCURVE",
"204 -479 OFFCURVE",
"247 -484 CURVE SMOOTH",
"290 -489 OFFCURVE",
"326 -492 OFFCURVE",
"354 -492 CURVE SMOOTH",
"597 -492 OFFCURVE",
"735 -347 OFFCURVE",
"735 -84 CURVE SMOOTH",
"735 840 LINE",
"990 840 LINE",
"990 1133 LINE",
"735 1133 LINE",
"735 1137 LINE SMOOTH",
"735 1240 OFFCURVE",
"765 1280 OFFCURVE",
"836 1280 CURVE SMOOTH",
"875 1280 OFFCURVE",
"922 1272 OFFCURVE",
"974 1255 CURVE",
"1051 1513 LINE",
"944 1549 OFFCURVE",
"836 1567 OFFCURVE",
"725 1567 CURVE SMOOTH"
);
}
);
width = 1137;
}
);
unicode = 0192;
},
{
glyphname = Euro;
lastChange = "2013-03-07 06:18:30 +0200";
layers = (
{
layerId = "3B25EE82-5579-4A28-8C59-D985C68457B1";
name = Bold;
paths = (
{
closed = 1;
nodes = (
"493 1483 OFFCURVE",
"271 1303 OFFCURVE",
"203 963 CURVE",
"55 963 LINE",
"55 758 LINE",
"184 758 LINE",
"182 715 LINE",
"182 693 LINE",
"184 672 LINE",
"55 672 LINE",
"55 467 LINE",
"211 467 LINE",
"274 154 OFFCURVE",
"492 -20 OFFCURVE",
"829 -20 CURVE SMOOTH",
"955 -20 OFFCURVE",
"1052 -2 OFFCURVE",
"1120 35 CURVE",
"1120 358 LINE",
"1039 321 OFFCURVE",
"951 303 OFFCURVE",
"854 303 CURVE SMOOTH",
"703 303 OFFCURVE",
"616 358 OFFCURVE",
"594 467 CURVE",
"858 467 LINE",
"858 672 LINE",
"571 672 LINE",
"571 671 LINE",
"569 715 LINE",
"569 729 LINE",
"571 758 LINE",
"924 758 LINE",
"924 963 LINE",
"586 963 LINE",
"602 1082 OFFCURVE",
"680 1159 OFFCURVE",
"829 1159 CURVE SMOOTH",
"902 1159 OFFCURVE",
"978 1142 OFFCURVE",
"1059 1108 CURVE",
"1178 1407 LINE",
"1065 1458 OFFCURVE",
"949 1483 OFFCURVE",
"829 1483 CURVE SMOOTH"
);
}
);
width = 1200;
}
);
unicode = 20AC;
},
{
glyphname = cent;
lastChange = "2013-03-07 06:18:30 +0200";
layers = (
{
layerId = "3B25EE82-5579-4A28-8C59-D985C68457B1";
name = Bold;
paths = (
{
closed = 1;
nodes = (
"565 1483 LINE",
"565 1317 LINE",
"285 1262 OFFCURVE",
"129 1059 OFFCURVE",
"129 739 CURVE SMOOTH",
"129 403 OFFCURVE",
"282 207 OFFCURVE",
"565 166 CURVE",
"565 -20 LINE",
"772 -20 LINE",
"772 160 LINE",
"877 171 OFFCURVE",
"971 203 OFFCURVE",
"1057 258 CURVE",
"1057 569 LINE",
"952 502 OFFCURVE",
"842 469 OFFCURVE",
"727 469 CURVE SMOOTH",
"593 469 OFFCURVE",
"526 560 OFFCURVE",
"526 741 CURVE SMOOTH",
"526 921 OFFCURVE",
"598 1024 OFFCURVE",
"725 1024 CURVE SMOOTH",
"812 1024 OFFCURVE",
"886 996 OFFCURVE",
"980 956 CURVE",
"1096 1245 LINE",
"993 1295 OFFCURVE",
"886 1323 OFFCURVE",
"772 1329 CURVE",
"772 1483 LINE"
);
}
);
width = 1200;
}
);
unicode = 00A2;
},
{
glyphname = dollar;
lastChange = "2013-03-07 06:18:30 +0200";
layers = (
{
layerId = "3B25EE82-5579-4A28-8C59-D985C68457B1";
name = Bold;
paths = (
{
closed = 1;
nodes = (
"504 1554 LINE",
"504 1417 LINE",
"221 1388 OFFCURVE",
"80 1264 OFFCURVE",
"80 1044 CURVE SMOOTH",
"80 900 OFFCURVE",
"125 811 OFFCURVE",
"229 732 CURVE SMOOTH",
"281 693 OFFCURVE",
"349 658 OFFCURVE",
"434 627 CURVE SMOOTH",
"662 541 OFFCURVE",
"736 514 OFFCURVE",
"737 449 CURVE SMOOTH",
"737 385 OFFCURVE",
"686 360 OFFCURVE",
"573 360 CURVE SMOOTH",
"504 360 OFFCURVE",
"425 373 OFFCURVE",
"334 399 CURVE SMOOTH",
"243 426 OFFCURVE",
"159 459 OFFCURVE",
"82 498 CURVE",
"82 166 LINE",
"217 107 OFFCURVE",
"358 75 OFFCURVE",
"504 68 CURVE",
"504 -119 LINE",
"711 -119 LINE",
"711 74 LINE",
"982 107 OFFCURVE",
"1128 253 OFFCURVE",
"1128 477 CURVE SMOOTH",
"1128 576 OFFCURVE",
"1098 657 OFFCURVE",
"1037 720 CURVE SMOOTH",
"975 783 OFFCURVE",
"876 840 OFFCURVE",
"737 889 CURVE SMOOTH",
"529 964 OFFCURVE",
"473 988 OFFCURVE",
"471 1053 CURVE",
"471 1104 OFFCURVE",
"509 1130 OFFCURVE",
"616 1130 CURVE SMOOTH",
"728 1130 OFFCURVE",
"854 1099 OFFCURVE",
"992 1036 CURVE",
"1112 1321 LINE",
"976 1379 OFFCURVE",
"844 1412 OFFCURVE",
"711 1419 CURVE",
"711 1554 LINE"
);
}
);
width = 1200;
}
);
unicode = 0024;
},
{
glyphname = "sheqel-hb";
lastChange = "2013-03-07 06:18:30 +0200";
layers = (
{
layerId = "3B25EE82-5579-4A28-8C59-D985C68457B1";
name = Bold;
paths = (
{
closed = 1;
nodes = (
"135 1295 LINE",
"135 0 LINE",
"521 0 LINE",
"521 996 LINE",
"816 996 LINE SMOOTH",
"1032 996 OFFCURVE",
"1129 963 OFFCURVE",
"1129 708 CURVE SMOOTH",
"1129 509 LINE",
"1464 509 LINE",
"1464 726 LINE SMOOTH",
"1464 983 OFFCURVE",
"1418 1295 OFFCURVE",
"776 1295 CURVE SMOOTH"
);
},
{
closed = 1;
nodes = (
"1586 1295 LINE",
"1586 813 LINE SMOOTH",
"1586 477 OFFCURVE",
"1481 299 OFFCURVE",
"1113 299 CURVE SMOOTH",
"998 299 LINE",
"998 833 LINE",
"652 833 LINE",
"652 0 LINE",
"1113 0 LINE SMOOTH",
"1754 0 OFFCURVE",
"1962 357 OFFCURVE",
"1962 795 CURVE SMOOTH",
"1962 1295 LINE"
);
}
);
width = 2082;
}
);
unicode = 20AA;
},
{
glyphname = sterling;
lastChange = "2013-03-07 06:18:30 +0200";
layers = (
{
layerId = "3B25EE82-5579-4A28-8C59-D985C68457B1";
name = Bold;
paths = (
{
closed = 1;
nodes = (
"428 1485 OFFCURVE",
"268 1331 OFFCURVE",
"268 1044 CURVE SMOOTH",
"268 926 LINE",
"102 926 LINE",
"102 649 LINE",
"268 649 LINE",
"268 551 LINE SMOOTH",
"268 476 OFFCURVE",
"252 429 OFFCURVE",
"213 389 CURVE SMOOTH",
"194 370 OFFCURVE",
"158 344 OFFCURVE",
"104 313 CURVE",
"104 0 LINE",
"1165 0 LINE",
"1165 326 LINE",
"494 326 LINE",
"600 377 OFFCURVE",
"653 453 OFFCURVE",
"653 553 CURVE SMOOTH",
"653 649 LINE",
"996 649 LINE",
"996 926 LINE",
"653 926 LINE",
"653 1032 LINE SMOOTH",
"653 1127 OFFCURVE",
"689 1169 OFFCURVE",
"766 1169 CURVE SMOOTH",
"835 1169 OFFCURVE",
"919 1151 OFFCURVE",
"1018 1114 CURVE",
"1128 1403 LINE",
"997 1458 OFFCURVE",
"863 1485 OFFCURVE",
"723 1485 CURVE SMOOTH"
);
}
);
width = 1200;
}
);
unicode = 00A3;
},
{
glyphname = yen;
lastChange = "2013-03-07 06:18:30 +0200";
layers = (
{
layerId = "3B25EE82-5579-4A28-8C59-D985C68457B1";
name = Bold;
paths = (
{
closed = 1;
nodes = (
"793 1462 LINE",
"600 958 LINE",
"408 1462 LINE",
"8 1462 LINE",
"362 750 LINE",
"172 750 LINE",
"172 539 LINE",
"418 539 LINE",
"418 422 LINE",
"172 422 LINE",
"172 213 LINE",
"418 213 LINE",
"418 0 LINE",
"782 0 LINE",
"782 213 LINE",
"1024 213 LINE",
"1024 422 LINE",
"782 422 LINE",
"782 539 LINE",
"1024 539 LINE",
"1024 750 LINE",
"829 750 LINE",
"1192 1462 LINE"
);
}
);
width = 1200;
}
);
unicode = 00A5;
},
{
glyphname = asciitilde;
lastChange = "2013-03-07 06:18:30 +0200";
layers = (
{
layerId = "3B25EE82-5579-4A28-8C59-D985C68457B1";
name = Bold;
paths = (
{
closed = 1;
nodes = (
"1010 842 OFFCURVE",
"921 797 OFFCURVE",
"854 797 CURVE SMOOTH",
"783 797 OFFCURVE",
"703 815 OFFCURVE",
"616 852 CURVE SMOOTH",
"557 876 OFFCURVE",
"507 892 OFFCURVE",
"466 901 CURVE SMOOTH",
"425 910 OFFCURVE",
"382 915 OFFCURVE",
"336 915 CURVE SMOOTH",
"229 915 OFFCURVE",
"141 879 OFFCURVE",
"72 807 CURVE",
"72 526 LINE",
"154 607 OFFCURVE",
"232 647 OFFCURVE",
"305 647 CURVE SMOOTH",
"375 647 OFFCURVE",
"454 629 OFFCURVE",
"541 592 CURVE SMOOTH",
"597 569 OFFCURVE",
"646 553 OFFCURVE",
"687 543 CURVE SMOOTH",
"729 533 OFFCURVE",
"774 528 OFFCURVE",
"821 528 CURVE SMOOTH",
"927 528 OFFCURVE",
"1015 564 OFFCURVE",
"1085 637 CURVE",
"1085 918 LINE"
);
}
);
width = 1159;
}
);
unicode = 007E;
},
{
glyphname = divide;
lastChange = "2013-03-07 06:18:30 +0200";
layers = (
{
layerId = "3B25EE82-5579-4A28-8C59-D985C68457B1";
name = Bold;
paths = (
{
closed = 1;
nodes = (
"72 856 LINE",
"72 588 LINE",
"1085 588 LINE",
"1085 856 LINE"
);
},
{
closed = 1;
nodes = (
"475 502 OFFCURVE",
"422 441 OFFCURVE",
"422 332 CURVE SMOOTH",
"422 223 OFFCURVE",
"483 162 OFFCURVE",
"578 162 CURVE SMOOTH",
"671 162 OFFCURVE",
"735 225 OFFCURVE",
"735 332 CURVE SMOOTH",
"735 443 OFFCURVE",
"678 502 OFFCURVE",
"578 502 CURVE SMOOTH"
);
},
{
closed = 1;
nodes = (
"475 1282 OFFCURVE",
"422 1221 OFFCURVE",
"422 1112 CURVE SMOOTH",
"422 1003 OFFCURVE",
"483 942 OFFCURVE",
"578 942 CURVE SMOOTH",
"671 942 OFFCURVE",
"735 1005 OFFCURVE",
"735 1112 CURVE SMOOTH",
"735 1223 OFFCURVE",
"678 1282 OFFCURVE",
"578 1282 CURVE SMOOTH"
);
}
);
width = 1159;
}
);
unicode = 00F7;
},
{
glyphname = equal;
lastChange = "2013-03-07 06:18:30 +0200";
layers = (
{
layerId = "3B25EE82-5579-4A28-8C59-D985C68457B1";
name = Bold;
paths = (
{
closed = 1;
nodes = (
"72 629 LINE",
"72 358 LINE",
"1087 358 LINE",
"1087 629 LINE"
);
},
{
closed = 1;
nodes = (
"72 1083 LINE",
"72 815 LINE",
"1087 815 LINE",
"1087 1083 LINE"
);
}
);
width = 1159;
}
);
unicode = 003D;
},
{
glyphname = greater;
lastChange = "2013-03-07 06:18:30 +0200";
layers = (
{
layerId = "3B25EE82-5579-4A28-8C59-D985C68457B1";
name = Bold;
paths = (
{
closed = 1;
nodes = (
"72 1008 LINE",
"692 725 LINE",
"72 473 LINE",
"72 178 LINE",
"1083 627 LINE",
"1083 799 LINE",
"72 1305 LINE"
);
}
);
width = 1159;
}
);
unicode = 003E;
},
{
glyphname = less;
lastChange = "2013-03-07 06:18:30 +0200";
layers = (
{
layerId = "3B25EE82-5579-4A28-8C59-D985C68457B1";
name = Bold;
paths = (
{
closed = 1;
nodes = (
"72 799 LINE",
"72 627 LINE",
"1083 178 LINE",
"1083 473 LINE",
"463 725 LINE",
"1083 1008 LINE",
"1083 1305 LINE"
);
}
);
width = 1159;
}
);
unicode = 003C;
},
{
glyphname = logicalnot;
lastChange = "2013-03-07 06:18:30 +0200";
layers = (
{
layerId = "3B25EE82-5579-4A28-8C59-D985C68457B1";
name = Bold;
paths = (
{
closed = 1;
nodes = (
"72 856 LINE",
"72 588 LINE",
"815 588 LINE",
"815 238 LINE",
"1085 238 LINE",
"1085 856 LINE"
);
}
);
width = 1159;
}
);
unicode = 00AC;
},
{
glyphname = multiply;
lastChange = "2013-03-07 06:18:30 +0200";
layers = (
{
layerId = "3B25EE82-5579-4A28-8C59-D985C68457B1";
name = Bold;
paths = (
{
closed = 1;
nodes = (
"573 913 LINE",
"303 1180 LINE",
"121 990 LINE",
"387 723 LINE",
"123 455 LINE",
"303 268 LINE",
"573 537 LINE",
"848 266 LINE",
"1032 451 LINE",
"762 723 LINE",
"1036 996 LINE",
"848 1180 LINE"
);
}
);
width = 1159;
}
);
unicode = 00D7;
},
{
glyphname = percent;
lastChange = "2013-03-07 06:18:30 +0200";
layers = (
{
layerId = "3B25EE82-5579-4A28-8C59-D985C68457B1";
name = Bold;
paths = (
{
closed = 1;
nodes = (
"1223 1462 LINE",
"412 0 LINE",
"709 0 LINE",
"1520 1462 LINE"
);
},
{
closed = 1;
nodes = (
"465 1239 OFFCURVE",
"489 1175 OFFCURVE",
"489 1022 CURVE SMOOTH",
"489 866 OFFCURVE",
"465 805 OFFCURVE",
"414 805 CURVE SMOOTH",
"363 805 OFFCURVE",
"338 869 OFFCURVE",
"338 1022 CURVE SMOOTH",
"338 1173 OFFCURVE",
"362 1239 OFFCURVE",
"414 1239 CURVE SMOOTH"
);
},
{
closed = 1;
nodes = (
"174 1483 OFFCURVE",
"37 1319 OFFCURVE",
"37 1026 CURVE SMOOTH",
"37 885 OFFCURVE",
"70 772 OFFCURVE",
"137 689 CURVE SMOOTH",
"204 606 OFFCURVE",
"295 565 OFFCURVE",
"410 565 CURVE SMOOTH",
"654 565 OFFCURVE",
"791 733 OFFCURVE",
"791 1026 CURVE SMOOTH",
"791 1167 OFFCURVE",
"757 1278 OFFCURVE",
"688 1360 CURVE SMOOTH",
"619 1442 OFFCURVE",
"527 1483 OFFCURVE",
"410 1483 CURVE SMOOTH"
);
},
{
closed = 1;
nodes = (
"1583 657 OFFCURVE",
"1602 573 OFFCURVE",
"1602 440 CURVE SMOOTH",
"1602 307 OFFCURVE",
"1583 223 OFFCURVE",
"1526 223 CURVE SMOOTH",
"1475 223 OFFCURVE",
"1450 287 OFFCURVE",
"1450 440 CURVE SMOOTH",
"1450 591 OFFCURVE",
"1474 657 OFFCURVE",
"1526 657 CURVE SMOOTH"
);
},
{
closed = 1;
nodes = (
"1286 901 OFFCURVE",
"1149 737 OFFCURVE",
"1149 444 CURVE SMOOTH",
"1149 303 OFFCURVE",
"1182 191 OFFCURVE",
"1249 108 CURVE SMOOTH",
"1316 25 OFFCURVE",
"1407 -16 OFFCURVE",
"1522 -16 CURVE SMOOTH",
"1643 -16 OFFCURVE",
"1737 24 OFFCURVE",
"1803 104 CURVE SMOOTH",
"1870 185 OFFCURVE",
"1903 298 OFFCURVE",
"1903 444 CURVE SMOOTH",
"1903 585 OFFCURVE",
"1869 696 OFFCURVE",
"1800 778 CURVE SMOOTH",
"1731 860 OFFCURVE",
"1639 901 OFFCURVE",
"1522 901 CURVE SMOOTH"
);
}
);
width = 1942;
}
);
unicode = 0025;
},
{
glyphname = perthousand;
lastChange = "2013-03-07 06:18:30 +0200";
layers = (
{
layerId = "3B25EE82-5579-4A28-8C59-D985C68457B1";
name = Bold;
paths = (
{
closed = 1;
nodes = (
"1223 1462 LINE",
"412 0 LINE",
"709 0 LINE",
"1520 1462 LINE"
);
},
{
closed = 1;
nodes = (
"465 1239 OFFCURVE",
"489 1175 OFFCURVE",
"489 1022 CURVE SMOOTH",
"489 866 OFFCURVE",
"465 805 OFFCURVE",
"414 805 CURVE SMOOTH",
"363 805 OFFCURVE",
"338 869 OFFCURVE",
"338 1022 CURVE SMOOTH",
"338 1173 OFFCURVE",
"362 1239 OFFCURVE",
"414 1239 CURVE SMOOTH"
);
},
{
closed = 1;
nodes = (
"174 1483 OFFCURVE",
"37 1319 OFFCURVE",
"37 1026 CURVE SMOOTH",
"37 885 OFFCURVE",
"70 772 OFFCURVE",
"137 689 CURVE SMOOTH",
"204 606 OFFCURVE",
"295 565 OFFCURVE",
"410 565 CURVE SMOOTH",
"654 565 OFFCURVE",
"791 733 OFFCURVE",
"791 1026 CURVE SMOOTH",
"791 1167 OFFCURVE",
"757 1278 OFFCURVE",
"688 1360 CURVE SMOOTH",
"619 1442 OFFCURVE",
"527 1483 OFFCURVE",
"410 1483 CURVE SMOOTH"
);
},
{
closed = 1;
nodes = (
"1583 657 OFFCURVE",
"1602 573 OFFCURVE",
"1602 440 CURVE SMOOTH",
"1602 307 OFFCURVE",
"1583 223 OFFCURVE",
"1526 223 CURVE SMOOTH",
"1475 223 OFFCURVE",
"1450 287 OFFCURVE",
"1450 440 CURVE SMOOTH",
"1450 591 OFFCURVE",
"1474 657 OFFCURVE",
"1526 657 CURVE SMOOTH"
);
},
{
closed = 1;
nodes = (
"1286 901 OFFCURVE",
"1149 737 OFFCURVE",
"1149 444 CURVE SMOOTH",
"1149 303 OFFCURVE",
"1182 191 OFFCURVE",
"1249 108 CURVE SMOOTH",
"1316 25 OFFCURVE",
"1407 -16 OFFCURVE",
"1522 -16 CURVE SMOOTH",
"1643 -16 OFFCURVE",
"1737 24 OFFCURVE",
"1803 104 CURVE SMOOTH",
"1870 185 OFFCURVE",
"1903 298 OFFCURVE",
"1903 444 CURVE SMOOTH",
"1903 585 OFFCURVE",
"1869 696 OFFCURVE",
"1800 778 CURVE SMOOTH",
"1731 860 OFFCURVE",
"1639 901 OFFCURVE",
"1522 901 CURVE SMOOTH"
);
},
{
closed = 1;
nodes = (
"2400 657 OFFCURVE",
"2419 573 OFFCURVE",
"2419 440 CURVE SMOOTH",
"2419 307 OFFCURVE",
"2400 223 OFFCURVE",
"2343 223 CURVE SMOOTH",
"2292 223 OFFCURVE",
"2267 295 OFFCURVE",
"2267 440 CURVE SMOOTH",
"2267 573 OFFCURVE",
"2286 657 OFFCURVE",
"2343 657 CURVE SMOOTH"
);
},
{
closed = 1;
nodes = (
"2103 901 OFFCURVE",
"1966 737 OFFCURVE",
"1966 444 CURVE SMOOTH",
"1966 303 OFFCURVE",
"2000 191 OFFCURVE",
"2067 108 CURVE SMOOTH",
"2135 25 OFFCURVE",
"2226 -16 OFFCURVE",
"2339 -16 CURVE SMOOTH",
"2579 -16 OFFCURVE",
"2720 147 OFFCURVE",
"2720 444 CURVE SMOOTH",
"2720 585 OFFCURVE",
"2686 696 OFFCURVE",
"2617 778 CURVE SMOOTH",
"2548 860 OFFCURVE",
"2456 901 OFFCURVE",
"2339 901 CURVE SMOOTH"
);
}
);
width = 2757;
}
);
unicode = 2030;
},
{
glyphname = plus;
lastChange = "2013-03-07 06:18:30 +0200";
layers = (
{
layerId = "3B25EE82-5579-4A28-8C59-D985C68457B1";
name = Bold;
paths = (
{
closed = 1;
nodes = (
"444 1223 LINE",
"444 856 LINE",
"72 856 LINE",
"72 588 LINE",
"444 588 LINE",
"444 227 LINE",
"713 227 LINE",
"713 588 LINE",
"1085 588 LINE",
"1085 856 LINE",
"713 856 LINE",
"713 1223 LINE"
);
}
);
width = 1159;
}
);
unicode = 002B;
},
{
glyphname = plusminus;
lastChange = "2013-03-07 06:18:30 +0200";
layers = (
{
layerId = "3B25EE82-5579-4A28-8C59-D985C68457B1";
name = Bold;
paths = (
{
closed = 1;
nodes = (
"444 1319 LINE",
"444 952 LINE",
"72 952 LINE",
"72 684 LINE",
"444 684 LINE",
"444 324 LINE",
"713 324 LINE",
"713 684 LINE",
"1085 684 LINE",
"1085 952 LINE",
"713 952 LINE",
"713 1319 LINE"
);
},
{
closed = 1;
nodes = (
"72 268 LINE",
"72 0 LINE",
"1085 0 LINE",
"1085 268 LINE"
);
}
);
width = 1159;
}
);
unicode = 00B1;
},
{
glyphname = ampersand;
lastChange = "2013-03-07 06:18:30 +0200";
layers = (
{
layerId = "3B25EE82-5579-4A28-8C59-D985C68457B1";
name = Bold;
paths = (
{
closed = 1;
nodes = (
"532 1481 OFFCURVE",
"419 1450 OFFCURVE",
"336 1387 CURVE SMOOTH",
"254 1324 OFFCURVE",
"213 1240 OFFCURVE",
"213 1133 CURVE SMOOTH",
"213 1001 OFFCURVE",
"261 900 OFFCURVE",
"344 807 CURVE",
"163 714 OFFCURVE",
"72 581 OFFCURVE",
"72 406 CURVE SMOOTH",
"66 159 OFFCURVE",
"285 -24 OFFCURVE",
"602 -20 CURVE SMOOTH",
"725 -20 OFFCURVE",
"818 -5 OFFCURVE",
"894 23 CURVE SMOOTH",
"933 38 OFFCURVE",
"981 64 OFFCURVE",
"1042 102 CURVE",
"1141 0 LINE",
"1647 0 LINE",
"1327 307 LINE",
"1381 373 OFFCURVE",
"1429 452 OFFCURVE",
"1472 544 CURVE SMOOTH",
"1515 637 OFFCURVE",
"1547 729 OFFCURVE",
"1567 821 CURVE",
"1161 821 LINE",
"1142 724 OFFCURVE",
"1107 638 OFFCURVE",
"1057 561 CURVE",
"858 750 LINE",
"1041 861 OFFCURVE",
"1122 984 OFFCURVE",
"1122 1133 CURVE SMOOTH",
"1122 1240 OFFCURVE",
"1083 1325 OFFCURVE",
"1004 1387 CURVE SMOOTH",
"926 1450 OFFCURVE",
"817 1481 OFFCURVE",
"676 1481 CURVE SMOOTH"
);
},
{
closed = 1;
nodes = (
"805 340 LINE",
"774 315 OFFCURVE",
"715 291 OFFCURVE",
"639 291 CURVE SMOOTH",
"540 291 OFFCURVE",
"475 350 OFFCURVE",
"475 434 CURVE SMOOTH",
"475 499 OFFCURVE",
"502 551 OFFCURVE",
"557 592 CURVE"
);
},
{
closed = 1;
nodes = (
"727 1225 OFFCURVE",
"770 1198 OFFCURVE",
"770 1133 CURVE SMOOTH",
"770 1070 OFFCURVE",
"729 1008 OFFCURVE",
"653 965 CURVE",
"594 1018 OFFCURVE",
"565 1070 OFFCURVE",
"565 1120 CURVE SMOOTH",
"565 1193 OFFCURVE",
"614 1225 OFFCURVE",
"670 1225 CURVE SMOOTH"
);
}
);
width = 1636;
}
);
unicode = 0026;
},
{
glyphname = asciicircum;
lastChange = "2013-03-07 06:18:30 +0200";
layers = (
{
layerId = "3B25EE82-5579-4A28-8C59-D985C68457B1";
name = Bold;
paths = (
{
closed = 1;
nodes = (
"424 1468 LINE",
"-16 502 LINE",
"270 502 LINE",
"394 788 LINE",
"518 1079 LINE",
"807 502 LINE",
"1102 502 LINE",
"594 1468 LINE"
);
}
);
width = 1075;
}
);
unicode = 005E;
},
{
glyphname = at;
lastChange = "2013-03-07 06:18:30 +0200";
layers = (
{
layerId = "3B25EE82-5579-4A28-8C59-D985C68457B1";
name = Bold;
paths = (
{
closed = 1;
nodes = (
"799 1481 OFFCURVE",
"647 1445 OFFCURVE",
"512 1372 CURVE SMOOTH",
"378 1300 OFFCURVE",
"273 1197 OFFCURVE",
"196 1063 CURVE SMOOTH",
"120 930 OFFCURVE",
"82 779 OFFCURVE",
"82 610 CURVE SMOOTH",
"82 371 OFFCURVE",
"156 183 OFFCURVE",
"303 48 CURVE SMOOTH",
"451 -87 OFFCURVE",
"654 -154 OFFCURVE",
"913 -154 CURVE SMOOTH",
"1097 -154 OFFCURVE",
"1264 -122 OFFCURVE",
"1413 -59 CURVE",
"1413 170 LINE",
"1241 109 OFFCURVE",
"1054 74 OFFCURVE",
"899 74 CURVE SMOOTH",
"726 74 OFFCURVE",
"591 120 OFFCURVE",
"496 212 CURVE SMOOTH",
"401 305 OFFCURVE",
"354 436 OFFCURVE",
"354 606 CURVE",
"350 1001 OFFCURVE",
"593 1261 OFFCURVE",
"972 1257 CURVE SMOOTH",
"1138 1257 OFFCURVE",
"1266 1214 OFFCURVE",
"1356 1127 CURVE SMOOTH",
"1446 1040 OFFCURVE",
"1491 917 OFFCURVE",
"1491 758 CURVE SMOOTH",
"1491 669 OFFCURVE",
"1480 596 OFFCURVE",
"1458 538 CURVE SMOOTH",
"1437 480 OFFCURVE",
"1409 451 OFFCURVE",
"1374 451 CURVE SMOOTH",
"1341 451 OFFCURVE",
"1325 480 OFFCURVE",
"1325 537 CURVE SMOOTH",
"1327 631 LINE",
"1348 1053 LINE",
"1294 1072 OFFCURVE",
"1234 1086 OFFCURVE",
"1169 1097 CURVE SMOOTH",
"1104 1108 OFFCURVE",
"1045 1114 OFFCURVE",
"990 1114 CURVE SMOOTH",
"682 1118 OFFCURVE",
"474 921 OFFCURVE",
"479 639 CURVE SMOOTH",
"479 383 OFFCURVE",
"614 233 OFFCURVE",
"858 233 CURVE SMOOTH",
"960 233 OFFCURVE",
"1047 273 OFFCURVE",
"1118 352 CURVE",
"1133 352 LINE",
"1181 277 OFFCURVE",
"1271 233 OFFCURVE",
"1376 233 CURVE SMOOTH",
"1523 233 OFFCURVE",
"1642 330 OFFCURVE",
"1706 493 CURVE SMOOTH",
"1739 574 OFFCURVE",
"1755 662 OFFCURVE",
"1755 756 CURVE SMOOTH",
"1755 1047 OFFCURVE",
"1622 1273 OFFCURVE",
"1382 1392 CURVE SMOOTH",
"1263 1451 OFFCURVE",
"1125 1481 OFFCURVE",
"968 1481 CURVE SMOOTH"
);
},
{
closed = 1;
nodes = (
"1014 895 OFFCURVE",
"1036 893 OFFCURVE",
"1063 889 CURVE",
"1053 733 LINE SMOOTH",
"1046 628 OFFCURVE",
"1030 554 OFFCURVE",
"1006 513 CURVE SMOOTH",
"981 472 OFFCURVE",
"944 451 OFFCURVE",
"893 451 CURVE SMOOTH",
"813 451 OFFCURVE",
"760 508 OFFCURVE",
"760 641 CURVE SMOOTH",
"760 801 OFFCURVE",
"851 895 OFFCURVE",
"994 895 CURVE SMOOTH"
);
}
);
width = 1837;
}
);
unicode = 0040;
},
{
glyphname = bar;
lastChange = "2013-03-07 06:18:30 +0200";
layers = (
{
layerId = "3B25EE82-5579-4A28-8C59-D985C68457B1";
name = Bold;
paths = (
{
closed = 1;
nodes = (
"387 1556 LINE",
"387 -446 LINE",
"655 -446 LINE",
"655 1556 LINE"
);
}
);
width = 1042;
}
);
unicode = 007C;
},
{
glyphname = brokenbar;
lastChange = "2013-03-07 06:18:30 +0200";
layers = (
{
layerId = "3B25EE82-5579-4A28-8C59-D985C68457B1";
name = Bold;
paths = (
{
closed = 1;
nodes = (
"387 1556 LINE",
"387 717 LINE",
"655 717 LINE",
"655 1556 LINE"
);
},
{
closed = 1;
nodes = (
"387 393 LINE",
"387 -446 LINE",
"655 -446 LINE",
"655 393 LINE"
);
}
);
width = 1042;
}
);
unicode = 00A6;
},
{
glyphname = copyright;
lastChange = "2013-03-07 06:18:30 +0200";
layers = (
{
layerId = "3B25EE82-5579-4A28-8C59-D985C68457B1";
name = Bold;
paths = (
{
closed = 1;
nodes = (
"709 1483 OFFCURVE",
"584 1449 OFFCURVE",
"467 1382 CURVE SMOOTH",
"350 1315 OFFCURVE",
"259 1223 OFFCURVE",
"192 1106 CURVE SMOOTH",
"125 988 OFFCURVE",
"92 864 OFFCURVE",
"92 731 CURVE SMOOTH",
"92 599 OFFCURVE",
"124 475 OFFCURVE",
"189 360 CURVE SMOOTH",
"254 245 OFFCURVE",
"345 152 OFFCURVE",
"462 83 CURVE SMOOTH",
"579 14 OFFCURVE",
"706 -20 OFFCURVE",
"844 -20 CURVE SMOOTH",
"980 -20 OFFCURVE",
"1106 14 OFFCURVE",
"1221 81 CURVE SMOOTH",
"1336 148 OFFCURVE",
"1427 239 OFFCURVE",
"1494 354 CURVE SMOOTH",
"1561 469 OFFCURVE",
"1595 595 OFFCURVE",
"1595 731 CURVE SMOOTH",
"1595 870 OFFCURVE",
"1560 996 OFFCURVE",
"1491 1114 CURVE SMOOTH",
"1422 1231 OFFCURVE",
"1329 1321 OFFCURVE",
"1214 1386 CURVE SMOOTH",
"1099 1451 OFFCURVE",
"974 1483 OFFCURVE",
"844 1483 CURVE SMOOTH"
);
},
{
closed = 1;
nodes = (
"729 1198 OFFCURVE",
"622 1157 OFFCURVE",
"547 1075 CURVE SMOOTH",
"472 992 OFFCURVE",
"434 880 OFFCURVE",
"434 735 CURVE SMOOTH",
"434 585 OFFCURVE",
"473 469 OFFCURVE",
"550 386 CURVE SMOOTH",
"628 303 OFFCURVE",
"738 262 OFFCURVE",
"879 262 CURVE SMOOTH",
"975 262 OFFCURVE",
"1067 283 OFFCURVE",
"1151 326 CURVE",
"1151 557 LINE",
"1071 512 OFFCURVE",
"984 489 OFFCURVE",
"893 489 CURVE SMOOTH",
"772 489 OFFCURVE",
"715 560 OFFCURVE",
"715 731 CURVE SMOOTH",
"715 888 OFFCURVE",
"779 970 OFFCURVE",
"887 970 CURVE SMOOTH",
"957 970 OFFCURVE",
"1027 952 OFFCURVE",
"1098 915 CURVE",
"1190 1120 LINE",
"1086 1172 OFFCURVE",
"978 1198 OFFCURVE",
"868 1198 CURVE SMOOTH"
);
},
{
closed = 1;
nodes = (
"951 1319 OFFCURVE",
"1049 1292 OFFCURVE",
"1140 1239 CURVE SMOOTH",
"1231 1186 OFFCURVE",
"1303 1115 OFFCURVE",
"1354 1024 CURVE SMOOTH",
"1406 933 OFFCURVE",
"1432 836 OFFCURVE",
"1432 731 CURVE SMOOTH",
"1432 626 OFFCURVE",
"1406 527 OFFCURVE",
"1353 436 CURVE SMOOTH",
"1300 345 OFFCURVE",
"1229 274 OFFCURVE",
"1138 221 CURVE SMOOTH",
"1047 169 OFFCURVE",
"949 143 OFFCURVE",
"844 143 CURVE SMOOTH",
"739 143 OFFCURVE",
"642 169 OFFCURVE",
"551 220 CURVE SMOOTH",
"460 272 OFFCURVE",
"388 344 OFFCURVE",
"335 435 CURVE SMOOTH",
"282 527 OFFCURVE",
"256 626 OFFCURVE",
"256 731 CURVE SMOOTH",
"256 836 OFFCURVE",
"282 934 OFFCURVE",
"334 1025 CURVE SMOOTH",
"387 1116 OFFCURVE",
"458 1188 OFFCURVE",
"549 1240 CURVE SMOOTH",
"640 1293 OFFCURVE",
"739 1319 OFFCURVE",
"844 1319 CURVE SMOOTH"
);
}
);
width = 1688;
}
);
unicode = 00A9;
},
{
glyphname = dagger;
lastChange = "2013-03-07 06:18:30 +0200";
layers = (
{
layerId = "3B25EE82-5579-4A28-8C59-D985C68457B1";
name = Bold;
paths = (
{
closed = 1;
nodes = (
"350 1556 LINE",
"410 1139 LINE",
"111 1169 LINE",
"111 883 LINE",
"410 913 LINE",
"350 0 LINE",
"680 0 LINE",
"621 913 LINE",
"940 883 LINE",
"940 1169 LINE",
"621 1139 LINE",
"680 1556 LINE"
);
}
);
width = 1051;
}
);
unicode = 2020;
},
{
glyphname = daggerdbl;
lastChange = "2013-03-07 06:18:30 +0200";
layers = (
{
layerId = "3B25EE82-5579-4A28-8C59-D985C68457B1";
name = Bold;
paths = (
{
closed = 1;
nodes = (
"375 1556 LINE",
"434 1182 LINE",
"111 1212 LINE",
"111 926 LINE",
"434 956 LINE",
"383 786 LINE",
"434 600 LINE",
"111 631 LINE",
"111 344 LINE",
"434 375 LINE",
"375 0 LINE",
"702 0 LINE",
"643 375 LINE",
"963 344 LINE",
"963 631 LINE",
"643 600 LINE",
"692 786 LINE",
"643 956 LINE",
"963 926 LINE",
"963 1212 LINE",
"643 1182 LINE",
"702 1556 LINE"
);
}
);
width = 1073;
}
);
unicode = 2021;
},
{
glyphname = degree;
lastChange = "2013-03-07 06:18:30 +0200";
layers = (
{
layerId = "3B25EE82-5579-4A28-8C59-D985C68457B1";
name = Bold;
paths = (
{
closed = 1;
nodes = (
"234 1488 OFFCURVE",
"57 1307 OFFCURVE",
"63 1114 CURVE",
"57 919 OFFCURVE",
"234 745 OFFCURVE",
"432 750 CURVE",
"634 745 OFFCURVE",
"806 921 OFFCURVE",
"801 1114 CURVE",
"807 1308 OFFCURVE",
"630 1487 OFFCURVE",
"432 1483 CURVE"
);
},
{
closed = 1;
nodes = (
"469 1247 OFFCURVE",
"500 1233 OFFCURVE",
"525 1206 CURVE SMOOTH",
"550 1179 OFFCURVE",
"563 1149 OFFCURVE",
"563 1114 CURVE SMOOTH",
"563 1081 OFFCURVE",
"550 1052 OFFCURVE",
"524 1026 CURVE",
"499 999 OFFCURVE",
"468 986 OFFCURVE",
"432 986 CURVE SMOOTH",
"396 986 OFFCURVE",
"365 999 OFFCURVE",
"339 1025 CURVE SMOOTH",
"314 1051 OFFCURVE",
"301 1081 OFFCURVE",
"301 1114 CURVE SMOOTH",
"301 1149 OFFCURVE",
"313 1179 OFFCURVE",
"338 1206 CURVE SMOOTH",
"363 1233 OFFCURVE",
"395 1247 OFFCURVE",
"432 1247 CURVE SMOOTH"
);
}
);
width = 864;
}
);
unicode = 00B0;
},
{
glyphname = paragraph;
lastChange = "2013-03-07 06:18:30 +0200";
layers = (
{
layerId = "3B25EE82-5579-4A28-8C59-D985C68457B1";
name = Bold;
paths = (
{
closed = 1;
nodes = (
"553 1556 LINE SMOOTH",
"238 1556 OFFCURVE",
"102 1383 OFFCURVE",
"102 1042 CURVE SMOOTH",
"102 707 OFFCURVE",
"234 541 OFFCURVE",
"522 541 CURVE SMOOTH",
"569 541 OFFCURVE",
"611 547 OFFCURVE",
"647 559 CURVE",
"647 -260 LINE",
"838 -260 LINE",
"838 1327 LINE",
"994 1327 LINE",
"994 -260 LINE",
"1186 -260 LINE",
"1186 1556 LINE"
);
}
);
width = 1317;
}
);
unicode = 00B6;
},
{
glyphname = registered;
lastChange = "2013-03-07 06:18:30 +0200";
layers = (
{
layerId = "3B25EE82-5579-4A28-8C59-D985C68457B1";
name = Bold;
paths = (
{
closed = 1;
nodes = (
"709 1483 OFFCURVE",
"584 1449 OFFCURVE",
"467 1382 CURVE SMOOTH",
"350 1315 OFFCURVE",
"259 1223 OFFCURVE",
"192 1106 CURVE SMOOTH",
"125 988 OFFCURVE",
"92 864 OFFCURVE",
"92 731 CURVE SMOOTH",
"92 599 OFFCURVE",
"124 475 OFFCURVE",
"189 360 CURVE SMOOTH",
"254 245 OFFCURVE",
"345 152 OFFCURVE",
"462 83 CURVE SMOOTH",
"579 14 OFFCURVE",
"706 -20 OFFCURVE",
"844 -20 CURVE SMOOTH",
"980 -20 OFFCURVE",
"1106 14 OFFCURVE",
"1221 81 CURVE SMOOTH",
"1336 148 OFFCURVE",
"1427 239 OFFCURVE",
"1494 354 CURVE SMOOTH",
"1561 469 OFFCURVE",
"1595 595 OFFCURVE",
"1595 731 CURVE SMOOTH",
"1595 870 OFFCURVE",
"1560 996 OFFCURVE",
"1491 1114 CURVE SMOOTH",
"1422 1231 OFFCURVE",
"1329 1321 OFFCURVE",
"1214 1386 CURVE SMOOTH",
"1099 1451 OFFCURVE",
"974 1483 OFFCURVE",
"844 1483 CURVE SMOOTH"
);
},
{
closed = 1;
nodes = (
"951 1319 OFFCURVE",
"1049 1292 OFFCURVE",
"1140 1239 CURVE SMOOTH",
"1231 1186 OFFCURVE",
"1303 1115 OFFCURVE",
"1354 1024 CURVE SMOOTH",
"1406 933 OFFCURVE",
"1432 836 OFFCURVE",
"1432 731 CURVE SMOOTH",
"1432 626 OFFCURVE",
"1406 527 OFFCURVE",
"1353 436 CURVE SMOOTH",
"1300 345 OFFCURVE",
"1229 274 OFFCURVE",
"1138 221 CURVE SMOOTH",
"1047 169 OFFCURVE",
"949 143 OFFCURVE",
"844 143 CURVE SMOOTH",
"739 143 OFFCURVE",
"642 169 OFFCURVE",
"551 220 CURVE SMOOTH",
"460 272 OFFCURVE",
"388 344 OFFCURVE",
"335 435 CURVE SMOOTH",
"282 527 OFFCURVE",
"256 626 OFFCURVE",
"256 731 CURVE SMOOTH",
"256 836 OFFCURVE",
"282 934 OFFCURVE",
"334 1025 CURVE SMOOTH",
"387 1116 OFFCURVE",
"458 1188 OFFCURVE",
"549 1240 CURVE SMOOTH",
"640 1293 OFFCURVE",
"739 1319 OFFCURVE",
"844 1319 CURVE SMOOTH"
);
},
{
closed = 1;
nodes = (
"506 1188 LINE",
"506 313 LINE",
"786 313 LINE",
"786 633 LINE",
"821 633 LINE",
"967 313 LINE",
"1257 313 LINE",
"1063 676 LINE",
"1163 724 OFFCURVE",
"1204 802 OFFCURVE",
"1204 918 CURVE SMOOTH",
"1204 1098 OFFCURVE",
"1068 1188 OFFCURVE",
"797 1188 CURVE SMOOTH"
);
},
{
closed = 1;
nodes = (
"890 992 OFFCURVE",
"922 969 OFFCURVE",
"922 907 CURVE SMOOTH",
"922 834 OFFCURVE",
"874 809 OFFCURVE",
"797 809 CURVE SMOOTH",
"786 809 LINE",
"786 992 LINE",
"799 992 LINE SMOOTH"
);
}
);
width = 1688;
}
);
unicode = 00AE;
},
{
glyphname = section;
lastChange = "2013-03-07 06:18:30 +0200";
layers = (
{
layerId = "3B25EE82-5579-4A28-8C59-D985C68457B1";
name = Bold;
paths = (
{
closed = 1;
nodes = (
"412 1577 OFFCURVE",
"314 1551 OFFCURVE",
"240 1498 CURVE SMOOTH",
"166 1445 OFFCURVE",
"129 1373 OFFCURVE",
"129 1282 CURVE SMOOTH",
"129 1186 OFFCURVE",
"176 1104 OFFCURVE",
"270 1036 CURVE",
"166 972 OFFCURVE",
"106 888 OFFCURVE",
"106 803 CURVE SMOOTH",
"106 696 OFFCURVE",
"149 621 OFFCURVE",
"234 556 CURVE SMOOTH",
"277 523 OFFCURVE",
"346 486 OFFCURVE",
"440 444 CURVE SMOOTH",
"512 412 OFFCURVE",
"558 386 OFFCURVE",
"579 365 CURVE SMOOTH",
"600 345 OFFCURVE",
"610 321 OFFCURVE",
"610 293 CURVE SMOOTH",
"610 229 OFFCURVE",
"564 197 OFFCURVE",
"471 197 CURVE SMOOTH",
"425 197 OFFCURVE",
"368 208 OFFCURVE",
"299 229 CURVE SMOOTH",
"230 250 OFFCURVE",
"170 276 OFFCURVE",
"117 305 CURVE",
"117 61 LINE",
"216 4 OFFCURVE",
"333 -25 OFFCURVE",
"469 -25 CURVE SMOOTH",
"604 -25 OFFCURVE",
"711 4 OFFCURVE",
"788 63 CURVE SMOOTH",
"866 122 OFFCURVE",
"905 202 OFFCURVE",
"905 301 CURVE SMOOTH",
"905 401 OFFCURVE",
"863 482 OFFCURVE",
"780 545 CURVE",
"892 625 OFFCURVE",
"928 700 OFFCURVE",
"928 803 CURVE SMOOTH",
"928 932 OFFCURVE",
"831 1038 OFFCURVE",
"598 1133 CURVE SMOOTH",
"487 1178 OFFCURVE",
"424 1225 OFFCURVE",
"424 1282 CURVE SMOOTH",
"424 1331 OFFCURVE",
"460 1356 OFFCURVE",
"532 1356 CURVE SMOOTH",
"605 1356 OFFCURVE",
"710 1323 OFFCURVE",
"807 1270 CURVE",
"905 1491 LINE",
"786 1548 OFFCURVE",
"662 1577 OFFCURVE",
"535 1577 CURVE SMOOTH"
);
},
{
closed = 1;
nodes = (
"586 881 OFFCURVE",
"637 828 OFFCURVE",
"637 752 CURVE SMOOTH",
"637 712 OFFCURVE",
"623 676 OFFCURVE",
"596 645 CURVE",
"522 684 OFFCURVE",
"470 716 OFFCURVE",
"441 743 CURVE SMOOTH",
"412 770 OFFCURVE",
"397 800 OFFCURVE",
"397 834 CURVE SMOOTH",
"397 881 OFFCURVE",
"416 915 OFFCURVE",
"455 936 CURVE"
);
}
);
width = 1024;
}
);
unicode = 00A7;
},
{
glyphname = trademark;
lastChange = "2013-03-07 06:18:30 +0200";
layers = (
{
layerId = "3B25EE82-5579-4A28-8C59-D985C68457B1";
name = Bold;
paths = (
{
closed = 1;
nodes = (
"1219 1462 LINE",
"1069 982 LINE",
"932 1462 LINE",
"645 1462 LINE",
"645 741 LINE",
"838 741 LINE",
"838 1141 LINE SMOOTH",
"838 1177 OFFCURVE",
"836 1214 OFFCURVE",
"831 1251 CURVE",
"840 1251 LINE",
"982 741 LINE",
"1147 741 LINE",
"1298 1251 LINE",
"1307 1251 LINE",
"1302 1223 OFFCURVE",
"1300 1186 OFFCURVE",
"1300 1141 CURVE SMOOTH",
"1300 741 LINE",
"1495 741 LINE",
"1495 1462 LINE"
);
},
{
closed = 1;
nodes = (
"37 1462 LINE",
"37 1286 LINE",
"207 1286 LINE",
"207 741 LINE",
"403 741 LINE",
"403 1286 LINE",
"573 1286 LINE",
"573 1462 LINE"
);
}
);
width = 1577;
}
);
unicode = 2122;
},
{
glyphname = acute;
lastChange = "2013-03-07 06:18:30 +0200";
layers = (
{
anchors = (
{
name = _top;
position = "{610, 1118}";
}
);
layerId = "3B25EE82-5579-4A28-8C59-D985C68457B1";
name = Bold;
paths = (
{
closed = 1;
nodes = (
"528 1569 LINE",
"510 1544 OFFCURVE",
"487 1515 OFFCURVE",
"459 1483 CURVE SMOOTH",
"432 1451 OFFCURVE",
"367 1380 OFFCURVE",
"264 1270 CURVE",
"264 1241 LINE",
"524 1241 LINE",
"572 1271 OFFCURVE",
"643 1319 OFFCURVE",
"736 1385 CURVE SMOOTH",
"829 1451 OFFCURVE",
"903 1505 OFFCURVE",
"956 1548 CURVE",
"956 1569 LINE"
);
}
);
width = 1225;
}
);
unicode = 00B4;
},
{
glyphname = breve;
lastChange = "2013-03-07 06:18:30 +0200";
layers = (
{
layerId = "3B25EE82-5579-4A28-8C59-D985C68457B1";
name = Bold;
paths = (
{
closed = 1;
nodes = (
"799 1612 LINE",
"774 1521 OFFCURVE",
"718 1481 OFFCURVE",
"610 1481 CURVE SMOOTH",
"483 1481 OFFCURVE",
"447 1508 OFFCURVE",
"420 1612 CURVE",
"209 1612 LINE",
"221 1371 OFFCURVE",
"361 1241 OFFCURVE",
"610 1241 CURVE SMOOTH",
"853 1241 OFFCURVE",
"1005 1384 OFFCURVE",
"1018 1612 CURVE"
);
}
);
width = 1225;
}
);
unicode = 02D8;
},
{
glyphname = caron;
lastChange = "2013-03-07 06:18:30 +0200";
layers = (
{
layerId = "3B25EE82-5579-4A28-8C59-D985C68457B1";
name = Bold;
paths = (
{
closed = 1;
nodes = (
"817 1569 LINE",
"761 1537 OFFCURVE",
"694 1487 OFFCURVE",
"616 1419 CURVE",
"533 1490 OFFCURVE",
"468 1540 OFFCURVE",
"422 1569 CURVE",
"164 1569 LINE",
"164 1540 LINE",
"265 1441 OFFCURVE",
"370 1321 OFFCURVE",
"422 1241 CURVE",
"815 1241 LINE",
"874 1328 OFFCURVE",
"983 1452 OFFCURVE",
"1071 1540 CURVE",
"1071 1569 LINE"
);
}
);
width = 1237;
}
);
unicode = 02C7;
},
{
glyphname = cedilla;
lastChange = "2013-03-07 06:18:30 +0200";
layers = (
{
anchors = (
{
name = _bottom;
position = "{153.5, 0}";
}
);
layerId = "3B25EE82-5579-4A28-8C59-D985C68457B1";
name = Bold;
paths = (
{
closed = 1;
nodes = (
"33 0 LINE",
"-39 -139 LINE",
"49 -159 OFFCURVE",
"109 -194 OFFCURVE",
"109 -238 CURVE SMOOTH",
"109 -269 OFFCURVE",
"92 -285 OFFCURVE",
"57 -285 CURVE SMOOTH",
"14 -285 OFFCURVE",
"-35 -276 OFFCURVE",
"-90 -258 CURVE",
"-90 -463 LINE",
"-39 -482 OFFCURVE",
"32 -492 OFFCURVE",
"123 -492 CURVE SMOOTH",
"206 -492 OFFCURVE",
"272 -470 OFFCURVE",
"322 -426 CURVE SMOOTH",
"372 -383 OFFCURVE",
"397 -325 OFFCURVE",
"397 -252 CURVE SMOOTH",
"397 -149 OFFCURVE",
"355 -81 OFFCURVE",
"227 -29 CURVE",
"236 0 LINE"
);
}
);
width = 383;
}
);
unicode = 00B8;
},
{
glyphname = circumflex;
lastChange = "2013-03-07 06:18:30 +0200";
layers = (
{
anchors = (
{
name = _top;
position = "{617.5, 1118}";
}
);
layerId = "3B25EE82-5579-4A28-8C59-D985C68457B1";
name = Bold;
paths = (
{
closed = 1;
nodes = (
"422 1569 LINE",
"397 1530 OFFCURVE",
"359 1482 OFFCURVE",
"308 1423 CURVE SMOOTH",
"258 1364 OFFCURVE",
"210 1313 OFFCURVE",
"164 1270 CURVE",
"164 1241 LINE",
"422 1241 LINE",
"468 1270 OFFCURVE",
"533 1320 OFFCURVE",
"616 1391 CURVE",
"694 1323 OFFCURVE",
"761 1273 OFFCURVE",
"817 1241 CURVE",
"1071 1241 LINE",
"1071 1270 LINE",
"963 1378 OFFCURVE",
"878 1478 OFFCURVE",
"815 1569 CURVE"
);
}
);
width = 1237;
}
);
unicode = 02C6;
},
{
glyphname = dieresis;
lastChange = "2013-03-07 06:18:30 +0200";
layers = (
{
anchors = (
{
name = _top;
position = "{635, 1118}";
}
);
layerId = "3B25EE82-5579-4A28-8C59-D985C68457B1";
name = Bold;
paths = (
{
closed = 1;
nodes = (
"767 1571 OFFCURVE",
"702 1513 OFFCURVE",
"702 1413 CURVE SMOOTH",
"702 1316 OFFCURVE",
"766 1257 OFFCURVE",
"874 1257 CURVE SMOOTH",
"980 1257 OFFCURVE",
"1047 1318 OFFCURVE",
"1047 1413 CURVE SMOOTH",
"1047 1509 OFFCURVE",
"980 1571 OFFCURVE",
"874 1571 CURVE SMOOTH"
);
},
{
closed = 1;
nodes = (
"289 1571 OFFCURVE",
"223 1513 OFFCURVE",
"223 1413 CURVE SMOOTH",
"223 1314 OFFCURVE",
"289 1257 OFFCURVE",
"393 1257 CURVE SMOOTH",
"498 1257 OFFCURVE",
"565 1318 OFFCURVE",
"565 1413 CURVE SMOOTH",
"565 1510 OFFCURVE",
"498 1571 OFFCURVE",
"393 1571 CURVE SMOOTH"
);
}
);
width = 1233;
}
);
unicode = 00A8;
},
{
glyphname = dotaccent;
lastChange = "2013-03-07 06:18:30 +0200";
layers = (
{
layerId = "3B25EE82-5579-4A28-8C59-D985C68457B1";
name = Bold;
paths = (
{
closed = 1;
nodes = (
"189 1589 OFFCURVE",
"127 1532 OFFCURVE",
"127 1415 CURVE SMOOTH",
"127 1300 OFFCURVE",
"196 1243 OFFCURVE",
"334 1243 CURVE SMOOTH",
"473 1243 OFFCURVE",
"543 1300 OFFCURVE",
"543 1415 CURVE SMOOTH",
"543 1530 OFFCURVE",
"479 1589 OFFCURVE",
"334 1589 CURVE SMOOTH"
);
}
);
width = 666;
}
);
unicode = 02D9;
},
{
glyphname = grave;
lastChange = "2013-03-07 06:18:30 +0200";
layers = (
{
anchors = (
{
name = _top;
position = "{610, 1118}";
}
);
layerId = "3B25EE82-5579-4A28-8C59-D985C68457B1";
name = Bold;
paths = (
{
closed = 1;
nodes = (
"264 1569 LINE",
"264 1548 LINE",
"327 1499 OFFCURVE",
"403 1442 OFFCURVE",
"492 1379 CURVE SMOOTH",
"582 1316 OFFCURVE",
"650 1270 OFFCURVE",
"696 1241 CURVE",
"956 1241 LINE",
"956 1270 LINE",
"897 1336 LINE SMOOTH",
"796 1445 OFFCURVE",
"729 1522 OFFCURVE",
"694 1569 CURVE"
);
}
);
width = 1225;
}
);
unicode = 0060;
},
{
glyphname = hungarumlaut;
lastChange = "2013-03-07 06:18:30 +0200";
layers = (
{
layerId = "3B25EE82-5579-4A28-8C59-D985C68457B1";
name = Bold;
paths = (
{
closed = 1;
nodes = (
"748 1569 LINE",
"720 1518 OFFCURVE",
"667 1440 OFFCURVE",
"590 1337 CURVE SMOOTH",
"541 1270 LINE",
"541 1241 LINE",
"743 1241 LINE",
"906 1350 OFFCURVE",
"1085 1491 OFFCURVE",
"1120 1548 CURVE",
"1120 1569 LINE"
);
},
{
closed = 1;
nodes = (
"285 1569 LINE",
"257 1520 OFFCURVE",
"204 1442 OFFCURVE",
"127 1337 CURVE SMOOTH",
"78 1270 LINE",
"78 1241 LINE",
"281 1241 LINE",
"472 1373 OFFCURVE",
"623 1496 OFFCURVE",
"655 1548 CURVE",
"655 1569 LINE"
);
}
);
width = 1198;
}
);
unicode = 02DD;
},
{
glyphname = ogonek;
lastChange = "2013-03-07 06:18:30 +0200";
layers = (
{
layerId = "3B25EE82-5579-4A28-8C59-D985C68457B1";
name = Bold;
paths = (
{
closed = 1;
nodes = (
"168 0 LINE",
"43 -88 OFFCURVE",
"-6 -168 OFFCURVE",
"-6 -260 CURVE SMOOTH",
"-6 -397 OFFCURVE",
"107 -492 OFFCURVE",
"270 -492 CURVE SMOOTH",
"331 -492 OFFCURVE",
"389 -483 OFFCURVE",
"444 -465 CURVE",
"444 -244 LINE",
"412 -259 OFFCURVE",
"373 -266 OFFCURVE",
"326 -266 CURVE SMOOTH",
"274 -266 OFFCURVE",
"248 -244 OFFCURVE",
"248 -199 CURVE SMOOTH",
"248 -173 OFFCURVE",
"257 -146 OFFCURVE",
"275 -117 CURVE SMOOTH",
"293 -88 OFFCURVE",
"328 -49 OFFCURVE",
"381 0 CURVE"
);
}
);
width = 434;
}
);
unicode = 02DB;
},
{
glyphname = overscore;
lastChange = "2013-03-07 06:18:30 +0200";
layers = (
{
layerId = "3B25EE82-5579-4A28-8C59-D985C68457B1";
name = Bold;
paths = (
{
closed = 1;
nodes = (
"-6 1802 LINE",
"-6 1556 LINE",
"1030 1556 LINE",
"1030 1802 LINE"
);
}
);
width = 1024;
}
);
unicode = 00AF;
},
{
glyphname = ring;
lastChange = "2013-03-07 06:18:30 +0200";
layers = (
{
layerId = "3B25EE82-5579-4A28-8C59-D985C68457B1";
name = Bold;
paths = (
{
closed = 1;
nodes = (
"396 1743 OFFCURVE",
"293 1644 OFFCURVE",
"293 1489 CURVE SMOOTH",
"293 1336 OFFCURVE",
"396 1237 OFFCURVE",
"557 1237 CURVE SMOOTH",
"717 1237 OFFCURVE",
"829 1340 OFFCURVE",
"829 1491 CURVE SMOOTH",
"829 1640 OFFCURVE",
"714 1743 OFFCURVE",
"557 1743 CURVE SMOOTH"
);
},
{
closed = 1;
nodes = (
"604 1573 OFFCURVE",
"641 1540 OFFCURVE",
"641 1489 CURVE SMOOTH",
"641 1440 OFFCURVE",
"604 1405 OFFCURVE",
"557 1405 CURVE SMOOTH",
"501 1405 OFFCURVE",
"473 1440 OFFCURVE",
"473 1489 CURVE SMOOTH",
"473 1540 OFFCURVE",
"510 1573 OFFCURVE",
"557 1573 CURVE SMOOTH"
);
}
);
width = 1120;
}
);
unicode = 02DA;
},
{
glyphname = tilde;
lastChange = "2013-03-07 06:18:30 +0200";
layers = (
{
anchors = (
{
name = _top;
position = "{597, 1118}";
}
);
layerId = "3B25EE82-5579-4A28-8C59-D985C68457B1";
name = Bold;
paths = (
{
closed = 1;
nodes = (
"836 1581 LINE",
"824 1517 OFFCURVE",
"803 1483 OFFCURVE",
"764 1483 CURVE SMOOTH",
"663 1483 OFFCURVE",
"529 1579 OFFCURVE",
"428 1579 CURVE SMOOTH",
"269 1579 OFFCURVE",
"191 1470 OFFCURVE",
"176 1237 CURVE",
"356 1237 LINE",
"368 1302 OFFCURVE",
"392 1335 OFFCURVE",
"428 1335 CURVE SMOOTH",
"527 1335 OFFCURVE",
"652 1239 OFFCURVE",
"772 1239 CURVE SMOOTH",
"917 1239 OFFCURVE",
"1003 1358 OFFCURVE",
"1018 1581 CURVE"
);
}
);
width = 1225;
}
);
unicode = 02DC;
},
{
glyphname = "sheva-hb";
lastChange = "2013-03-07 06:18:30 +0200";
layers = (
{
anchors = (
{
name = _bottom;
position = "{629, -140}";
},
{
name = bottom_1;
position = "{105, -47}";
},
{
name = bottom_2;
position = "{105, -47}";
},
{
name = top_1;
position = "{105, -47}";
},
{
name = top_2;
position = "{105, -47}";
}
);
layerId = "3B25EE82-5579-4A28-8C59-D985C68457B1";
name = Bold;
paths = (
{
closed = 1;
nodes = (
"573 -101 OFFCURVE",
"537 -134 OFFCURVE",
"537 -188 CURVE SMOOTH",
"537 -242 OFFCURVE",
"573 -274 OFFCURVE",
"631 -274 CURVE SMOOTH",
"688 -274 OFFCURVE",
"724 -241 OFFCURVE",
"724 -188 CURVE SMOOTH",
"724 -135 OFFCURVE",
"688 -101 OFFCURVE",
"631 -101 CURVE SMOOTH"
);
},
{
closed = 1;
nodes = (
"573 -342 OFFCURVE",
"537 -375 OFFCURVE",
"537 -429 CURVE SMOOTH",
"537 -483 OFFCURVE",
"573 -515 OFFCURVE",
"631 -515 CURVE SMOOTH",
"688 -515 OFFCURVE",
"724 -481 OFFCURVE",
"724 -429 CURVE SMOOTH",
"724 -376 OFFCURVE",
"688 -342 OFFCURVE",
"631 -342 CURVE SMOOTH"
);
}
);
width = 1256;
}
);
unicode = 05B0;
},
{
glyphname = "hatafsegol-hb";
lastChange = "2013-03-07 06:18:30 +0200";
layers = (
{
anchors = (
{
name = _bottom;
position = "{632, -147}";
}
);
layerId = "3B25EE82-5579-4A28-8C59-D985C68457B1";
name = Bold;
paths = (
{
closed = 1;
nodes = (
"616 -116 OFFCURVE",
"581 -149 OFFCURVE",
"581 -203 CURVE SMOOTH",
"581 -257 OFFCURVE",
"615 -289 OFFCURVE",
"675 -289 CURVE SMOOTH",
"732 -289 OFFCURVE",
"770 -256 OFFCURVE",
"770 -203 CURVE SMOOTH",
"770 -151 OFFCURVE",
"732 -116 OFFCURVE",
"675 -116 CURVE SMOOTH"
);
},
{
closed = 1;
nodes = (
"472 -357 OFFCURVE",
"437 -390 OFFCURVE",
"437 -444 CURVE SMOOTH",
"437 -498 OFFCURVE",
"472 -530 OFFCURVE",
"530 -530 CURVE SMOOTH",
"587 -530 OFFCURVE",
"623 -496 OFFCURVE",
"623 -444 CURVE SMOOTH",
"623 -391 OFFCURVE",
"587 -357 OFFCURVE",
"530 -357 CURVE SMOOTH"
);
},
{
closed = 1;
nodes = (
"321 -116 OFFCURVE",
"285 -149 OFFCURVE",
"285 -203 CURVE SMOOTH",
"285 -257 OFFCURVE",
"321 -289 OFFCURVE",
"378 -289 CURVE SMOOTH",
"436 -289 OFFCURVE",
"472 -256 OFFCURVE",
"472 -203 CURVE SMOOTH",
"472 -150 OFFCURVE",
"436 -116 OFFCURVE",
"378 -116 CURVE SMOOTH"
);
},
{
closed = 1;
nodes = (
"883 -357 OFFCURVE",
"847 -390 OFFCURVE",
"847 -444 CURVE SMOOTH",
"847 -498 OFFCURVE",
"883 -530 OFFCURVE",
"941 -530 CURVE SMOOTH",
"998 -530 OFFCURVE",
"1034 -496 OFFCURVE",
"1034 -444 CURVE SMOOTH",
"1034 -391 OFFCURVE",
"998 -357 OFFCURVE",
"941 -357 CURVE SMOOTH"
);
},
{
closed = 1;
nodes = (
"883 -116 OFFCURVE",
"847 -149 OFFCURVE",
"847 -203 CURVE SMOOTH",
"847 -257 OFFCURVE",
"883 -289 OFFCURVE",
"941 -289 CURVE SMOOTH",
"998 -289 OFFCURVE",
"1034 -256 OFFCURVE",
"1034 -203 CURVE SMOOTH",
"1034 -150 OFFCURVE",
"998 -116 OFFCURVE",
"941 -116 CURVE SMOOTH"
);
}
);
width = 1256;
}
);
unicode = 05B1;
},
{
glyphname = "hatafpatah-hb";
lastChange = "2013-03-07 06:18:30 +0200";
layers = (
{
anchors = (
{
name = _bottom;
position = "{635, -147}";
}
);
layerId = "3B25EE82-5579-4A28-8C59-D985C68457B1";
name = Bold;
paths = (
{
closed = 1;
nodes = (
"351 -142 LINE",
"351 -259 LINE",
"718 -259 LINE",
"718 -142 LINE"
);
},
{
closed = 1;
nodes = (
"838 -357 OFFCURVE",
"803 -390 OFFCURVE",
"803 -444 CURVE SMOOTH",
"803 -498 OFFCURVE",
"838 -530 OFFCURVE",
"896 -530 CURVE SMOOTH",
"953 -530 OFFCURVE",
"989 -496 OFFCURVE",
"989 -444 CURVE SMOOTH",
"989 -391 OFFCURVE",
"953 -357 OFFCURVE",
"896 -357 CURVE SMOOTH"
);
},
{
closed = 1;
nodes = (
"838 -116 OFFCURVE",
"803 -149 OFFCURVE",
"803 -203 CURVE SMOOTH",
"803 -257 OFFCURVE",
"838 -289 OFFCURVE",
"896 -289 CURVE SMOOTH",
"953 -289 OFFCURVE",
"989 -256 OFFCURVE",
"989 -203 CURVE SMOOTH",
"989 -150 OFFCURVE",
"953 -116 OFFCURVE",
"896 -116 CURVE SMOOTH"
);
}
);
width = 1256;
}
);
unicode = 05B2;
},
{
glyphname = "hatafqamats-hb";
lastChange = "2013-03-07 06:18:30 +0200";
layers = (
{
anchors = (
{
name = _bottom;
position = "{635, -147}";
}
);
layerId = "3B25EE82-5579-4A28-8C59-D985C68457B1";
name = Bold;
paths = (
{
closed = 1;
nodes = (
"351 -142 LINE",
"351 -259 LINE",
"479 -259 LINE",
"479 -461 LINE",
"590 -461 LINE",
"590 -259 LINE",
"718 -259 LINE",
"718 -142 LINE"
);
},
{
closed = 1;
nodes = (
"842 -357 OFFCURVE",
"806 -390 OFFCURVE",
"806 -444 CURVE SMOOTH",
"806 -498 OFFCURVE",
"842 -530 OFFCURVE",
"900 -530 CURVE SMOOTH",
"957 -530 OFFCURVE",
"993 -496 OFFCURVE",
"993 -444 CURVE SMOOTH",
"993 -391 OFFCURVE",
"957 -357 OFFCURVE",
"900 -357 CURVE SMOOTH"
);
},
{
closed = 1;
nodes = (
"842 -116 OFFCURVE",
"806 -149 OFFCURVE",
"806 -203 CURVE SMOOTH",
"806 -257 OFFCURVE",
"842 -289 OFFCURVE",
"900 -289 CURVE SMOOTH",
"957 -289 OFFCURVE",
"993 -256 OFFCURVE",
"993 -203 CURVE SMOOTH",
"993 -150 OFFCURVE",
"957 -116 OFFCURVE",
"900 -116 CURVE SMOOTH"
);
}
);
width = 1256;
}
);
unicode = 05B3;
},
{
glyphname = "hiriq-hb";
lastChange = "2013-03-07 06:18:30 +0200";
layers = (
{
anchors = (
{
name = _bottom;
position = "{628, -126}";
}
);
layerId = "3B25EE82-5579-4A28-8C59-D985C68457B1";
name = Bold;
paths = (
{
closed = 1;
nodes = (
"569 -111 OFFCURVE",
"534 -144 OFFCURVE",
"534 -198 CURVE SMOOTH",
"534 -252 OFFCURVE",
"568 -284 OFFCURVE",
"628 -284 CURVE SMOOTH",
"686 -284 OFFCURVE",
"723 -250 OFFCURVE",
"723 -198 CURVE SMOOTH",
"723 -146 OFFCURVE",
"686 -111 OFFCURVE",
"628 -111 CURVE SMOOTH"
);
}
);
width = 1256;
}
);
unicode = 05B4;
},
{
glyphname = "tsere-hb";
lastChange = "2013-03-07 06:18:30 +0200";
layers = (
{
anchors = (
{
name = _bottom;
position = "{628, -123}";
}
);
layerId = "3B25EE82-5579-4A28-8C59-D985C68457B1";
name = Bold;
paths = (
{
closed = 1;
nodes = (
"717 -92 OFFCURVE",
"682 -125 OFFCURVE",
"682 -179 CURVE SMOOTH",
"682 -233 OFFCURVE",
"717 -265 OFFCURVE",
"777 -265 CURVE SMOOTH",
"834 -265 OFFCURVE",
"872 -231 OFFCURVE",
"872 -179 CURVE SMOOTH",
"872 -127 OFFCURVE",
"834 -92 OFFCURVE",
"777 -92 CURVE SMOOTH"
);
},
{
closed = 1;
nodes = (
"422 -92 OFFCURVE",
"387 -125 OFFCURVE",
"387 -179 CURVE SMOOTH",
"387 -233 OFFCURVE",
"422 -265 OFFCURVE",
"480 -265 CURVE SMOOTH",
"537 -265 OFFCURVE",
"573 -231 OFFCURVE",
"573 -179 CURVE SMOOTH",
"573 -126 OFFCURVE",
"537 -92 OFFCURVE",
"480 -92 CURVE SMOOTH"
);
}
);
width = 1256;
}
);
unicode = 05B5;
},
{
glyphname = "segol-hb";
lastChange = "2013-03-07 06:18:30 +0200";
layers = (
{
anchors = (
{
name = _bottom;
position = "{628, -112}";
}
);
layerId = "3B25EE82-5579-4A28-8C59-D985C68457B1";
name = Bold;
paths = (
{
closed = 1;
nodes = (
"717 -116 OFFCURVE",
"682 -149 OFFCURVE",
"682 -203 CURVE SMOOTH",
"682 -257 OFFCURVE",
"717 -289 OFFCURVE",
"777 -289 CURVE SMOOTH",
"834 -289 OFFCURVE",
"872 -256 OFFCURVE",
"872 -203 CURVE SMOOTH",
"872 -151 OFFCURVE",
"834 -116 OFFCURVE",
"777 -116 CURVE SMOOTH"
);
},
{
closed = 1;
nodes = (
"574 -357 OFFCURVE",
"538 -390 OFFCURVE",
"538 -444 CURVE SMOOTH",
"538 -498 OFFCURVE",
"574 -530 OFFCURVE",
"632 -530 CURVE SMOOTH",
"689 -530 OFFCURVE",
"725 -496 OFFCURVE",
"725 -444 CURVE SMOOTH",
"725 -391 OFFCURVE",
"689 -357 OFFCURVE",
"632 -357 CURVE SMOOTH"
);
},
{
closed = 1;
nodes = (
"422 -116 OFFCURVE",
"387 -149 OFFCURVE",
"387 -203 CURVE SMOOTH",
"387 -257 OFFCURVE",
"422 -289 OFFCURVE",
"480 -289 CURVE SMOOTH",
"537 -289 OFFCURVE",
"573 -256 OFFCURVE",
"573 -203 CURVE SMOOTH",
"573 -150 OFFCURVE",
"537 -116 OFFCURVE",
"480 -116 CURVE SMOOTH"
);
}
);
width = 1256;
}
);
unicode = 05B6;
},
{
glyphname = "patah-hb";
lastChange = "2013-03-07 06:18:30 +0200";
layers = (
{
anchors = (
{
name = _bottom;
position = "{628, -144}";
}
);
layerId = "3B25EE82-5579-4A28-8C59-D985C68457B1";
name = Bold;
paths = (
{
closed = 1;
nodes = (
"432 -118 LINE",
"432 -234 LINE",
"825 -234 LINE",
"825 -118 LINE"
);
}
);
width = 1256;
}
);
unicode = 05B7;
},
{
glyphname = "qamats-hb";
lastChange = "2013-03-07 06:18:30 +0200";
layers = (
{
anchors = (
{
name = _bottom;
position = "{628, -164}";
}
);
layerId = "3B25EE82-5579-4A28-8C59-D985C68457B1";
name = Bold;
paths = (
{
closed = 1;
nodes = (
"438 -138 LINE",
"438 -255 LINE",
"573 -255 LINE",
"573 -457 LINE",
"684 -457 LINE",
"684 -255 LINE",
"820 -255 LINE",
"820 -138 LINE"
);
}
);
width = 1256;
}
);
unicode = 05B8;
},
{
glyphname = "holam-hb";
lastChange = "2013-03-07 06:18:30 +0200";
layers = (
{
anchors = (
{
name = _topleft;
position = "{628, 1181}";
}
);
layerId = "3B25EE82-5579-4A28-8C59-D985C68457B1";
name = Bold;
paths = (
{
closed = 1;
nodes = (
"570 1583 OFFCURVE",
"535 1550 OFFCURVE",
"535 1496 CURVE SMOOTH",
"535 1442 OFFCURVE",
"569 1410 OFFCURVE",
"629 1410 CURVE SMOOTH",
"687 1410 OFFCURVE",
"724 1444 OFFCURVE",
"724 1496 CURVE SMOOTH",
"724 1548 OFFCURVE",
"687 1583 OFFCURVE",
"629 1583 CURVE SMOOTH"
);
}
);
width = 1256;
}
);
unicode = 05B9;
},
{
glyphname = "holamhaser-hb";
lastChange = "2013-03-07 06:18:30 +0200";
layers = (
{
anchors = (
{
name = _topleft;
position = "{628, 1181}";
}
);
layerId = "3B25EE82-5579-4A28-8C59-D985C68457B1";
name = Bold;
paths = (
{
closed = 1;
nodes = (
"570 1583 OFFCURVE",
"535 1550 OFFCURVE",
"535 1496 CURVE SMOOTH",
"535 1442 OFFCURVE",
"569 1410 OFFCURVE",
"629 1410 CURVE SMOOTH",
"687 1410 OFFCURVE",
"724 1444 OFFCURVE",
"724 1496 CURVE SMOOTH",
"724 1548 OFFCURVE",
"687 1583 OFFCURVE",
"629 1583 CURVE SMOOTH"
);
}
);
width = 600;
}
);
unicode = 05BA;
},
{
glyphname = "qubuts-hb";
lastChange = "2013-03-07 06:18:30 +0200";
layers = (
{
anchors = (
{
name = _bottom;
position = "{635, -158}";
}
);
layerId = "3B25EE82-5579-4A28-8C59-D985C68457B1";
name = Bold;
paths = (
{
closed = 1;
nodes = (
"795 -478 OFFCURVE",
"760 -511 OFFCURVE",
"760 -565 CURVE SMOOTH",
"760 -619 OFFCURVE",
"794 -651 OFFCURVE",
"854 -651 CURVE SMOOTH",
"912 -651 OFFCURVE",
"949 -617 OFFCURVE",
"949 -565 CURVE SMOOTH",
"949 -513 OFFCURVE",
"912 -478 OFFCURVE",
"854 -478 CURVE SMOOTH"
);
},
{
closed = 1;
nodes = (
"429 -127 OFFCURVE",
"394 -160 OFFCURVE",
"394 -214 CURVE SMOOTH",
"394 -268 OFFCURVE",
"429 -300 OFFCURVE",
"487 -300 CURVE SMOOTH",
"544 -300 OFFCURVE",
"580 -267 OFFCURVE",
"580 -214 CURVE SMOOTH",
"580 -161 OFFCURVE",
"544 -127 OFFCURVE",
"487 -127 CURVE SMOOTH"
);
},
{
closed = 1;
nodes = (
"611 -303 OFFCURVE",
"575 -336 OFFCURVE",
"575 -390 CURVE SMOOTH",
"575 -444 OFFCURVE",
"611 -476 OFFCURVE",
"669 -476 CURVE SMOOTH",
"726 -476 OFFCURVE",
"762 -442 OFFCURVE",
"762 -390 CURVE SMOOTH",
"762 -337 OFFCURVE",
"726 -303 OFFCURVE",
"669 -303 CURVE SMOOTH"
);
}
);
width = 1256;
}
);
unicode = 05BB;
},
{
glyphname = "dagesh-hb";
lastChange = "2013-03-07 06:18:30 +0200";
layers = (
{
anchors = (
{
name = _center;
position = "{628, 648}";
}
);
layerId = "3B25EE82-5579-4A28-8C59-D985C68457B1";
name = Bold;
paths = (
{
closed = 1;
nodes = (
"569 743 OFFCURVE",
"534 710 OFFCURVE",
"534 656 CURVE SMOOTH",
"534 602 OFFCURVE",
"568 570 OFFCURVE",
"628 570 CURVE SMOOTH",
"686 570 OFFCURVE",
"723 604 OFFCURVE",
"723 656 CURVE SMOOTH",
"723 708 OFFCURVE",
"686 743 OFFCURVE",
"628 743 CURVE SMOOTH"
);
}
);
width = 1256;
}
);
unicode = 05BC;
},
{
glyphname = uni05BD;
lastChange = "2013-03-07 06:18:30 +0200";
layers = (
{
anchors = (
{
name = _bottom;
position = "{627.5, -137}";
}
);
layerId = "3B25EE82-5579-4A28-8C59-D985C68457B1";
name = Bold;
paths = (
{
closed = 1;
nodes = (
"576 -157 LINE",
"576 -509 LINE",
"679 -509 LINE",
"679 -157 LINE"
);
}
);
width = 1256;
}
);
unicode = 05BD;
},
{
glyphname = "shindot-hb";
lastChange = "2013-03-07 06:18:30 +0200";
layers = (
{
anchors = (
{
name = _topright;
position = "{669, 1181}";
}
);
layerId = "3B25EE82-5579-4A28-8C59-D985C68457B1";
name = Bold;
paths = (
{
closed = 1;
nodes = (
"517 1583 OFFCURVE",
"482 1550 OFFCURVE",
"482 1496 CURVE SMOOTH",
"482 1442 OFFCURVE",
"516 1410 OFFCURVE",
"576 1410 CURVE SMOOTH",
"634 1410 OFFCURVE",
"671 1444 OFFCURVE",
"671 1496 CURVE SMOOTH",
"671 1548 OFFCURVE",
"634 1583 OFFCURVE",
"576 1583 CURVE SMOOTH"
);
}
);
width = 1256;
}
);
unicode = 05C1;
},
{
glyphname = "sindot-hb";
lastChange = "2013-03-07 06:18:30 +0200";
layers = (
{
anchors = (
{
name = _topleft;
position = "{628, 1181}";
}
);
layerId = "3B25EE82-5579-4A28-8C59-D985C68457B1";
name = Bold;
paths = (
{
closed = 1;
nodes = (
"570 1583 OFFCURVE",
"535 1550 OFFCURVE",
"535 1496 CURVE SMOOTH",
"535 1442 OFFCURVE",
"569 1410 OFFCURVE",
"629 1410 CURVE SMOOTH",
"687 1410 OFFCURVE",
"724 1444 OFFCURVE",
"724 1496 CURVE SMOOTH",
"724 1548 OFFCURVE",
"687 1583 OFFCURVE",
"629 1583 CURVE SMOOTH"
);
}
);
width = 1256;
}
);
unicode = 05C2;
},
{
glyphname = "qamatsqatan-hb";
lastChange = "2013-03-07 06:18:30 +0200";
layers = (
{
anchors = (
{
name = _bottom;
position = "{309, 20}";
}
);
layerId = "3B25EE82-5579-4A28-8C59-D985C68457B1";
name = Bold;
paths = (
{
closed = 1;
nodes = (
"111 -110 LINE",
"111 -210 LINE",
"267 -210 LINE",
"267 -444 LINE",
"360 -444 LINE",
"360 -210 LINE",
"521 -210 LINE",
"521 -110 LINE"
);
}
);
width = 600;
}
);
unicode = 05C7;
},
